{
    "header": {
      "keySignatures": [
        {
          "key": "C",
          "scale": "major",
          "ticks": 0
        }
      ],
      "meta": [],
      "name": "",
      "ppq": 120,
      "tempos": [
        {
          "bpm": 75,
          "ticks": 0
        }
      ],
      "timeSignatures": [
        {
          "ticks": 0,
          "timeSignature": [
            4,
            4
          ],
          "measures": 0
        }
      ]
    },
    "tracks": [
      {
        "channel": 0,
        "controlChanges": {
          "7": [
            {
              "number": 7,
              "ticks": 0,
              "time": 0,
              "value": 0.7874015748031497
            }
          ]
        },
        "pitchBends": [],
        "instrument": {
          "family": "reed",
          "number": 68,
          "name": "oboe"
        },
        "name": "The Legend of Zelda - Title Screen music",
        "notes": [
          {
            "duration": 0.3333333333333339,
            "durationTicks": 50,
            "midi": 53,
            "name": "F3",
            "ticks": 1617,
            "time": 10.780000000000001,
            "velocity": 0.9448818897637795
          },
          {
            "duration": 0.16666666666666607,
            "durationTicks": 25,
            "midi": 53,
            "name": "F3",
            "ticks": 1667,
            "time": 11.113333333333335,
            "velocity": 0.9448818897637795
          },
          {
            "duration": 0.16666666666666607,
            "durationTicks": 25,
            "midi": 46,
            "name": "A#2",
            "ticks": 1692,
            "time": 11.280000000000001,
            "velocity": 0.9448818897637795
          },
          {
            "duration": 0.3266666666666662,
            "durationTicks": 49,
            "midi": 53,
            "name": "F3",
            "ticks": 1717,
            "time": 11.446666666666667,
            "velocity": 0.9448818897637795
          },
          {
            "duration": 0.16666666666666607,
            "durationTicks": 25,
            "midi": 53,
            "name": "F3",
            "ticks": 1767,
            "time": 11.780000000000001,
            "velocity": 0.9448818897637795
          },
          {
            "duration": 0.16000000000000014,
            "durationTicks": 24,
            "midi": 46,
            "name": "A#2",
            "ticks": 1792,
            "time": 11.946666666666667,
            "velocity": 0.9448818897637795
          },
          {
            "duration": 0.33333333333333215,
            "durationTicks": 50,
            "midi": 53,
            "name": "F3",
            "ticks": 1817,
            "time": 12.113333333333335,
            "velocity": 0.9448818897637795
          },
          {
            "duration": 0.16000000000000014,
            "durationTicks": 24,
            "midi": 53,
            "name": "F3",
            "ticks": 1867,
            "time": 12.446666666666667,
            "velocity": 0.9448818897637795
          },
          {
            "duration": 0.16666666666666607,
            "durationTicks": 25,
            "midi": 46,
            "name": "A#2",
            "ticks": 1892,
            "time": 12.613333333333335,
            "velocity": 0.9448818897637795
          },
          {
            "duration": 0.16666666666666607,
            "durationTicks": 25,
            "midi": 53,
            "name": "F3",
            "ticks": 1917,
            "time": 12.780000000000001,
            "velocity": 0.9448818897637795
          },
          {
            "duration": 0.16000000000000014,
            "durationTicks": 24,
            "midi": 46,
            "name": "A#2",
            "ticks": 1942,
            "time": 12.946666666666667,
            "velocity": 0.9448818897637795
          },
          {
            "duration": 0.16666666666666785,
            "durationTicks": 25,
            "midi": 53,
            "name": "F3",
            "ticks": 1967,
            "time": 13.113333333333333,
            "velocity": 0.9448818897637795
          },
          {
            "duration": 0.16666666666666607,
            "durationTicks": 25,
            "midi": 46,
            "name": "A#2",
            "ticks": 1992,
            "time": 13.280000000000001,
            "velocity": 0.9448818897637795
          },
          {
            "duration": 0.3266666666666662,
            "durationTicks": 49,
            "midi": 53,
            "name": "F3",
            "ticks": 2017,
            "time": 13.446666666666667,
            "velocity": 0.9448818897637795
          },
          {
            "duration": 0.16666666666666607,
            "durationTicks": 25,
            "midi": 53,
            "name": "F3",
            "ticks": 2067,
            "time": 13.780000000000001,
            "velocity": 0.9448818897637795
          },
          {
            "duration": 0.16000000000000014,
            "durationTicks": 24,
            "midi": 46,
            "name": "A#2",
            "ticks": 2092,
            "time": 13.946666666666667,
            "velocity": 0.9448818897637795
          },
          {
            "duration": 0.3333333333333339,
            "durationTicks": 50,
            "midi": 53,
            "name": "F3",
            "ticks": 2117,
            "time": 14.113333333333333,
            "velocity": 0.9448818897637795
          },
          {
            "duration": 0.16000000000000014,
            "durationTicks": 24,
            "midi": 53,
            "name": "F3",
            "ticks": 2167,
            "time": 14.446666666666667,
            "velocity": 0.9448818897637795
          },
          {
            "duration": 0.16666666666666785,
            "durationTicks": 25,
            "midi": 46,
            "name": "A#2",
            "ticks": 2192,
            "time": 14.613333333333333,
            "velocity": 0.9448818897637795
          },
          {
            "duration": 0.33333333333333215,
            "durationTicks": 50,
            "midi": 53,
            "name": "F3",
            "ticks": 2217,
            "time": 14.780000000000001,
            "velocity": 0.9448818897637795
          },
          {
            "duration": 0.16666666666666785,
            "durationTicks": 25,
            "midi": 53,
            "name": "F3",
            "ticks": 2267,
            "time": 15.113333333333333,
            "velocity": 0.9448818897637795
          },
          {
            "duration": 0.16000000000000014,
            "durationTicks": 24,
            "midi": 46,
            "name": "A#2",
            "ticks": 2292,
            "time": 15.280000000000001,
            "velocity": 0.9448818897637795
          },
          {
            "duration": 0.16000000000000014,
            "durationTicks": 24,
            "midi": 53,
            "name": "F3",
            "ticks": 2317,
            "time": 15.446666666666667,
            "velocity": 0.9448818897637795
          },
          {
            "duration": 0.16000000000000014,
            "durationTicks": 24,
            "midi": 46,
            "name": "A#2",
            "ticks": 2342,
            "time": 15.613333333333333,
            "velocity": 0.9448818897637795
          },
          {
            "duration": 0.21333333333333293,
            "durationTicks": 32,
            "midi": 53,
            "name": "F3",
            "ticks": 2367,
            "time": 15.780000000000001,
            "velocity": 0.9448818897637795
          },
          {
            "duration": 0.16000000000000014,
            "durationTicks": 24,
            "midi": 46,
            "name": "A#2",
            "ticks": 2400,
            "time": 16,
            "velocity": 0.9448818897637795
          },
          {
            "duration": 0.33333333333333215,
            "durationTicks": 50,
            "midi": 53,
            "name": "F3",
            "ticks": 2425,
            "time": 16.166666666666668,
            "velocity": 0.9448818897637795
          },
          {
            "duration": 0.16666666666666785,
            "durationTicks": 25,
            "midi": 53,
            "name": "F3",
            "ticks": 2475,
            "time": 16.5,
            "velocity": 0.9448818897637795
          },
          {
            "duration": 0.16666666666666785,
            "durationTicks": 25,
            "midi": 46,
            "name": "A#2",
            "ticks": 2500,
            "time": 16.666666666666668,
            "velocity": 0.9448818897637795
          },
          {
            "duration": 0.33333333333333215,
            "durationTicks": 50,
            "midi": 53,
            "name": "F3",
            "ticks": 2525,
            "time": 16.833333333333336,
            "velocity": 0.9448818897637795
          },
          {
            "duration": 0.16666666666666785,
            "durationTicks": 25,
            "midi": 53,
            "name": "F3",
            "ticks": 2575,
            "time": 17.166666666666668,
            "velocity": 0.9448818897637795
          },
          {
            "duration": 0.1666666666666643,
            "durationTicks": 25,
            "midi": 46,
            "name": "A#2",
            "ticks": 2600,
            "time": 17.333333333333336,
            "velocity": 0.9448818897637795
          },
          {
            "duration": 0.326666666666668,
            "durationTicks": 49,
            "midi": 53,
            "name": "F3",
            "ticks": 2625,
            "time": 17.5,
            "velocity": 0.9448818897637795
          },
          {
            "duration": 0.1666666666666643,
            "durationTicks": 25,
            "midi": 53,
            "name": "F3",
            "ticks": 2675,
            "time": 17.833333333333336,
            "velocity": 0.9448818897637795
          },
          {
            "duration": 0.16000000000000014,
            "durationTicks": 24,
            "midi": 46,
            "name": "A#2",
            "ticks": 2700,
            "time": 18,
            "velocity": 0.9448818897637795
          },
          {
            "duration": 0.16666666666666785,
            "durationTicks": 25,
            "midi": 53,
            "name": "F3",
            "ticks": 2725,
            "time": 18.166666666666668,
            "velocity": 0.9448818897637795
          },
          {
            "duration": 0.1666666666666643,
            "durationTicks": 25,
            "midi": 46,
            "name": "A#2",
            "ticks": 2750,
            "time": 18.333333333333336,
            "velocity": 0.9448818897637795
          },
          {
            "duration": 0.16000000000000014,
            "durationTicks": 24,
            "midi": 53,
            "name": "F3",
            "ticks": 2775,
            "time": 18.5,
            "velocity": 0.9448818897637795
          },
          {
            "duration": 0.16666666666666785,
            "durationTicks": 25,
            "midi": 46,
            "name": "A#2",
            "ticks": 2800,
            "time": 18.666666666666668,
            "velocity": 0.9448818897637795
          },
          {
            "duration": 0.32666666666666444,
            "durationTicks": 49,
            "midi": 51,
            "name": "D#3",
            "ticks": 2825,
            "time": 18.833333333333336,
            "velocity": 0.9448818897637795
          },
          {
            "duration": 0.33333333333333215,
            "durationTicks": 50,
            "midi": 58,
            "name": "A#3",
            "ticks": 2875,
            "time": 19.166666666666668,
            "velocity": 0.9448818897637795
          },
          {
            "duration": 0.16666666666666785,
            "durationTicks": 25,
            "midi": 58,
            "name": "A#3",
            "ticks": 2925,
            "time": 19.5,
            "velocity": 0.9448818897637795
          },
          {
            "duration": 0.16000000000000014,
            "durationTicks": 24,
            "midi": 60,
            "name": "C4",
            "ticks": 2950,
            "time": 19.666666666666668,
            "velocity": 0.9448818897637795
          },
          {
            "duration": 0.1666666666666643,
            "durationTicks": 25,
            "midi": 62,
            "name": "D4",
            "ticks": 2975,
            "time": 19.833333333333336,
            "velocity": 0.9448818897637795
          },
          {
            "duration": 0.16000000000000014,
            "durationTicks": 24,
            "midi": 63,
            "name": "D#4",
            "ticks": 3000,
            "time": 20,
            "velocity": 0.9448818897637795
          },
          {
            "duration": 0.33333333333333215,
            "durationTicks": 50,
            "midi": 65,
            "name": "F4",
            "ticks": 3025,
            "time": 20.166666666666668,
            "velocity": 0.9448818897637795
          },
          {
            "duration": 0.16666666666666785,
            "durationTicks": 25,
            "midi": 51,
            "name": "D#3",
            "ticks": 3075,
            "time": 20.5,
            "velocity": 0.9448818897637795
          },
          {
            "duration": 0.16000000000000014,
            "durationTicks": 24,
            "midi": 44,
            "name": "G#2",
            "ticks": 3100,
            "time": 20.666666666666668,
            "velocity": 0.9448818897637795
          },
          {
            "duration": 0.1666666666666643,
            "durationTicks": 25,
            "midi": 51,
            "name": "D#3",
            "ticks": 3125,
            "time": 20.833333333333336,
            "velocity": 0.9448818897637795
          },
          {
            "duration": 0.16000000000000014,
            "durationTicks": 24,
            "midi": 44,
            "name": "G#2",
            "ticks": 3150,
            "time": 21,
            "velocity": 0.9448818897637795
          },
          {
            "duration": 0.16666666666666785,
            "durationTicks": 25,
            "midi": 51,
            "name": "D#3",
            "ticks": 3175,
            "time": 21.166666666666668,
            "velocity": 0.9448818897637795
          },
          {
            "duration": 0.1666666666666643,
            "durationTicks": 25,
            "midi": 44,
            "name": "G#2",
            "ticks": 3200,
            "time": 21.333333333333336,
            "velocity": 0.9448818897637795
          },
          {
            "duration": 0.326666666666668,
            "durationTicks": 49,
            "midi": 49,
            "name": "C#3",
            "ticks": 3225,
            "time": 21.5,
            "velocity": 0.9448818897637795
          },
          {
            "duration": 0.1666666666666643,
            "durationTicks": 25,
            "midi": 49,
            "name": "C#3",
            "ticks": 3275,
            "time": 21.833333333333336,
            "velocity": 0.9448818897637795
          },
          {
            "duration": 0.16000000000000014,
            "durationTicks": 24,
            "midi": 42,
            "name": "F#2",
            "ticks": 3300,
            "time": 22,
            "velocity": 0.9448818897637795
          },
          {
            "duration": 0.33333333333333215,
            "durationTicks": 50,
            "midi": 49,
            "name": "C#3",
            "ticks": 3325,
            "time": 22.166666666666668,
            "velocity": 0.9448818897637795
          },
          {
            "duration": 0.16666666666666785,
            "durationTicks": 25,
            "midi": 49,
            "name": "C#3",
            "ticks": 3375,
            "time": 22.5,
            "velocity": 0.9448818897637795
          },
          {
            "duration": 0.16000000000000014,
            "durationTicks": 24,
            "midi": 42,
            "name": "F#2",
            "ticks": 3400,
            "time": 22.666666666666668,
            "velocity": 0.9448818897637795
          },
          {
            "duration": 0.33333333333333215,
            "durationTicks": 50,
            "midi": 49,
            "name": "C#3",
            "ticks": 3425,
            "time": 22.833333333333336,
            "velocity": 0.9448818897637795
          },
          {
            "duration": 0.16666666666666785,
            "durationTicks": 25,
            "midi": 49,
            "name": "C#3",
            "ticks": 3475,
            "time": 23.166666666666668,
            "velocity": 0.9448818897637795
          },
          {
            "duration": 0.1666666666666643,
            "durationTicks": 25,
            "midi": 42,
            "name": "F#2",
            "ticks": 3500,
            "time": 23.333333333333336,
            "velocity": 0.9448818897637795
          },
          {
            "duration": 0.16000000000000014,
            "durationTicks": 24,
            "midi": 49,
            "name": "C#3",
            "ticks": 3525,
            "time": 23.5,
            "velocity": 0.9448818897637795
          },
          {
            "duration": 0.16666666666666785,
            "durationTicks": 25,
            "midi": 42,
            "name": "F#2",
            "ticks": 3550,
            "time": 23.666666666666668,
            "velocity": 0.9448818897637795
          },
          {
            "duration": 0.1666666666666643,
            "durationTicks": 25,
            "midi": 49,
            "name": "C#3",
            "ticks": 3575,
            "time": 23.833333333333336,
            "velocity": 0.9448818897637795
          },
          {
            "duration": 0.16000000000000014,
            "durationTicks": 24,
            "midi": 42,
            "name": "F#2",
            "ticks": 3600,
            "time": 24,
            "velocity": 0.9448818897637795
          },
          {
            "duration": 0.33333333333333215,
            "durationTicks": 50,
            "midi": 48,
            "name": "C3",
            "ticks": 3625,
            "time": 24.166666666666668,
            "velocity": 0.9448818897637795
          },
          {
            "duration": 0.326666666666668,
            "durationTicks": 49,
            "midi": 58,
            "name": "A#3",
            "ticks": 3675,
            "time": 24.5,
            "velocity": 0.9448818897637795
          },
          {
            "duration": 0.1666666666666643,
            "durationTicks": 25,
            "midi": 58,
            "name": "A#3",
            "ticks": 3725,
            "time": 24.833333333333336,
            "velocity": 0.9448818897637795
          },
          {
            "duration": 0.16000000000000014,
            "durationTicks": 24,
            "midi": 60,
            "name": "C4",
            "ticks": 3750,
            "time": 25,
            "velocity": 0.9448818897637795
          },
          {
            "duration": 0.16666666666666785,
            "durationTicks": 25,
            "midi": 62,
            "name": "D4",
            "ticks": 3775,
            "time": 25.166666666666668,
            "velocity": 0.9448818897637795
          },
          {
            "duration": 0.1666666666666643,
            "durationTicks": 25,
            "midi": 63,
            "name": "D#4",
            "ticks": 3800,
            "time": 25.333333333333336,
            "velocity": 0.9448818897637795
          },
          {
            "duration": 0.326666666666668,
            "durationTicks": 49,
            "midi": 65,
            "name": "F4",
            "ticks": 3825,
            "time": 25.5,
            "velocity": 0.9448818897637795
          },
          {
            "duration": 0.16666666666666785,
            "durationTicks": 25,
            "midi": 48,
            "name": "C3",
            "ticks": 3875,
            "time": 25.833333333333332,
            "velocity": 0.9448818897637795
          },
          {
            "duration": 0.1600000000000037,
            "durationTicks": 24,
            "midi": 41,
            "name": "F2",
            "ticks": 3900,
            "time": 26,
            "velocity": 0.9448818897637795
          },
          {
            "duration": 0.16666666666666075,
            "durationTicks": 25,
            "midi": 48,
            "name": "C3",
            "ticks": 3925,
            "time": 26.16666666666667,
            "velocity": 0.9448818897637795
          },
          {
            "duration": 0.16666666666666785,
            "durationTicks": 25,
            "midi": 41,
            "name": "F2",
            "ticks": 3950,
            "time": 26.333333333333332,
            "velocity": 0.9448818897637795
          },
          {
            "duration": 0.1666666666666714,
            "durationTicks": 25,
            "midi": 48,
            "name": "C3",
            "ticks": 3975,
            "time": 26.5,
            "velocity": 0.9448818897637795
          },
          {
            "duration": 0.16666666666666075,
            "durationTicks": 25,
            "midi": 41,
            "name": "F2",
            "ticks": 4000,
            "time": 26.66666666666667,
            "velocity": 0.9448818897637795
          },
          {
            "duration": 0.6666666666666679,
            "durationTicks": 100,
            "midi": 62,
            "name": "D4",
            "ticks": 4025,
            "time": 26.833333333333332,
            "velocity": 0.9448818897637795
          },
          {
            "duration": 0.206666666666667,
            "durationTicks": 31,
            "midi": 62,
            "name": "D4",
            "ticks": 4125,
            "time": 27.5,
            "velocity": 0.9448818897637795
          },
          {
            "duration": 0.21333333333333115,
            "durationTicks": 32,
            "midi": 62,
            "name": "D4",
            "ticks": 4157,
            "time": 27.713333333333335,
            "velocity": 0.9448818897637795
          },
          {
            "duration": 0.23333333333333783,
            "durationTicks": 35,
            "midi": 60,
            "name": "C4",
            "ticks": 4190,
            "time": 27.933333333333334,
            "velocity": 0.9448818897637795
          },
          {
            "duration": 0.5,
            "durationTicks": 75,
            "midi": 62,
            "name": "D4",
            "ticks": 4225,
            "time": 28.16666666666667,
            "velocity": 0.9448818897637795
          },
          {
            "duration": 0.16666666666666075,
            "durationTicks": 25,
            "midi": 62,
            "name": "D4",
            "ticks": 4300,
            "time": 28.66666666666667,
            "velocity": 0.9448818897637795
          },
          {
            "duration": 0.16666666666666785,
            "durationTicks": 25,
            "midi": 62,
            "name": "D4",
            "ticks": 4325,
            "time": 28.833333333333332,
            "velocity": 0.9448818897637795
          },
          {
            "duration": 0.1600000000000037,
            "durationTicks": 24,
            "midi": 63,
            "name": "D#4",
            "ticks": 4350,
            "time": 29,
            "velocity": 0.9448818897637795
          },
          {
            "duration": 0.16666666666666075,
            "durationTicks": 25,
            "midi": 65,
            "name": "F4",
            "ticks": 4375,
            "time": 29.16666666666667,
            "velocity": 0.9448818897637795
          },
          {
            "duration": 0.16666666666666785,
            "durationTicks": 25,
            "midi": 67,
            "name": "G4",
            "ticks": 4400,
            "time": 29.333333333333332,
            "velocity": 0.9448818897637795
          },
          {
            "duration": 0.5,
            "durationTicks": 75,
            "midi": 68,
            "name": "G#4",
            "ticks": 4425,
            "time": 29.5,
            "velocity": 0.9448818897637795
          },
          {
            "duration": 0.1600000000000037,
            "durationTicks": 24,
            "midi": 70,
            "name": "A#4",
            "ticks": 4500,
            "time": 30,
            "velocity": 0.9448818897637795
          },
          {
            "duration": 0.16666666666666075,
            "durationTicks": 25,
            "midi": 70,
            "name": "A#4",
            "ticks": 4525,
            "time": 30.16666666666667,
            "velocity": 0.9448818897637795
          },
          {
            "duration": 0.16666666666666785,
            "durationTicks": 25,
            "midi": 72,
            "name": "C5",
            "ticks": 4550,
            "time": 30.333333333333332,
            "velocity": 0.9448818897637795
          },
          {
            "duration": 0.1600000000000037,
            "durationTicks": 24,
            "midi": 74,
            "name": "D5",
            "ticks": 4575,
            "time": 30.5,
            "velocity": 0.9448818897637795
          },
          {
            "duration": 0.16666666666666075,
            "durationTicks": 25,
            "midi": 75,
            "name": "D#5",
            "ticks": 4600,
            "time": 30.66666666666667,
            "velocity": 0.9448818897637795
          },
          {
            "duration": 0.6666666666666679,
            "durationTicks": 100,
            "midi": 77,
            "name": "F5",
            "ticks": 4625,
            "time": 30.833333333333332,
            "velocity": 0.9448818897637795
          },
          {
            "duration": 0.206666666666667,
            "durationTicks": 31,
            "midi": 68,
            "name": "G#4",
            "ticks": 4725,
            "time": 31.5,
            "velocity": 0.9448818897637795
          },
          {
            "duration": 0.21333333333333115,
            "durationTicks": 32,
            "midi": 70,
            "name": "A#4",
            "ticks": 4757,
            "time": 31.713333333333335,
            "velocity": 0.9448818897637795
          },
          {
            "duration": 0.22666666666667012,
            "durationTicks": 34,
            "midi": 72,
            "name": "C5",
            "ticks": 4790,
            "time": 31.933333333333334,
            "velocity": 0.9448818897637795
          },
          {
            "duration": 0.5,
            "durationTicks": 75,
            "midi": 66,
            "name": "F#4",
            "ticks": 4825,
            "time": 32.16666666666667,
            "velocity": 0.9448818897637795
          },
          {
            "duration": 0.1666666666666643,
            "durationTicks": 25,
            "midi": 66,
            "name": "F#4",
            "ticks": 4900,
            "time": 32.66666666666667,
            "velocity": 0.9448818897637795
          },
          {
            "duration": 0.1666666666666643,
            "durationTicks": 25,
            "midi": 66,
            "name": "F#4",
            "ticks": 4925,
            "time": 32.833333333333336,
            "velocity": 0.9448818897637795
          },
          {
            "duration": 0.1600000000000037,
            "durationTicks": 24,
            "midi": 68,
            "name": "G#4",
            "ticks": 4950,
            "time": 33,
            "velocity": 0.9448818897637795
          },
          {
            "duration": 0.1666666666666643,
            "durationTicks": 25,
            "midi": 70,
            "name": "A#4",
            "ticks": 4975,
            "time": 33.16666666666667,
            "velocity": 0.9448818897637795
          },
          {
            "duration": 0.1666666666666643,
            "durationTicks": 25,
            "midi": 72,
            "name": "C5",
            "ticks": 5000,
            "time": 33.333333333333336,
            "velocity": 0.9448818897637795
          },
          {
            "duration": 0.4266666666666694,
            "durationTicks": 64,
            "midi": 73,
            "name": "C#5",
            "ticks": 5025,
            "time": 33.5,
            "velocity": 0.9448818897637795
          },
          {
            "duration": 0.2333333333333414,
            "durationTicks": 35,
            "midi": 73,
            "name": "C#5",
            "ticks": 5090,
            "time": 33.93333333333333,
            "velocity": 0.9448818897637795
          },
          {
            "duration": 0.23333333333332718,
            "durationTicks": 35,
            "midi": 73,
            "name": "C#5",
            "ticks": 5125,
            "time": 34.16666666666667,
            "velocity": 0.9448818897637795
          },
          {
            "duration": 0.20666666666667055,
            "durationTicks": 31,
            "midi": 72,
            "name": "C5",
            "ticks": 5160,
            "time": 34.4,
            "velocity": 0.9448818897637795
          },
          {
            "duration": 0.21333333333333115,
            "durationTicks": 32,
            "midi": 70,
            "name": "A#4",
            "ticks": 5192,
            "time": 34.61333333333334,
            "velocity": 0.9448818897637795
          },
          {
            "duration": 0.4333333333333371,
            "durationTicks": 65,
            "midi": 73,
            "name": "C#5",
            "ticks": 5225,
            "time": 34.833333333333336,
            "velocity": 0.9448818897637795
          },
          {
            "duration": 0.23333333333332718,
            "durationTicks": 35,
            "midi": 70,
            "name": "A#4",
            "ticks": 5290,
            "time": 35.26666666666667,
            "velocity": 0.9448818897637795
          },
          {
            "duration": 0.20666666666667055,
            "durationTicks": 31,
            "midi": 68,
            "name": "G#4",
            "ticks": 5325,
            "time": 35.5,
            "velocity": 0.9448818897637795
          },
          {
            "duration": 0.21333333333333826,
            "durationTicks": 32,
            "midi": 68,
            "name": "G#4",
            "ticks": 5357,
            "time": 35.71333333333333,
            "velocity": 0.9448818897637795
          },
          {
            "duration": 0.20666666666667055,
            "durationTicks": 31,
            "midi": 66,
            "name": "F#4",
            "ticks": 5390,
            "time": 35.93333333333333,
            "velocity": 0.9448818897637795
          },
          {
            "duration": 0.4266666666666694,
            "durationTicks": 64,
            "midi": 68,
            "name": "G#4",
            "ticks": 5422,
            "time": 36.14666666666667,
            "velocity": 0.9448818897637795
          },
          {
            "duration": 0.23333333333332718,
            "durationTicks": 35,
            "midi": 68,
            "name": "G#4",
            "ticks": 5487,
            "time": 36.580000000000005,
            "velocity": 0.9448818897637795
          },
          {
            "duration": 0.23333333333333428,
            "durationTicks": 35,
            "midi": 68,
            "name": "G#4",
            "ticks": 5522,
            "time": 36.81333333333333,
            "velocity": 0.9448818897637795
          },
          {
            "duration": 0.20666666666667055,
            "durationTicks": 31,
            "midi": 66,
            "name": "F#4",
            "ticks": 5558,
            "time": 37.053333333333335,
            "velocity": 0.9448818897637795
          },
          {
            "duration": 0.20666666666666345,
            "durationTicks": 31,
            "midi": 68,
            "name": "G#4",
            "ticks": 5590,
            "time": 37.26666666666667,
            "velocity": 0.9448818897637795
          },
          {
            "duration": 0.3333333333333286,
            "durationTicks": 50,
            "midi": 66,
            "name": "F#4",
            "ticks": 5622,
            "time": 37.480000000000004,
            "velocity": 0.9448818897637795
          },
          {
            "duration": 0.1666666666666714,
            "durationTicks": 25,
            "midi": 66,
            "name": "F#4",
            "ticks": 5672,
            "time": 37.81333333333333,
            "velocity": 0.9448818897637795
          },
          {
            "duration": 0.1666666666666643,
            "durationTicks": 25,
            "midi": 65,
            "name": "F4",
            "ticks": 5697,
            "time": 37.980000000000004,
            "velocity": 0.9448818897637795
          },
          {
            "duration": 0.326666666666668,
            "durationTicks": 49,
            "midi": 66,
            "name": "F#4",
            "ticks": 5722,
            "time": 38.14666666666667,
            "velocity": 0.9448818897637795
          },
          {
            "duration": 0.1666666666666643,
            "durationTicks": 25,
            "midi": 66,
            "name": "F#4",
            "ticks": 5772,
            "time": 38.480000000000004,
            "velocity": 0.9448818897637795
          },
          {
            "duration": 0.15333333333333599,
            "durationTicks": 23,
            "midi": 68,
            "name": "G#4",
            "ticks": 5798,
            "time": 38.653333333333336,
            "velocity": 0.9448818897637795
          },
          {
            "duration": 0.6666666666666714,
            "durationTicks": 100,
            "midi": 70,
            "name": "A#4",
            "ticks": 5822,
            "time": 38.81333333333333,
            "velocity": 0.9448818897637795
          },
          {
            "duration": 0.3333333333333286,
            "durationTicks": 50,
            "midi": 68,
            "name": "G#4",
            "ticks": 5922,
            "time": 39.480000000000004,
            "velocity": 0.9448818897637795
          },
          {
            "duration": 0.3333333333333357,
            "durationTicks": 50,
            "midi": 66,
            "name": "F#4",
            "ticks": 5972,
            "time": 39.81333333333333,
            "velocity": 0.9448818897637795
          },
          {
            "duration": 0.326666666666668,
            "durationTicks": 49,
            "midi": 65,
            "name": "F4",
            "ticks": 6022,
            "time": 40.14666666666667,
            "velocity": 0.9448818897637795
          },
          {
            "duration": 0.1666666666666643,
            "durationTicks": 25,
            "midi": 65,
            "name": "F4",
            "ticks": 6072,
            "time": 40.480000000000004,
            "velocity": 0.9448818897637795
          },
          {
            "duration": 0.1600000000000037,
            "durationTicks": 24,
            "midi": 63,
            "name": "D#4",
            "ticks": 6097,
            "time": 40.64666666666667,
            "velocity": 0.9448818897637795
          },
          {
            "duration": 0.3333333333333357,
            "durationTicks": 50,
            "midi": 65,
            "name": "F4",
            "ticks": 6122,
            "time": 40.81333333333333,
            "velocity": 0.9448818897637795
          },
          {
            "duration": 0.1666666666666643,
            "durationTicks": 25,
            "midi": 65,
            "name": "F4",
            "ticks": 6172,
            "time": 41.14666666666667,
            "velocity": 0.9448818897637795
          },
          {
            "duration": 0.1600000000000037,
            "durationTicks": 24,
            "midi": 66,
            "name": "F#4",
            "ticks": 6197,
            "time": 41.31333333333333,
            "velocity": 0.9448818897637795
          },
          {
            "duration": 0.6666666666666643,
            "durationTicks": 100,
            "midi": 68,
            "name": "G#4",
            "ticks": 6222,
            "time": 41.480000000000004,
            "velocity": 0.9448818897637795
          },
          {
            "duration": 0.326666666666668,
            "durationTicks": 49,
            "midi": 66,
            "name": "F#4",
            "ticks": 6322,
            "time": 42.14666666666667,
            "velocity": 0.9448818897637795
          },
          {
            "duration": 0.3333333333333286,
            "durationTicks": 50,
            "midi": 65,
            "name": "F4",
            "ticks": 6372,
            "time": 42.480000000000004,
            "velocity": 0.9448818897637795
          },
          {
            "duration": 0.3333333333333286,
            "durationTicks": 50,
            "midi": 72,
            "name": "C5",
            "ticks": 6420,
            "time": 42.800000000000004,
            "velocity": 0.9448818897637795
          },
          {
            "duration": 0.18666666666666742,
            "durationTicks": 28,
            "midi": 72,
            "name": "C5",
            "ticks": 6470,
            "time": 43.13333333333333,
            "velocity": 0.9448818897637795
          },
          {
            "duration": 0.1666666666666714,
            "durationTicks": 25,
            "midi": 74,
            "name": "D5",
            "ticks": 6497,
            "time": 43.31333333333333,
            "velocity": 0.9448818897637795
          },
          {
            "duration": 1.326666666666668,
            "durationTicks": 199,
            "midi": 76,
            "name": "E5",
            "ticks": 6522,
            "time": 43.480000000000004,
            "velocity": 0.9448818897637795
          },
          {
            "duration": 0.6666666666666714,
            "durationTicks": 100,
            "midi": 79,
            "name": "G5",
            "ticks": 6722,
            "time": 44.81333333333333,
            "velocity": 0.9448818897637795
          },
          {
            "duration": 0.326666666666668,
            "durationTicks": 49,
            "midi": 77,
            "name": "F5",
            "ticks": 6822,
            "time": 45.480000000000004,
            "velocity": 0.9448818897637795
          },
          {
            "duration": 0.1666666666666714,
            "durationTicks": 25,
            "midi": 65,
            "name": "F4",
            "ticks": 6872,
            "time": 45.81333333333333,
            "velocity": 0.9448818897637795
          },
          {
            "duration": 0.1599999999999966,
            "durationTicks": 24,
            "midi": 65,
            "name": "F4",
            "ticks": 6897,
            "time": 45.980000000000004,
            "velocity": 0.9448818897637795
          },
          {
            "duration": 0.3333333333333357,
            "durationTicks": 50,
            "midi": 65,
            "name": "F4",
            "ticks": 6922,
            "time": 46.14666666666667,
            "velocity": 0.9448818897637795
          },
          {
            "duration": 0.1599999999999966,
            "durationTicks": 24,
            "midi": 65,
            "name": "F4",
            "ticks": 6972,
            "time": 46.480000000000004,
            "velocity": 0.9448818897637795
          },
          {
            "duration": 0.1666666666666643,
            "durationTicks": 25,
            "midi": 65,
            "name": "F4",
            "ticks": 6997,
            "time": 46.64666666666667,
            "velocity": 0.9448818897637795
          },
          {
            "duration": 0.3333333333333357,
            "durationTicks": 50,
            "midi": 65,
            "name": "F4",
            "ticks": 7022,
            "time": 46.81333333333333,
            "velocity": 0.9448818897637795
          },
          {
            "duration": 0.1666666666666643,
            "durationTicks": 25,
            "midi": 65,
            "name": "F4",
            "ticks": 7072,
            "time": 47.14666666666667,
            "velocity": 0.9448818897637795
          },
          {
            "duration": 0.1666666666666714,
            "durationTicks": 25,
            "midi": 65,
            "name": "F4",
            "ticks": 7097,
            "time": 47.31333333333333,
            "velocity": 0.9448818897637795
          },
          {
            "duration": 0.326666666666668,
            "durationTicks": 49,
            "midi": 65,
            "name": "F4",
            "ticks": 7122,
            "time": 47.480000000000004,
            "velocity": 0.9448818897637795
          },
          {
            "duration": 0.3333333333333357,
            "durationTicks": 50,
            "midi": 65,
            "name": "F4",
            "ticks": 7172,
            "time": 47.81333333333333,
            "velocity": 0.9448818897637795
          },
          {
            "duration": 0.6666666666666643,
            "durationTicks": 100,
            "midi": 62,
            "name": "D4",
            "ticks": 7222,
            "time": 48.14666666666667,
            "velocity": 0.9448818897637795
          },
          {
            "duration": 0.21333333333333826,
            "durationTicks": 32,
            "midi": 62,
            "name": "D4",
            "ticks": 7322,
            "time": 48.81333333333333,
            "velocity": 0.9448818897637795
          },
          {
            "duration": 0.20666666666667055,
            "durationTicks": 31,
            "midi": 62,
            "name": "D4",
            "ticks": 7355,
            "time": 49.03333333333333,
            "velocity": 0.9448818897637795
          },
          {
            "duration": 0.23333333333333428,
            "durationTicks": 35,
            "midi": 60,
            "name": "C4",
            "ticks": 7387,
            "time": 49.24666666666667,
            "velocity": 0.9448818897637795
          },
          {
            "duration": 0.5,
            "durationTicks": 75,
            "midi": 62,
            "name": "D4",
            "ticks": 7422,
            "time": 49.480000000000004,
            "velocity": 0.9448818897637795
          },
          {
            "duration": 0.1599999999999966,
            "durationTicks": 24,
            "midi": 62,
            "name": "D4",
            "ticks": 7497,
            "time": 49.980000000000004,
            "velocity": 0.9448818897637795
          },
          {
            "duration": 0.1666666666666643,
            "durationTicks": 25,
            "midi": 62,
            "name": "D4",
            "ticks": 7522,
            "time": 50.14666666666667,
            "velocity": 0.9448818897637795
          },
          {
            "duration": 0.1666666666666714,
            "durationTicks": 25,
            "midi": 63,
            "name": "D#4",
            "ticks": 7547,
            "time": 50.31333333333333,
            "velocity": 0.9448818897637795
          },
          {
            "duration": 0.1599999999999966,
            "durationTicks": 24,
            "midi": 65,
            "name": "F4",
            "ticks": 7572,
            "time": 50.480000000000004,
            "velocity": 0.9448818897637795
          },
          {
            "duration": 0.1600000000000037,
            "durationTicks": 24,
            "midi": 67,
            "name": "G4",
            "ticks": 7597,
            "time": 50.64666666666667,
            "velocity": 0.9448818897637795
          },
          {
            "duration": 0.5,
            "durationTicks": 75,
            "midi": 68,
            "name": "G#4",
            "ticks": 7622,
            "time": 50.81333333333333,
            "velocity": 0.9448818897637795
          },
          {
            "duration": 0.1666666666666643,
            "durationTicks": 25,
            "midi": 70,
            "name": "A#4",
            "ticks": 7697,
            "time": 51.31333333333333,
            "velocity": 0.9448818897637795
          },
          {
            "duration": 0.1600000000000037,
            "durationTicks": 24,
            "midi": 70,
            "name": "A#4",
            "ticks": 7722,
            "time": 51.48,
            "velocity": 0.9448818897637795
          },
          {
            "duration": 0.1666666666666572,
            "durationTicks": 25,
            "midi": 72,
            "name": "C5",
            "ticks": 7747,
            "time": 51.646666666666675,
            "velocity": 0.9448818897637795
          },
          {
            "duration": 0.1666666666666643,
            "durationTicks": 25,
            "midi": 74,
            "name": "D5",
            "ticks": 7772,
            "time": 51.81333333333333,
            "velocity": 0.9448818897637795
          },
          {
            "duration": 0.1600000000000037,
            "durationTicks": 24,
            "midi": 75,
            "name": "D#5",
            "ticks": 7797,
            "time": 51.98,
            "velocity": 0.9448818897637795
          },
          {
            "duration": 0.6666666666666572,
            "durationTicks": 100,
            "midi": 77,
            "name": "F5",
            "ticks": 7822,
            "time": 52.146666666666675,
            "velocity": 0.9448818897637795
          },
          {
            "duration": 0.22000000000000597,
            "durationTicks": 33,
            "midi": 68,
            "name": "G#4",
            "ticks": 7922,
            "time": 52.81333333333333,
            "velocity": 0.9448818897637795
          },
          {
            "duration": 0.20666666666666345,
            "durationTicks": 31,
            "midi": 70,
            "name": "A#4",
            "ticks": 7955,
            "time": 53.03333333333334,
            "velocity": 0.9448818897637795
          },
          {
            "duration": 0.23333333333332718,
            "durationTicks": 35,
            "midi": 72,
            "name": "C5",
            "ticks": 7987,
            "time": 53.24666666666667,
            "velocity": 0.9448818897637795
          },
          {
            "duration": 2,
            "durationTicks": 300,
            "midi": 82,
            "name": "A#5",
            "ticks": 8022,
            "time": 53.48,
            "velocity": 0.9448818897637795
          },
          {
            "duration": 0.6600000000000037,
            "durationTicks": 99,
            "midi": 85,
            "name": "C#6",
            "ticks": 8322,
            "time": 55.48,
            "velocity": 0.9448818897637795
          },
          {
            "duration": 0.6666666666666572,
            "durationTicks": 100,
            "midi": 84,
            "name": "C6",
            "ticks": 8422,
            "time": 56.146666666666675,
            "velocity": 0.9448818897637795
          },
          {
            "duration": 1.3333333333333428,
            "durationTicks": 200,
            "midi": 81,
            "name": "A5",
            "ticks": 8522,
            "time": 56.81333333333333,
            "velocity": 0.9448818897637795
          },
          {
            "duration": 0.6666666666666572,
            "durationTicks": 100,
            "midi": 77,
            "name": "F5",
            "ticks": 8722,
            "time": 58.146666666666675,
            "velocity": 0.9448818897637795
          },
          {
            "duration": 1.9933333333333394,
            "durationTicks": 299,
            "midi": 78,
            "name": "F#5",
            "ticks": 8822,
            "time": 58.81333333333333,
            "velocity": 0.9448818897637795
          },
          {
            "duration": 0.6666666666666643,
            "durationTicks": 100,
            "midi": 82,
            "name": "A#5",
            "ticks": 9122,
            "time": 60.81333333333333,
            "velocity": 0.9448818897637795
          },
          {
            "duration": 0.6600000000000037,
            "durationTicks": 99,
            "midi": 81,
            "name": "A5",
            "ticks": 9222,
            "time": 61.48,
            "velocity": 0.9448818897637795
          },
          {
            "duration": 1.3333333333333215,
            "durationTicks": 200,
            "midi": 77,
            "name": "F5",
            "ticks": 9322,
            "time": 62.146666666666675,
            "velocity": 0.9448818897637795
          },
          {
            "duration": 0.6600000000000037,
            "durationTicks": 99,
            "midi": 77,
            "name": "F5",
            "ticks": 9522,
            "time": 63.48,
            "velocity": 0.9448818897637795
          },
          {
            "duration": 1.9933333333333252,
            "durationTicks": 299,
            "midi": 78,
            "name": "F#5",
            "ticks": 9622,
            "time": 64.14666666666668,
            "velocity": 0.9448818897637795
          },
          {
            "duration": 0.6666666666666572,
            "durationTicks": 100,
            "midi": 82,
            "name": "A#5",
            "ticks": 9922,
            "time": 66.14666666666668,
            "velocity": 0.9448818897637795
          },
          {
            "duration": 0.6666666666666714,
            "durationTicks": 100,
            "midi": 81,
            "name": "A5",
            "ticks": 10022,
            "time": 66.81333333333333,
            "velocity": 0.9448818897637795
          },
          {
            "duration": 1.326666666666668,
            "durationTicks": 199,
            "midi": 77,
            "name": "F5",
            "ticks": 10122,
            "time": 67.48,
            "velocity": 0.9448818897637795
          },
          {
            "duration": 0.6666666666666714,
            "durationTicks": 100,
            "midi": 74,
            "name": "D5",
            "ticks": 10322,
            "time": 68.81333333333333,
            "velocity": 0.9448818897637795
          },
          {
            "duration": 2,
            "durationTicks": 300,
            "midi": 75,
            "name": "D#5",
            "ticks": 10423,
            "time": 69.48666666666666,
            "velocity": 0.9448818897637795
          },
          {
            "duration": 0.653333333333336,
            "durationTicks": 98,
            "midi": 78,
            "name": "F#5",
            "ticks": 10723,
            "time": 71.48666666666666,
            "velocity": 0.9448818897637795
          },
          {
            "duration": 0.6666666666666572,
            "durationTicks": 100,
            "midi": 77,
            "name": "F5",
            "ticks": 10822,
            "time": 72.14666666666668,
            "velocity": 0.9448818897637795
          },
          {
            "duration": 1.3333333333333428,
            "durationTicks": 200,
            "midi": 73,
            "name": "C#5",
            "ticks": 10922,
            "time": 72.81333333333333,
            "velocity": 0.9448818897637795
          },
          {
            "duration": 0.6666666666666572,
            "durationTicks": 100,
            "midi": 70,
            "name": "A#4",
            "ticks": 11122,
            "time": 74.14666666666668,
            "velocity": 0.9448818897637795
          },
          {
            "duration": 0.3333333333333428,
            "durationTicks": 50,
            "midi": 72,
            "name": "C5",
            "ticks": 11222,
            "time": 74.81333333333333,
            "velocity": 0.9448818897637795
          },
          {
            "duration": 0.1666666666666572,
            "durationTicks": 25,
            "midi": 72,
            "name": "C5",
            "ticks": 11272,
            "time": 75.14666666666668,
            "velocity": 0.9448818897637795
          },
          {
            "duration": 0.1666666666666714,
            "durationTicks": 25,
            "midi": 74,
            "name": "D5",
            "ticks": 11297,
            "time": 75.31333333333333,
            "velocity": 0.9448818897637795
          },
          {
            "duration": 1.3200000000000074,
            "durationTicks": 198,
            "midi": 76,
            "name": "E5",
            "ticks": 11323,
            "time": 75.48666666666666,
            "velocity": 0.9448818897637795
          },
          {
            "duration": 0.6666666666666714,
            "durationTicks": 100,
            "midi": 79,
            "name": "G5",
            "ticks": 11522,
            "time": 76.81333333333333,
            "velocity": 0.9448818897637795
          },
          {
            "duration": 0.3199999999999932,
            "durationTicks": 48,
            "midi": 77,
            "name": "F5",
            "ticks": 11623,
            "time": 77.48666666666668,
            "velocity": 0.9448818897637795
          },
          {
            "duration": 0.1666666666666714,
            "durationTicks": 25,
            "midi": 65,
            "name": "F4",
            "ticks": 11672,
            "time": 77.81333333333333,
            "velocity": 0.9448818897637795
          },
          {
            "duration": 0.15333333333332178,
            "durationTicks": 23,
            "midi": 65,
            "name": "F4",
            "ticks": 11698,
            "time": 77.98666666666668,
            "velocity": 0.9448818897637795
          },
          {
            "duration": 0.3333333333333286,
            "durationTicks": 50,
            "midi": 65,
            "name": "F4",
            "ticks": 11722,
            "time": 78.14666666666668,
            "velocity": 0.9448818897637795
          },
          {
            "duration": 0.15333333333332178,
            "durationTicks": 23,
            "midi": 65,
            "name": "F4",
            "ticks": 11773,
            "time": 78.48666666666668,
            "velocity": 0.9448818897637795
          },
          {
            "duration": 0.1666666666666572,
            "durationTicks": 25,
            "midi": 65,
            "name": "F4",
            "ticks": 11797,
            "time": 78.64666666666668,
            "velocity": 0.9448818897637795
          },
          {
            "duration": 0.3333333333333428,
            "durationTicks": 50,
            "midi": 65,
            "name": "F4",
            "ticks": 11822,
            "time": 78.81333333333333,
            "velocity": 0.9448818897637795
          },
          {
            "duration": 0.1666666666666572,
            "durationTicks": 25,
            "midi": 65,
            "name": "F4",
            "ticks": 11872,
            "time": 79.14666666666668,
            "velocity": 0.9448818897637795
          },
          {
            "duration": 0.1666666666666714,
            "durationTicks": 25,
            "midi": 65,
            "name": "F4",
            "ticks": 11897,
            "time": 79.31333333333333,
            "velocity": 0.9448818897637795
          },
          {
            "duration": 0.3199999999999932,
            "durationTicks": 48,
            "midi": 65,
            "name": "F4",
            "ticks": 11923,
            "time": 79.48666666666668,
            "velocity": 0.9448818897637795
          },
          {
            "duration": 0.480000000000004,
            "durationTicks": 72,
            "midi": 65,
            "name": "F4",
            "ticks": 11972,
            "time": 79.81333333333333,
            "velocity": 0.9448818897637795
          }
        ],
        "endOfTrackTicks": 12044
      },
      {
        "channel": 1,
        "controlChanges": {
          "7": [
            {
              "number": 7,
              "ticks": 0,
              "time": 0,
              "value": 0.7874015748031497
            }
          ],
          "64": [
            {
              "number": 64,
              "ticks": 12035,
              "time": 80.23333333333335,
              "value": 0
            }
          ],
          "120": [
            {
              "number": 120,
              "ticks": 12035,
              "time": 80.23333333333335,
              "value": 0
            }
          ],
          "121": [
            {
              "number": 121,
              "ticks": 12035,
              "time": 80.23333333333335,
              "value": 0
            }
          ],
          "123": [
            {
              "number": 123,
              "ticks": 12035,
              "time": 80.23333333333335,
              "value": 0
            }
          ],
          "124": [
            {
              "number": 124,
              "ticks": 12035,
              "time": 80.23333333333335,
              "value": 0
            }
          ]
        },
        "pitchBends": [],
        "instrument": {
          "family": "reed",
          "number": 68,
          "name": "oboe"
        },
        "name": "Music composed by ???",
        "notes": [
          {
            "duration": 2.666666666666666,
            "durationTicks": 400,
            "midi": 49,
            "name": "C#3",
            "ticks": 1617,
            "time": 10.780000000000001,
            "velocity": 0.9448818897637795
          },
          {
            "duration": 2.713333333333333,
            "durationTicks": 407,
            "midi": 49,
            "name": "C#3",
            "ticks": 2017,
            "time": 13.446666666666667,
            "velocity": 0.9448818897637795
          },
          {
            "duration": 0.6666666666666679,
            "durationTicks": 100,
            "midi": 70,
            "name": "A#4",
            "ticks": 2425,
            "time": 16.166666666666668,
            "velocity": 0.9448818897637795
          },
          {
            "duration": 0.9933333333333323,
            "durationTicks": 149,
            "midi": 65,
            "name": "F4",
            "ticks": 2525,
            "time": 16.833333333333336,
            "velocity": 0.9448818897637795
          },
          {
            "duration": 0.32666666666666444,
            "durationTicks": 49,
            "midi": 70,
            "name": "A#4",
            "ticks": 2675,
            "time": 17.833333333333336,
            "velocity": 0.9448818897637795
          },
          {
            "duration": 0.16666666666666785,
            "durationTicks": 25,
            "midi": 70,
            "name": "A#4",
            "ticks": 2725,
            "time": 18.166666666666668,
            "velocity": 0.9448818897637795
          },
          {
            "duration": 0.1666666666666643,
            "durationTicks": 25,
            "midi": 72,
            "name": "C5",
            "ticks": 2750,
            "time": 18.333333333333336,
            "velocity": 0.9448818897637795
          },
          {
            "duration": 0.16000000000000014,
            "durationTicks": 24,
            "midi": 74,
            "name": "D5",
            "ticks": 2775,
            "time": 18.5,
            "velocity": 0.9448818897637795
          },
          {
            "duration": 0.16000000000000014,
            "durationTicks": 24,
            "midi": 75,
            "name": "D#5",
            "ticks": 2800,
            "time": 18.666666666666668,
            "velocity": 0.9448818897637795
          },
          {
            "duration": 2.6666666666666643,
            "durationTicks": 400,
            "midi": 77,
            "name": "F5",
            "ticks": 2825,
            "time": 18.833333333333336,
            "velocity": 0.9448818897637795
          },
          {
            "duration": 0.6600000000000001,
            "durationTicks": 99,
            "midi": 70,
            "name": "A#4",
            "ticks": 3225,
            "time": 21.5,
            "velocity": 0.9448818897637795
          },
          {
            "duration": 1,
            "durationTicks": 150,
            "midi": 65,
            "name": "F4",
            "ticks": 3325,
            "time": 22.166666666666668,
            "velocity": 0.9448818897637795
          },
          {
            "duration": 0.33333333333333215,
            "durationTicks": 50,
            "midi": 70,
            "name": "A#4",
            "ticks": 3475,
            "time": 23.166666666666668,
            "velocity": 0.9448818897637795
          },
          {
            "duration": 0.16666666666666785,
            "durationTicks": 25,
            "midi": 70,
            "name": "A#4",
            "ticks": 3525,
            "time": 23.5,
            "velocity": 0.9448818897637795
          },
          {
            "duration": 0.16000000000000014,
            "durationTicks": 24,
            "midi": 72,
            "name": "C5",
            "ticks": 3550,
            "time": 23.666666666666668,
            "velocity": 0.9448818897637795
          },
          {
            "duration": 0.1666666666666643,
            "durationTicks": 25,
            "midi": 74,
            "name": "D5",
            "ticks": 3575,
            "time": 23.833333333333336,
            "velocity": 0.9448818897637795
          },
          {
            "duration": 0.16000000000000014,
            "durationTicks": 24,
            "midi": 75,
            "name": "D#5",
            "ticks": 3600,
            "time": 24,
            "velocity": 0.9448818897637795
          },
          {
            "duration": 2.6666666666666643,
            "durationTicks": 400,
            "midi": 77,
            "name": "F5",
            "ticks": 3625,
            "time": 24.166666666666668,
            "velocity": 0.9448818897637795
          },
          {
            "duration": 0.6666666666666679,
            "durationTicks": 100,
            "midi": 70,
            "name": "A#4",
            "ticks": 4025,
            "time": 26.833333333333332,
            "velocity": 0.9448818897637795
          },
          {
            "duration": 1,
            "durationTicks": 150,
            "midi": 65,
            "name": "F4",
            "ticks": 4125,
            "time": 27.5,
            "velocity": 0.9448818897637795
          },
          {
            "duration": 0.326666666666668,
            "durationTicks": 49,
            "midi": 70,
            "name": "A#4",
            "ticks": 4275,
            "time": 28.5,
            "velocity": 0.9448818897637795
          },
          {
            "duration": 0.16666666666666785,
            "durationTicks": 25,
            "midi": 70,
            "name": "A#4",
            "ticks": 4325,
            "time": 28.833333333333332,
            "velocity": 0.9448818897637795
          },
          {
            "duration": 0.1600000000000037,
            "durationTicks": 24,
            "midi": 72,
            "name": "C5",
            "ticks": 4350,
            "time": 29,
            "velocity": 0.9448818897637795
          },
          {
            "duration": 0.16666666666666075,
            "durationTicks": 25,
            "midi": 74,
            "name": "D5",
            "ticks": 4375,
            "time": 29.16666666666667,
            "velocity": 0.9448818897637795
          },
          {
            "duration": 0.16666666666666785,
            "durationTicks": 25,
            "midi": 75,
            "name": "D#5",
            "ticks": 4400,
            "time": 29.333333333333332,
            "velocity": 0.9448818897637795
          },
          {
            "duration": 1.6600000000000037,
            "durationTicks": 249,
            "midi": 77,
            "name": "F5",
            "ticks": 4425,
            "time": 29.5,
            "velocity": 0.9448818897637795
          },
          {
            "duration": 0.3333333333333286,
            "durationTicks": 50,
            "midi": 77,
            "name": "F5",
            "ticks": 4675,
            "time": 31.16666666666667,
            "velocity": 0.9448818897637795
          },
          {
            "duration": 0.206666666666667,
            "durationTicks": 31,
            "midi": 77,
            "name": "F5",
            "ticks": 4725,
            "time": 31.5,
            "velocity": 0.9448818897637795
          },
          {
            "duration": 0.21333333333333115,
            "durationTicks": 32,
            "midi": 78,
            "name": "F#5",
            "ticks": 4757,
            "time": 31.713333333333335,
            "velocity": 0.9448818897637795
          },
          {
            "duration": 0.23333333333333783,
            "durationTicks": 35,
            "midi": 80,
            "name": "G#5",
            "ticks": 4790,
            "time": 31.933333333333334,
            "velocity": 0.9448818897637795
          },
          {
            "duration": 1.7666666666666586,
            "durationTicks": 265,
            "midi": 82,
            "name": "A#5",
            "ticks": 4825,
            "time": 32.16666666666667,
            "velocity": 0.9448818897637795
          },
          {
            "duration": 0.20666666666667055,
            "durationTicks": 31,
            "midi": 82,
            "name": "A#5",
            "ticks": 5090,
            "time": 33.93333333333333,
            "velocity": 0.9448818897637795
          },
          {
            "duration": 0.21333333333333826,
            "durationTicks": 32,
            "midi": 82,
            "name": "A#5",
            "ticks": 5122,
            "time": 34.14666666666667,
            "velocity": 0.9448818897637795
          },
          {
            "duration": 0.23333333333333428,
            "durationTicks": 35,
            "midi": 80,
            "name": "G#5",
            "ticks": 5155,
            "time": 34.36666666666667,
            "velocity": 0.9448818897637795
          },
          {
            "duration": 0.22666666666666657,
            "durationTicks": 34,
            "midi": 78,
            "name": "F#5",
            "ticks": 5190,
            "time": 34.6,
            "velocity": 0.9448818897637795
          },
          {
            "duration": 0.4399999999999977,
            "durationTicks": 66,
            "midi": 80,
            "name": "G#5",
            "ticks": 5225,
            "time": 34.833333333333336,
            "velocity": 0.9448818897637795
          },
          {
            "duration": 0.21333333333333115,
            "durationTicks": 32,
            "midi": 78,
            "name": "F#5",
            "ticks": 5292,
            "time": 35.28,
            "velocity": 0.9448818897637795
          },
          {
            "duration": 1.326666666666668,
            "durationTicks": 199,
            "midi": 77,
            "name": "F5",
            "ticks": 5325,
            "time": 35.5,
            "velocity": 0.9448818897637795
          },
          {
            "duration": 0.6666666666666643,
            "durationTicks": 100,
            "midi": 77,
            "name": "F5",
            "ticks": 5525,
            "time": 36.833333333333336,
            "velocity": 0.9448818897637795
          },
          {
            "duration": 0.326666666666668,
            "durationTicks": 49,
            "midi": 75,
            "name": "D#5",
            "ticks": 5625,
            "time": 37.5,
            "velocity": 0.9448818897637795
          },
          {
            "duration": 0.1666666666666643,
            "durationTicks": 25,
            "midi": 75,
            "name": "D#5",
            "ticks": 5675,
            "time": 37.833333333333336,
            "velocity": 0.9448818897637795
          },
          {
            "duration": 0.1600000000000037,
            "durationTicks": 24,
            "midi": 77,
            "name": "F5",
            "ticks": 5700,
            "time": 38,
            "velocity": 0.9448818897637795
          },
          {
            "duration": 1.3333333333333286,
            "durationTicks": 200,
            "midi": 78,
            "name": "F#5",
            "ticks": 5725,
            "time": 38.16666666666667,
            "velocity": 0.9448818897637795
          },
          {
            "duration": 0.326666666666668,
            "durationTicks": 49,
            "midi": 77,
            "name": "F5",
            "ticks": 5925,
            "time": 39.5,
            "velocity": 0.9448818897637795
          },
          {
            "duration": 0.3333333333333357,
            "durationTicks": 50,
            "midi": 75,
            "name": "D#5",
            "ticks": 5975,
            "time": 39.833333333333336,
            "velocity": 0.9448818897637795
          },
          {
            "duration": 0.3333333333333286,
            "durationTicks": 50,
            "midi": 73,
            "name": "C#5",
            "ticks": 6025,
            "time": 40.16666666666667,
            "velocity": 0.9448818897637795
          },
          {
            "duration": 0.1600000000000037,
            "durationTicks": 24,
            "midi": 73,
            "name": "C#5",
            "ticks": 6075,
            "time": 40.5,
            "velocity": 0.9448818897637795
          },
          {
            "duration": 0.1666666666666643,
            "durationTicks": 25,
            "midi": 75,
            "name": "D#5",
            "ticks": 6100,
            "time": 40.66666666666667,
            "velocity": 0.9448818897637795
          },
          {
            "duration": 1.3333333333333357,
            "durationTicks": 200,
            "midi": 77,
            "name": "F5",
            "ticks": 6125,
            "time": 40.833333333333336,
            "velocity": 0.9448818897637795
          },
          {
            "duration": 0.3333333333333286,
            "durationTicks": 50,
            "midi": 75,
            "name": "D#5",
            "ticks": 6325,
            "time": 42.16666666666667,
            "velocity": 0.9448818897637795
          },
          {
            "duration": 0.326666666666668,
            "durationTicks": 49,
            "midi": 73,
            "name": "C#5",
            "ticks": 6375,
            "time": 42.5,
            "velocity": 0.9448818897637795
          },
          {
            "duration": 0.6666666666666643,
            "durationTicks": 100,
            "midi": 64,
            "name": "E4",
            "ticks": 6425,
            "time": 42.833333333333336,
            "velocity": 0.9448818897637795
          },
          {
            "duration": 0.326666666666668,
            "durationTicks": 49,
            "midi": 64,
            "name": "E4",
            "ticks": 6525,
            "time": 43.5,
            "velocity": 0.9448818897637795
          },
          {
            "duration": 0.1666666666666643,
            "durationTicks": 25,
            "midi": 64,
            "name": "E4",
            "ticks": 6575,
            "time": 43.833333333333336,
            "velocity": 0.9448818897637795
          },
          {
            "duration": 0.1666666666666714,
            "durationTicks": 25,
            "midi": 65,
            "name": "F4",
            "ticks": 6600,
            "time": 44,
            "velocity": 0.9448818897637795
          },
          {
            "duration": 0.3333333333333286,
            "durationTicks": 50,
            "midi": 67,
            "name": "G4",
            "ticks": 6625,
            "time": 44.16666666666667,
            "velocity": 0.9448818897637795
          },
          {
            "duration": 0.1600000000000037,
            "durationTicks": 24,
            "midi": 67,
            "name": "G4",
            "ticks": 6675,
            "time": 44.5,
            "velocity": 0.9448818897637795
          },
          {
            "duration": 0.1666666666666643,
            "durationTicks": 25,
            "midi": 69,
            "name": "A4",
            "ticks": 6700,
            "time": 44.66666666666667,
            "velocity": 0.9448818897637795
          },
          {
            "duration": 0.3333333333333357,
            "durationTicks": 50,
            "midi": 70,
            "name": "A#4",
            "ticks": 6725,
            "time": 44.833333333333336,
            "velocity": 0.9448818897637795
          },
          {
            "duration": 0.3333333333333286,
            "durationTicks": 50,
            "midi": 72,
            "name": "C5",
            "ticks": 6775,
            "time": 45.16666666666667,
            "velocity": 0.9448818897637795
          },
          {
            "duration": 0.326666666666668,
            "durationTicks": 49,
            "midi": 57,
            "name": "A3",
            "ticks": 6825,
            "time": 45.5,
            "velocity": 0.9448818897637795
          },
          {
            "duration": 0.1666666666666643,
            "durationTicks": 25,
            "midi": 57,
            "name": "A3",
            "ticks": 6875,
            "time": 45.833333333333336,
            "velocity": 0.9448818897637795
          },
          {
            "duration": 0.1666666666666714,
            "durationTicks": 25,
            "midi": 57,
            "name": "A3",
            "ticks": 6900,
            "time": 46,
            "velocity": 0.9448818897637795
          },
          {
            "duration": 0.3333333333333286,
            "durationTicks": 50,
            "midi": 56,
            "name": "G#3",
            "ticks": 6925,
            "time": 46.16666666666667,
            "velocity": 0.9448818897637795
          },
          {
            "duration": 0.1600000000000037,
            "durationTicks": 24,
            "midi": 56,
            "name": "G#3",
            "ticks": 6975,
            "time": 46.5,
            "velocity": 0.9448818897637795
          },
          {
            "duration": 0.1666666666666643,
            "durationTicks": 25,
            "midi": 56,
            "name": "G#3",
            "ticks": 7000,
            "time": 46.66666666666667,
            "velocity": 0.9448818897637795
          },
          {
            "duration": 0.3333333333333357,
            "durationTicks": 50,
            "midi": 55,
            "name": "G3",
            "ticks": 7025,
            "time": 46.833333333333336,
            "velocity": 0.9448818897637795
          },
          {
            "duration": 0.1599999999999966,
            "durationTicks": 24,
            "midi": 55,
            "name": "G3",
            "ticks": 7075,
            "time": 47.16666666666667,
            "velocity": 0.9448818897637795
          },
          {
            "duration": 0.1666666666666643,
            "durationTicks": 25,
            "midi": 55,
            "name": "G3",
            "ticks": 7100,
            "time": 47.333333333333336,
            "velocity": 0.9448818897637795
          },
          {
            "duration": 0.326666666666668,
            "durationTicks": 49,
            "midi": 54,
            "name": "F#3",
            "ticks": 7125,
            "time": 47.5,
            "velocity": 0.9448818897637795
          },
          {
            "duration": 0.3333333333333357,
            "durationTicks": 50,
            "midi": 54,
            "name": "F#3",
            "ticks": 7175,
            "time": 47.833333333333336,
            "velocity": 0.9448818897637795
          },
          {
            "duration": 0.6666666666666643,
            "durationTicks": 100,
            "midi": 70,
            "name": "A#4",
            "ticks": 7225,
            "time": 48.16666666666667,
            "velocity": 0.9448818897637795
          },
          {
            "duration": 1,
            "durationTicks": 150,
            "midi": 65,
            "name": "F4",
            "ticks": 7325,
            "time": 48.833333333333336,
            "velocity": 0.9448818897637795
          },
          {
            "duration": 0.3333333333333357,
            "durationTicks": 50,
            "midi": 70,
            "name": "A#4",
            "ticks": 7475,
            "time": 49.833333333333336,
            "velocity": 0.9448818897637795
          },
          {
            "duration": 0.1666666666666643,
            "durationTicks": 25,
            "midi": 70,
            "name": "A#4",
            "ticks": 7525,
            "time": 50.16666666666667,
            "velocity": 0.9448818897637795
          },
          {
            "duration": 0.1666666666666643,
            "durationTicks": 25,
            "midi": 72,
            "name": "C5",
            "ticks": 7550,
            "time": 50.333333333333336,
            "velocity": 0.9448818897637795
          },
          {
            "duration": 0.1600000000000037,
            "durationTicks": 24,
            "midi": 74,
            "name": "D5",
            "ticks": 7575,
            "time": 50.5,
            "velocity": 0.9448818897637795
          },
          {
            "duration": 0.1666666666666643,
            "durationTicks": 25,
            "midi": 75,
            "name": "D#5",
            "ticks": 7600,
            "time": 50.66666666666667,
            "velocity": 0.9448818897637795
          },
          {
            "duration": 1.6666666666666643,
            "durationTicks": 250,
            "midi": 77,
            "name": "F5",
            "ticks": 7625,
            "time": 50.833333333333336,
            "velocity": 0.9448818897637795
          },
          {
            "duration": 0.326666666666668,
            "durationTicks": 49,
            "midi": 77,
            "name": "F5",
            "ticks": 7875,
            "time": 52.5,
            "velocity": 0.9448818897637795
          },
          {
            "duration": 0.20666666666665634,
            "durationTicks": 31,
            "midi": 77,
            "name": "F5",
            "ticks": 7925,
            "time": 52.83333333333334,
            "velocity": 0.9448818897637795
          },
          {
            "duration": 0.20666666666667055,
            "durationTicks": 31,
            "midi": 78,
            "name": "F#5",
            "ticks": 7958,
            "time": 53.053333333333335,
            "velocity": 0.9448818897637795
          },
          {
            "duration": 0.23333333333333428,
            "durationTicks": 35,
            "midi": 80,
            "name": "G#5",
            "ticks": 7990,
            "time": 53.266666666666666,
            "velocity": 0.9448818897637795
          },
          {
            "duration": 2,
            "durationTicks": 300,
            "midi": 73,
            "name": "C#5",
            "ticks": 8025,
            "time": 53.5,
            "velocity": 0.9448818897637795
          },
          {
            "duration": 0.6600000000000037,
            "durationTicks": 99,
            "midi": 76,
            "name": "E5",
            "ticks": 8325,
            "time": 55.5,
            "velocity": 0.9448818897637795
          },
          {
            "duration": 0.6666666666666785,
            "durationTicks": 100,
            "midi": 75,
            "name": "D#5",
            "ticks": 8425,
            "time": 56.166666666666664,
            "velocity": 0.9448818897637795
          },
          {
            "duration": 1.3333333333333215,
            "durationTicks": 200,
            "midi": 72,
            "name": "C5",
            "ticks": 8525,
            "time": 56.83333333333334,
            "velocity": 0.9448818897637795
          },
          {
            "duration": 0.6666666666666785,
            "durationTicks": 100,
            "midi": 69,
            "name": "A4",
            "ticks": 8725,
            "time": 58.166666666666664,
            "velocity": 0.9448818897637795
          },
          {
            "duration": 0.20666666666665634,
            "durationTicks": 31,
            "midi": 40,
            "name": "E2",
            "ticks": 8825,
            "time": 58.83333333333334,
            "velocity": 0.9448818897637795
          },
          {
            "duration": 0.21333333333333115,
            "durationTicks": 32,
            "midi": 46,
            "name": "A#2",
            "ticks": 8857,
            "time": 59.046666666666674,
            "velocity": 0.9448818897637795
          },
          {
            "duration": 0.20666666666667055,
            "durationTicks": 31,
            "midi": 49,
            "name": "C#3",
            "ticks": 8890,
            "time": 59.266666666666666,
            "velocity": 0.9448818897637795
          },
          {
            "duration": 0.21333333333333115,
            "durationTicks": 32,
            "midi": 52,
            "name": "E3",
            "ticks": 8922,
            "time": 59.48,
            "velocity": 0.9448818897637795
          },
          {
            "duration": 0.22666666666666657,
            "durationTicks": 34,
            "midi": 58,
            "name": "A#3",
            "ticks": 8955,
            "time": 59.7,
            "velocity": 0.9448818897637795
          },
          {
            "duration": 0.23333333333332718,
            "durationTicks": 35,
            "midi": 61,
            "name": "C#4",
            "ticks": 8990,
            "time": 59.93333333333334,
            "velocity": 0.9448818897637795
          },
          {
            "duration": 1.3333333333333357,
            "durationTicks": 200,
            "midi": 64,
            "name": "E4",
            "ticks": 9025,
            "time": 60.166666666666664,
            "velocity": 0.9448818897637795
          },
          {
            "duration": 0.6600000000000037,
            "durationTicks": 99,
            "midi": 65,
            "name": "F4",
            "ticks": 9225,
            "time": 61.5,
            "velocity": 0.9448818897637795
          },
          {
            "duration": 0.20666666666667055,
            "durationTicks": 31,
            "midi": 53,
            "name": "F3",
            "ticks": 9325,
            "time": 62.166666666666664,
            "velocity": 0.9448818897637795
          },
          {
            "duration": 0.21333333333333826,
            "durationTicks": 32,
            "midi": 53,
            "name": "F3",
            "ticks": 9357,
            "time": 62.379999999999995,
            "velocity": 0.9448818897637795
          },
          {
            "duration": 0.22666666666666657,
            "durationTicks": 34,
            "midi": 53,
            "name": "F3",
            "ticks": 9390,
            "time": 62.6,
            "velocity": 0.9448818897637795
          },
          {
            "duration": 1.326666666666668,
            "durationTicks": 199,
            "midi": 53,
            "name": "F3",
            "ticks": 9425,
            "time": 62.83333333333334,
            "velocity": 0.9448818897637795
          },
          {
            "duration": 0.20666666666666345,
            "durationTicks": 31,
            "midi": 40,
            "name": "E2",
            "ticks": 9625,
            "time": 64.16666666666667,
            "velocity": 0.9448818897637795
          },
          {
            "duration": 0.21333333333333826,
            "durationTicks": 32,
            "midi": 46,
            "name": "A#2",
            "ticks": 9657,
            "time": 64.38,
            "velocity": 0.9448818897637795
          },
          {
            "duration": 0.20666666666666345,
            "durationTicks": 31,
            "midi": 49,
            "name": "C#3",
            "ticks": 9690,
            "time": 64.60000000000001,
            "velocity": 0.9448818897637795
          },
          {
            "duration": 0.21333333333333826,
            "durationTicks": 32,
            "midi": 52,
            "name": "E3",
            "ticks": 9722,
            "time": 64.81333333333333,
            "velocity": 0.9448818897637795
          },
          {
            "duration": 0.22666666666665947,
            "durationTicks": 34,
            "midi": 58,
            "name": "A#3",
            "ticks": 9755,
            "time": 65.03333333333335,
            "velocity": 0.9448818897637795
          },
          {
            "duration": 0.23333333333333428,
            "durationTicks": 35,
            "midi": 61,
            "name": "C#4",
            "ticks": 9790,
            "time": 65.26666666666667,
            "velocity": 0.9448818897637795
          },
          {
            "duration": 1.326666666666668,
            "durationTicks": 199,
            "midi": 64,
            "name": "E4",
            "ticks": 9825,
            "time": 65.5,
            "velocity": 0.9448818897637795
          },
          {
            "duration": 0.6666666666666572,
            "durationTicks": 100,
            "midi": 65,
            "name": "F4",
            "ticks": 10025,
            "time": 66.83333333333334,
            "velocity": 0.9448818897637795
          },
          {
            "duration": 0.20666666666667766,
            "durationTicks": 31,
            "midi": 53,
            "name": "F3",
            "ticks": 10125,
            "time": 67.5,
            "velocity": 0.9448818897637795
          },
          {
            "duration": 0.21333333333332405,
            "durationTicks": 32,
            "midi": 53,
            "name": "F3",
            "ticks": 10157,
            "time": 67.71333333333334,
            "velocity": 0.9448818897637795
          },
          {
            "duration": 0.23333333333333428,
            "durationTicks": 35,
            "midi": 53,
            "name": "F3",
            "ticks": 10190,
            "time": 67.93333333333334,
            "velocity": 0.9448818897637795
          },
          {
            "duration": 1.3333333333333286,
            "durationTicks": 200,
            "midi": 53,
            "name": "F3",
            "ticks": 10225,
            "time": 68.16666666666667,
            "velocity": 0.9448818897637795
          },
          {
            "duration": 1.9933333333333252,
            "durationTicks": 299,
            "midi": 66,
            "name": "F#4",
            "ticks": 10425,
            "time": 69.5,
            "velocity": 0.9448818897637795
          },
          {
            "duration": 0.6600000000000108,
            "durationTicks": 99,
            "midi": 71,
            "name": "B4",
            "ticks": 10725,
            "time": 71.5,
            "velocity": 0.9448818897637795
          },
          {
            "duration": 0.6666666666666714,
            "durationTicks": 100,
            "midi": 70,
            "name": "A#4",
            "ticks": 10825,
            "time": 72.16666666666667,
            "velocity": 0.9448818897637795
          },
          {
            "duration": 1.3333333333333286,
            "durationTicks": 200,
            "midi": 65,
            "name": "F4",
            "ticks": 10925,
            "time": 72.83333333333334,
            "velocity": 0.9448818897637795
          },
          {
            "duration": 0.6666666666666714,
            "durationTicks": 100,
            "midi": 61,
            "name": "C#4",
            "ticks": 11125,
            "time": 74.16666666666667,
            "velocity": 0.9448818897637795
          },
          {
            "duration": 0.6666666666666572,
            "durationTicks": 100,
            "midi": 64,
            "name": "E4",
            "ticks": 11225,
            "time": 74.83333333333334,
            "velocity": 0.9448818897637795
          },
          {
            "duration": 0.326666666666668,
            "durationTicks": 49,
            "midi": 64,
            "name": "E4",
            "ticks": 11325,
            "time": 75.5,
            "velocity": 0.9448818897637795
          },
          {
            "duration": 0.1666666666666572,
            "durationTicks": 25,
            "midi": 64,
            "name": "E4",
            "ticks": 11375,
            "time": 75.83333333333334,
            "velocity": 0.9448818897637795
          },
          {
            "duration": 0.1600000000000108,
            "durationTicks": 24,
            "midi": 65,
            "name": "F4",
            "ticks": 11400,
            "time": 76,
            "velocity": 0.9448818897637795
          },
          {
            "duration": 0.3333333333333286,
            "durationTicks": 50,
            "midi": 67,
            "name": "G4",
            "ticks": 11425,
            "time": 76.16666666666667,
            "velocity": 0.9448818897637795
          },
          {
            "duration": 0.1600000000000108,
            "durationTicks": 24,
            "midi": 67,
            "name": "G4",
            "ticks": 11475,
            "time": 76.5,
            "velocity": 0.9448818897637795
          },
          {
            "duration": 0.1666666666666714,
            "durationTicks": 25,
            "midi": 69,
            "name": "A4",
            "ticks": 11500,
            "time": 76.66666666666667,
            "velocity": 0.9448818897637795
          },
          {
            "duration": 0.3333333333333286,
            "durationTicks": 50,
            "midi": 70,
            "name": "A#4",
            "ticks": 11525,
            "time": 76.83333333333334,
            "velocity": 0.9448818897637795
          },
          {
            "duration": 0.3333333333333286,
            "durationTicks": 50,
            "midi": 72,
            "name": "C5",
            "ticks": 11575,
            "time": 77.16666666666667,
            "velocity": 0.9448818897637795
          },
          {
            "duration": 0.326666666666668,
            "durationTicks": 49,
            "midi": 57,
            "name": "A3",
            "ticks": 11625,
            "time": 77.5,
            "velocity": 0.9448818897637795
          },
          {
            "duration": 0.1666666666666572,
            "durationTicks": 25,
            "midi": 57,
            "name": "A3",
            "ticks": 11675,
            "time": 77.83333333333334,
            "velocity": 0.9448818897637795
          },
          {
            "duration": 0.1600000000000108,
            "durationTicks": 24,
            "midi": 57,
            "name": "A3",
            "ticks": 11700,
            "time": 78,
            "velocity": 0.9448818897637795
          },
          {
            "duration": 0.3333333333333286,
            "durationTicks": 50,
            "midi": 56,
            "name": "G#3",
            "ticks": 11725,
            "time": 78.16666666666667,
            "velocity": 0.9448818897637795
          },
          {
            "duration": 0.1600000000000108,
            "durationTicks": 24,
            "midi": 56,
            "name": "G#3",
            "ticks": 11775,
            "time": 78.5,
            "velocity": 0.9448818897637795
          },
          {
            "duration": 0.1666666666666714,
            "durationTicks": 25,
            "midi": 56,
            "name": "G#3",
            "ticks": 11800,
            "time": 78.66666666666667,
            "velocity": 0.9448818897637795
          },
          {
            "duration": 0.3333333333333286,
            "durationTicks": 50,
            "midi": 55,
            "name": "G3",
            "ticks": 11825,
            "time": 78.83333333333334,
            "velocity": 0.9448818897637795
          },
          {
            "duration": 0.1666666666666714,
            "durationTicks": 25,
            "midi": 55,
            "name": "G3",
            "ticks": 11875,
            "time": 79.16666666666667,
            "velocity": 0.9448818897637795
          },
          {
            "duration": 0.1666666666666572,
            "durationTicks": 25,
            "midi": 55,
            "name": "G3",
            "ticks": 11900,
            "time": 79.33333333333334,
            "velocity": 0.9448818897637795
          },
          {
            "duration": 0.326666666666668,
            "durationTicks": 49,
            "midi": 54,
            "name": "F#3",
            "ticks": 11925,
            "time": 79.5,
            "velocity": 0.9448818897637795
          },
          {
            "duration": 0.36666666666666003,
            "durationTicks": 55,
            "midi": 54,
            "name": "F#3",
            "ticks": 11975,
            "time": 79.83333333333334,
            "velocity": 0.9448818897637795
          }
        ],
        "endOfTrackTicks": 12035
      },
      {
        "channel": 2,
        "controlChanges": {
          "7": [
            {
              "number": 7,
              "ticks": 0,
              "time": 0,
              "value": 1
            }
          ],
          "64": [
            {
              "number": 64,
              "ticks": 12035,
              "time": 80.23333333333335,
              "value": 0
            }
          ],
          "120": [
            {
              "number": 120,
              "ticks": 12035,
              "time": 80.23333333333335,
              "value": 0
            }
          ],
          "121": [
            {
              "number": 121,
              "ticks": 12035,
              "time": 80.23333333333335,
              "value": 0
            }
          ],
          "123": [
            {
              "number": 123,
              "ticks": 12035,
              "time": 80.23333333333335,
              "value": 0
            }
          ],
          "124": [
            {
              "number": 124,
              "ticks": 12035,
              "time": 80.23333333333335,
              "value": 0
            }
          ]
        },
        "pitchBends": [],
        "instrument": {
          "family": "bass",
          "number": 32,
          "name": "acoustic bass"
        },
        "name": "MIDI created by John Risser",
        "notes": [
          {
            "duration": 0.6666666666666667,
            "durationTicks": 100,
            "midi": 46,
            "name": "A#2",
            "ticks": 17,
            "time": 0.11333333333333334,
            "velocity": 0.9448818897637795
          },
          {
            "duration": 0.6666666666666667,
            "durationTicks": 100,
            "midi": 53,
            "name": "F3",
            "ticks": 117,
            "time": 0.78,
            "velocity": 0.9448818897637795
          },
          {
            "duration": 1.3266666666666667,
            "durationTicks": 199,
            "midi": 58,
            "name": "A#3",
            "ticks": 217,
            "time": 1.4466666666666668,
            "velocity": 0.9448818897637795
          },
          {
            "duration": 0.666666666666667,
            "durationTicks": 100,
            "midi": 44,
            "name": "G#2",
            "ticks": 417,
            "time": 2.7800000000000002,
            "velocity": 0.9448818897637795
          },
          {
            "duration": 0.6600000000000001,
            "durationTicks": 99,
            "midi": 51,
            "name": "D#3",
            "ticks": 517,
            "time": 3.446666666666667,
            "velocity": 0.9448818897637795
          },
          {
            "duration": 1.333333333333334,
            "durationTicks": 200,
            "midi": 56,
            "name": "G#3",
            "ticks": 617,
            "time": 4.113333333333333,
            "velocity": 0.9448818897637795
          },
          {
            "duration": 0.6600000000000001,
            "durationTicks": 99,
            "midi": 42,
            "name": "F#2",
            "ticks": 817,
            "time": 5.446666666666667,
            "velocity": 0.9448818897637795
          },
          {
            "duration": 0.666666666666667,
            "durationTicks": 100,
            "midi": 49,
            "name": "C#3",
            "ticks": 917,
            "time": 6.113333333333333,
            "velocity": 0.9448818897637795
          },
          {
            "duration": 1.3333333333333348,
            "durationTicks": 200,
            "midi": 54,
            "name": "F#3",
            "ticks": 1017,
            "time": 6.78,
            "velocity": 0.9448818897637795
          },
          {
            "duration": 0.6666666666666643,
            "durationTicks": 100,
            "midi": 41,
            "name": "F2",
            "ticks": 1217,
            "time": 8.113333333333335,
            "velocity": 0.9448818897637795
          },
          {
            "duration": 0.6666666666666679,
            "durationTicks": 100,
            "midi": 48,
            "name": "C3",
            "ticks": 1317,
            "time": 8.78,
            "velocity": 0.9448818897637795
          },
          {
            "duration": 1.3266666666666662,
            "durationTicks": 199,
            "midi": 53,
            "name": "F3",
            "ticks": 1417,
            "time": 9.446666666666667,
            "velocity": 0.9448818897637795
          },
          {
            "duration": 0.3333333333333339,
            "durationTicks": 50,
            "midi": 46,
            "name": "A#2",
            "ticks": 1617,
            "time": 10.780000000000001,
            "velocity": 0.9448818897637795
          },
          {
            "duration": 0.16666666666666607,
            "durationTicks": 25,
            "midi": 46,
            "name": "A#2",
            "ticks": 1667,
            "time": 11.113333333333335,
            "velocity": 0.9448818897637795
          },
          {
            "duration": 0.16666666666666607,
            "durationTicks": 25,
            "midi": 46,
            "name": "A#2",
            "ticks": 1692,
            "time": 11.280000000000001,
            "velocity": 0.9448818897637795
          },
          {
            "duration": 0.3266666666666662,
            "durationTicks": 49,
            "midi": 46,
            "name": "A#2",
            "ticks": 1717,
            "time": 11.446666666666667,
            "velocity": 0.9448818897637795
          },
          {
            "duration": 0.16666666666666607,
            "durationTicks": 25,
            "midi": 46,
            "name": "A#2",
            "ticks": 1767,
            "time": 11.780000000000001,
            "velocity": 0.9448818897637795
          },
          {
            "duration": 0.1533333333333342,
            "durationTicks": 23,
            "midi": 46,
            "name": "A#2",
            "ticks": 1793,
            "time": 11.953333333333333,
            "velocity": 0.9448818897637795
          },
          {
            "duration": 0.33333333333333215,
            "durationTicks": 50,
            "midi": 46,
            "name": "A#2",
            "ticks": 1817,
            "time": 12.113333333333335,
            "velocity": 0.9448818897637795
          },
          {
            "duration": 0.16666666666666785,
            "durationTicks": 25,
            "midi": 46,
            "name": "A#2",
            "ticks": 1867,
            "time": 12.446666666666667,
            "velocity": 0.9448818897637795
          },
          {
            "duration": 0.15999999999999837,
            "durationTicks": 24,
            "midi": 46,
            "name": "A#2",
            "ticks": 1892,
            "time": 12.613333333333335,
            "velocity": 0.9448818897637795
          },
          {
            "duration": 0.33333333333333215,
            "durationTicks": 50,
            "midi": 46,
            "name": "A#2",
            "ticks": 1917,
            "time": 12.780000000000001,
            "velocity": 0.9448818897637795
          },
          {
            "duration": 0.16666666666666785,
            "durationTicks": 25,
            "midi": 46,
            "name": "A#2",
            "ticks": 1967,
            "time": 13.113333333333333,
            "velocity": 0.9448818897637795
          },
          {
            "duration": 0.16666666666666607,
            "durationTicks": 25,
            "midi": 46,
            "name": "A#2",
            "ticks": 1992,
            "time": 13.280000000000001,
            "velocity": 0.9448818897637795
          },
          {
            "duration": 0.3266666666666662,
            "durationTicks": 49,
            "midi": 46,
            "name": "A#2",
            "ticks": 2017,
            "time": 13.446666666666667,
            "velocity": 0.9448818897637795
          },
          {
            "duration": 0.16666666666666607,
            "durationTicks": 25,
            "midi": 46,
            "name": "A#2",
            "ticks": 2067,
            "time": 13.780000000000001,
            "velocity": 0.9448818897637795
          },
          {
            "duration": 0.16000000000000014,
            "durationTicks": 24,
            "midi": 46,
            "name": "A#2",
            "ticks": 2092,
            "time": 13.946666666666667,
            "velocity": 0.9448818897637795
          },
          {
            "duration": 0.3333333333333339,
            "durationTicks": 50,
            "midi": 46,
            "name": "A#2",
            "ticks": 2117,
            "time": 14.113333333333333,
            "velocity": 0.9448818897637795
          },
          {
            "duration": 0.16000000000000014,
            "durationTicks": 24,
            "midi": 46,
            "name": "A#2",
            "ticks": 2167,
            "time": 14.446666666666667,
            "velocity": 0.9448818897637795
          },
          {
            "duration": 0.16666666666666785,
            "durationTicks": 25,
            "midi": 46,
            "name": "A#2",
            "ticks": 2192,
            "time": 14.613333333333333,
            "velocity": 0.9448818897637795
          },
          {
            "duration": 0.33333333333333215,
            "durationTicks": 50,
            "midi": 46,
            "name": "A#2",
            "ticks": 2217,
            "time": 14.780000000000001,
            "velocity": 0.9448818897637795
          },
          {
            "duration": 0.16666666666666785,
            "durationTicks": 25,
            "midi": 46,
            "name": "A#2",
            "ticks": 2267,
            "time": 15.113333333333333,
            "velocity": 0.9448818897637795
          },
          {
            "duration": 0.16666666666666607,
            "durationTicks": 25,
            "midi": 46,
            "name": "A#2",
            "ticks": 2292,
            "time": 15.280000000000001,
            "velocity": 0.9448818897637795
          },
          {
            "duration": 0.3266666666666662,
            "durationTicks": 49,
            "midi": 46,
            "name": "A#2",
            "ticks": 2317,
            "time": 15.446666666666667,
            "velocity": 0.9448818897637795
          },
          {
            "duration": 0.21333333333333293,
            "durationTicks": 32,
            "midi": 46,
            "name": "A#2",
            "ticks": 2367,
            "time": 15.780000000000001,
            "velocity": 0.9448818897637795
          },
          {
            "duration": 0.16000000000000014,
            "durationTicks": 24,
            "midi": 46,
            "name": "A#2",
            "ticks": 2400,
            "time": 16,
            "velocity": 0.9448818897637795
          },
          {
            "duration": 0.33333333333333215,
            "durationTicks": 50,
            "midi": 46,
            "name": "A#2",
            "ticks": 2425,
            "time": 16.166666666666668,
            "velocity": 0.9448818897637795
          },
          {
            "duration": 0.16000000000000014,
            "durationTicks": 24,
            "midi": 46,
            "name": "A#2",
            "ticks": 2475,
            "time": 16.5,
            "velocity": 0.9448818897637795
          },
          {
            "duration": 0.16666666666666785,
            "durationTicks": 25,
            "midi": 46,
            "name": "A#2",
            "ticks": 2500,
            "time": 16.666666666666668,
            "velocity": 0.9448818897637795
          },
          {
            "duration": 0.33333333333333215,
            "durationTicks": 50,
            "midi": 46,
            "name": "A#2",
            "ticks": 2525,
            "time": 16.833333333333336,
            "velocity": 0.9448818897637795
          },
          {
            "duration": 0.16666666666666785,
            "durationTicks": 25,
            "midi": 46,
            "name": "A#2",
            "ticks": 2575,
            "time": 17.166666666666668,
            "velocity": 0.9448818897637795
          },
          {
            "duration": 0.1666666666666643,
            "durationTicks": 25,
            "midi": 46,
            "name": "A#2",
            "ticks": 2600,
            "time": 17.333333333333336,
            "velocity": 0.9448818897637795
          },
          {
            "duration": 0.326666666666668,
            "durationTicks": 49,
            "midi": 46,
            "name": "A#2",
            "ticks": 2625,
            "time": 17.5,
            "velocity": 0.9448818897637795
          },
          {
            "duration": 0.1666666666666643,
            "durationTicks": 25,
            "midi": 46,
            "name": "A#2",
            "ticks": 2675,
            "time": 17.833333333333336,
            "velocity": 0.9448818897637795
          },
          {
            "duration": 0.16000000000000014,
            "durationTicks": 24,
            "midi": 46,
            "name": "A#2",
            "ticks": 2700,
            "time": 18,
            "velocity": 0.9448818897637795
          },
          {
            "duration": 0.33333333333333215,
            "durationTicks": 50,
            "midi": 46,
            "name": "A#2",
            "ticks": 2725,
            "time": 18.166666666666668,
            "velocity": 0.9448818897637795
          },
          {
            "duration": 0.16666666666666785,
            "durationTicks": 25,
            "midi": 46,
            "name": "A#2",
            "ticks": 2775,
            "time": 18.5,
            "velocity": 0.9448818897637795
          },
          {
            "duration": 0.16000000000000014,
            "durationTicks": 24,
            "midi": 46,
            "name": "A#2",
            "ticks": 2800,
            "time": 18.666666666666668,
            "velocity": 0.9448818897637795
          },
          {
            "duration": 0.33333333333333215,
            "durationTicks": 50,
            "midi": 44,
            "name": "G#2",
            "ticks": 2825,
            "time": 18.833333333333336,
            "velocity": 0.9448818897637795
          },
          {
            "duration": 0.16666666666666785,
            "durationTicks": 25,
            "midi": 44,
            "name": "G#2",
            "ticks": 2875,
            "time": 19.166666666666668,
            "velocity": 0.9448818897637795
          },
          {
            "duration": 0.1666666666666643,
            "durationTicks": 25,
            "midi": 44,
            "name": "G#2",
            "ticks": 2900,
            "time": 19.333333333333336,
            "velocity": 0.9448818897637795
          },
          {
            "duration": 0.326666666666668,
            "durationTicks": 49,
            "midi": 44,
            "name": "G#2",
            "ticks": 2925,
            "time": 19.5,
            "velocity": 0.9448818897637795
          },
          {
            "duration": 0.1666666666666643,
            "durationTicks": 25,
            "midi": 44,
            "name": "G#2",
            "ticks": 2975,
            "time": 19.833333333333336,
            "velocity": 0.9448818897637795
          },
          {
            "duration": 0.16000000000000014,
            "durationTicks": 24,
            "midi": 44,
            "name": "G#2",
            "ticks": 3000,
            "time": 20,
            "velocity": 0.9448818897637795
          },
          {
            "duration": 0.33333333333333215,
            "durationTicks": 50,
            "midi": 44,
            "name": "G#2",
            "ticks": 3025,
            "time": 20.166666666666668,
            "velocity": 0.9448818897637795
          },
          {
            "duration": 0.16000000000000014,
            "durationTicks": 24,
            "midi": 44,
            "name": "G#2",
            "ticks": 3075,
            "time": 20.5,
            "velocity": 0.9448818897637795
          },
          {
            "duration": 0.16666666666666785,
            "durationTicks": 25,
            "midi": 44,
            "name": "G#2",
            "ticks": 3100,
            "time": 20.666666666666668,
            "velocity": 0.9448818897637795
          },
          {
            "duration": 0.33333333333333215,
            "durationTicks": 50,
            "midi": 44,
            "name": "G#2",
            "ticks": 3125,
            "time": 20.833333333333336,
            "velocity": 0.9448818897637795
          },
          {
            "duration": 0.16666666666666785,
            "durationTicks": 25,
            "midi": 44,
            "name": "G#2",
            "ticks": 3175,
            "time": 21.166666666666668,
            "velocity": 0.9448818897637795
          },
          {
            "duration": 0.1666666666666643,
            "durationTicks": 25,
            "midi": 44,
            "name": "G#2",
            "ticks": 3200,
            "time": 21.333333333333336,
            "velocity": 0.9448818897637795
          },
          {
            "duration": 0.326666666666668,
            "durationTicks": 49,
            "midi": 42,
            "name": "F#2",
            "ticks": 3225,
            "time": 21.5,
            "velocity": 0.9448818897637795
          },
          {
            "duration": 0.1666666666666643,
            "durationTicks": 25,
            "midi": 42,
            "name": "F#2",
            "ticks": 3275,
            "time": 21.833333333333336,
            "velocity": 0.9448818897637795
          },
          {
            "duration": 0.16000000000000014,
            "durationTicks": 24,
            "midi": 42,
            "name": "F#2",
            "ticks": 3300,
            "time": 22,
            "velocity": 0.9448818897637795
          },
          {
            "duration": 0.33333333333333215,
            "durationTicks": 50,
            "midi": 42,
            "name": "F#2",
            "ticks": 3325,
            "time": 22.166666666666668,
            "velocity": 0.9448818897637795
          },
          {
            "duration": 0.16000000000000014,
            "durationTicks": 24,
            "midi": 42,
            "name": "F#2",
            "ticks": 3375,
            "time": 22.5,
            "velocity": 0.9448818897637795
          },
          {
            "duration": 0.16666666666666785,
            "durationTicks": 25,
            "midi": 42,
            "name": "F#2",
            "ticks": 3400,
            "time": 22.666666666666668,
            "velocity": 0.9448818897637795
          },
          {
            "duration": 0.33333333333333215,
            "durationTicks": 50,
            "midi": 42,
            "name": "F#2",
            "ticks": 3425,
            "time": 22.833333333333336,
            "velocity": 0.9448818897637795
          },
          {
            "duration": 0.16666666666666785,
            "durationTicks": 25,
            "midi": 42,
            "name": "F#2",
            "ticks": 3475,
            "time": 23.166666666666668,
            "velocity": 0.9448818897637795
          },
          {
            "duration": 0.1666666666666643,
            "durationTicks": 25,
            "midi": 42,
            "name": "F#2",
            "ticks": 3500,
            "time": 23.333333333333336,
            "velocity": 0.9448818897637795
          },
          {
            "duration": 0.326666666666668,
            "durationTicks": 49,
            "midi": 42,
            "name": "F#2",
            "ticks": 3525,
            "time": 23.5,
            "velocity": 0.9448818897637795
          },
          {
            "duration": 0.1666666666666643,
            "durationTicks": 25,
            "midi": 42,
            "name": "F#2",
            "ticks": 3575,
            "time": 23.833333333333336,
            "velocity": 0.9448818897637795
          },
          {
            "duration": 0.16000000000000014,
            "durationTicks": 24,
            "midi": 42,
            "name": "F#2",
            "ticks": 3600,
            "time": 24,
            "velocity": 0.9448818897637795
          },
          {
            "duration": 0.33333333333333215,
            "durationTicks": 50,
            "midi": 41,
            "name": "F2",
            "ticks": 3625,
            "time": 24.166666666666668,
            "velocity": 0.9448818897637795
          },
          {
            "duration": 0.16000000000000014,
            "durationTicks": 24,
            "midi": 41,
            "name": "F2",
            "ticks": 3675,
            "time": 24.5,
            "velocity": 0.9448818897637795
          },
          {
            "duration": 0.16666666666666785,
            "durationTicks": 25,
            "midi": 41,
            "name": "F2",
            "ticks": 3700,
            "time": 24.666666666666668,
            "velocity": 0.9448818897637795
          },
          {
            "duration": 0.33333333333333215,
            "durationTicks": 50,
            "midi": 41,
            "name": "F2",
            "ticks": 3725,
            "time": 24.833333333333336,
            "velocity": 0.9448818897637795
          },
          {
            "duration": 0.16666666666666785,
            "durationTicks": 25,
            "midi": 41,
            "name": "F2",
            "ticks": 3775,
            "time": 25.166666666666668,
            "velocity": 0.9448818897637795
          },
          {
            "duration": 0.1666666666666643,
            "durationTicks": 25,
            "midi": 41,
            "name": "F2",
            "ticks": 3800,
            "time": 25.333333333333336,
            "velocity": 0.9448818897637795
          },
          {
            "duration": 0.326666666666668,
            "durationTicks": 49,
            "midi": 41,
            "name": "F2",
            "ticks": 3825,
            "time": 25.5,
            "velocity": 0.9448818897637795
          },
          {
            "duration": 0.16666666666666785,
            "durationTicks": 25,
            "midi": 41,
            "name": "F2",
            "ticks": 3875,
            "time": 25.833333333333332,
            "velocity": 0.9448818897637795
          },
          {
            "duration": 0.1600000000000037,
            "durationTicks": 24,
            "midi": 41,
            "name": "F2",
            "ticks": 3900,
            "time": 26,
            "velocity": 0.9448818897637795
          },
          {
            "duration": 0.3333333333333286,
            "durationTicks": 50,
            "midi": 41,
            "name": "F2",
            "ticks": 3925,
            "time": 26.16666666666667,
            "velocity": 0.9448818897637795
          },
          {
            "duration": 0.1600000000000037,
            "durationTicks": 24,
            "midi": 41,
            "name": "F2",
            "ticks": 3975,
            "time": 26.5,
            "velocity": 0.9448818897637795
          },
          {
            "duration": 0.16666666666666075,
            "durationTicks": 25,
            "midi": 41,
            "name": "F2",
            "ticks": 4000,
            "time": 26.66666666666667,
            "velocity": 0.9448818897637795
          },
          {
            "duration": 0.32666666666667155,
            "durationTicks": 49,
            "midi": 46,
            "name": "A#2",
            "ticks": 4025,
            "time": 26.833333333333332,
            "velocity": 0.9448818897637795
          },
          {
            "duration": 0.16666666666666075,
            "durationTicks": 25,
            "midi": 46,
            "name": "A#2",
            "ticks": 4075,
            "time": 27.16666666666667,
            "velocity": 0.9448818897637795
          },
          {
            "duration": 0.16666666666666785,
            "durationTicks": 25,
            "midi": 46,
            "name": "A#2",
            "ticks": 4100,
            "time": 27.333333333333332,
            "velocity": 0.9448818897637795
          },
          {
            "duration": 0.326666666666668,
            "durationTicks": 49,
            "midi": 46,
            "name": "A#2",
            "ticks": 4125,
            "time": 27.5,
            "velocity": 0.9448818897637795
          },
          {
            "duration": 0.16666666666666785,
            "durationTicks": 25,
            "midi": 46,
            "name": "A#2",
            "ticks": 4175,
            "time": 27.833333333333332,
            "velocity": 0.9448818897637795
          },
          {
            "duration": 0.1666666666666714,
            "durationTicks": 25,
            "midi": 46,
            "name": "A#2",
            "ticks": 4200,
            "time": 28,
            "velocity": 0.9448818897637795
          },
          {
            "duration": 0.3333333333333286,
            "durationTicks": 50,
            "midi": 46,
            "name": "A#2",
            "ticks": 4225,
            "time": 28.16666666666667,
            "velocity": 0.9448818897637795
          },
          {
            "duration": 0.1600000000000037,
            "durationTicks": 24,
            "midi": 46,
            "name": "A#2",
            "ticks": 4275,
            "time": 28.5,
            "velocity": 0.9448818897637795
          },
          {
            "duration": 0.16666666666666075,
            "durationTicks": 25,
            "midi": 46,
            "name": "A#2",
            "ticks": 4300,
            "time": 28.66666666666667,
            "velocity": 0.9448818897637795
          },
          {
            "duration": 0.33333333333333925,
            "durationTicks": 50,
            "midi": 46,
            "name": "A#2",
            "ticks": 4325,
            "time": 28.833333333333332,
            "velocity": 0.9448818897637795
          },
          {
            "duration": 0.1599999999999966,
            "durationTicks": 24,
            "midi": 46,
            "name": "A#2",
            "ticks": 4375,
            "time": 29.16666666666667,
            "velocity": 0.9448818897637795
          },
          {
            "duration": 0.16666666666666785,
            "durationTicks": 25,
            "midi": 46,
            "name": "A#2",
            "ticks": 4400,
            "time": 29.333333333333332,
            "velocity": 0.9448818897637795
          },
          {
            "duration": 0.326666666666668,
            "durationTicks": 49,
            "midi": 44,
            "name": "G#2",
            "ticks": 4425,
            "time": 29.5,
            "velocity": 0.9448818897637795
          },
          {
            "duration": 0.16666666666666785,
            "durationTicks": 25,
            "midi": 44,
            "name": "G#2",
            "ticks": 4475,
            "time": 29.833333333333332,
            "velocity": 0.9448818897637795
          },
          {
            "duration": 0.1600000000000037,
            "durationTicks": 24,
            "midi": 44,
            "name": "G#2",
            "ticks": 4500,
            "time": 30,
            "velocity": 0.9448818897637795
          },
          {
            "duration": 0.3333333333333286,
            "durationTicks": 50,
            "midi": 44,
            "name": "G#2",
            "ticks": 4525,
            "time": 30.16666666666667,
            "velocity": 0.9448818897637795
          },
          {
            "duration": 0.1600000000000037,
            "durationTicks": 24,
            "midi": 44,
            "name": "G#2",
            "ticks": 4575,
            "time": 30.5,
            "velocity": 0.9448818897637795
          },
          {
            "duration": 0.16666666666666075,
            "durationTicks": 25,
            "midi": 44,
            "name": "G#2",
            "ticks": 4600,
            "time": 30.66666666666667,
            "velocity": 0.9448818897637795
          },
          {
            "duration": 0.32666666666667155,
            "durationTicks": 49,
            "midi": 44,
            "name": "G#2",
            "ticks": 4625,
            "time": 30.833333333333332,
            "velocity": 0.9448818897637795
          },
          {
            "duration": 0.16666666666666075,
            "durationTicks": 25,
            "midi": 44,
            "name": "G#2",
            "ticks": 4675,
            "time": 31.16666666666667,
            "velocity": 0.9448818897637795
          },
          {
            "duration": 0.16666666666666785,
            "durationTicks": 25,
            "midi": 44,
            "name": "G#2",
            "ticks": 4700,
            "time": 31.333333333333332,
            "velocity": 0.9448818897637795
          },
          {
            "duration": 0.326666666666668,
            "durationTicks": 49,
            "midi": 44,
            "name": "G#2",
            "ticks": 4725,
            "time": 31.5,
            "velocity": 0.9448818897637795
          },
          {
            "duration": 0.16666666666666785,
            "durationTicks": 25,
            "midi": 44,
            "name": "G#2",
            "ticks": 4775,
            "time": 31.833333333333332,
            "velocity": 0.9448818897637795
          },
          {
            "duration": 0.1666666666666714,
            "durationTicks": 25,
            "midi": 44,
            "name": "G#2",
            "ticks": 4800,
            "time": 32,
            "velocity": 0.9448818897637795
          },
          {
            "duration": 0.3333333333333286,
            "durationTicks": 50,
            "midi": 42,
            "name": "F#2",
            "ticks": 4825,
            "time": 32.16666666666667,
            "velocity": 0.9448818897637795
          },
          {
            "duration": 0.1600000000000037,
            "durationTicks": 24,
            "midi": 42,
            "name": "F#2",
            "ticks": 4875,
            "time": 32.5,
            "velocity": 0.9448818897637795
          },
          {
            "duration": 0.1666666666666643,
            "durationTicks": 25,
            "midi": 42,
            "name": "F#2",
            "ticks": 4900,
            "time": 32.66666666666667,
            "velocity": 0.9448818897637795
          },
          {
            "duration": 0.3333333333333357,
            "durationTicks": 50,
            "midi": 42,
            "name": "F#2",
            "ticks": 4925,
            "time": 32.833333333333336,
            "velocity": 0.9448818897637795
          },
          {
            "duration": 0.1599999999999966,
            "durationTicks": 24,
            "midi": 42,
            "name": "F#2",
            "ticks": 4975,
            "time": 33.16666666666667,
            "velocity": 0.9448818897637795
          },
          {
            "duration": 0.1666666666666643,
            "durationTicks": 25,
            "midi": 42,
            "name": "F#2",
            "ticks": 5000,
            "time": 33.333333333333336,
            "velocity": 0.9448818897637795
          },
          {
            "duration": 0.326666666666668,
            "durationTicks": 49,
            "midi": 42,
            "name": "F#2",
            "ticks": 5025,
            "time": 33.5,
            "velocity": 0.9448818897637795
          },
          {
            "duration": 0.1666666666666643,
            "durationTicks": 25,
            "midi": 42,
            "name": "F#2",
            "ticks": 5075,
            "time": 33.833333333333336,
            "velocity": 0.9448818897637795
          },
          {
            "duration": 0.1600000000000037,
            "durationTicks": 24,
            "midi": 42,
            "name": "F#2",
            "ticks": 5100,
            "time": 34,
            "velocity": 0.9448818897637795
          },
          {
            "duration": 0.3333333333333286,
            "durationTicks": 50,
            "midi": 42,
            "name": "F#2",
            "ticks": 5125,
            "time": 34.16666666666667,
            "velocity": 0.9448818897637795
          },
          {
            "duration": 0.1600000000000037,
            "durationTicks": 24,
            "midi": 42,
            "name": "F#2",
            "ticks": 5175,
            "time": 34.5,
            "velocity": 0.9448818897637795
          },
          {
            "duration": 0.1666666666666643,
            "durationTicks": 25,
            "midi": 42,
            "name": "F#2",
            "ticks": 5200,
            "time": 34.66666666666667,
            "velocity": 0.9448818897637795
          },
          {
            "duration": 0.326666666666668,
            "durationTicks": 49,
            "midi": 49,
            "name": "C#3",
            "ticks": 5225,
            "time": 34.833333333333336,
            "velocity": 0.9448818897637795
          },
          {
            "duration": 0.1666666666666643,
            "durationTicks": 25,
            "midi": 49,
            "name": "C#3",
            "ticks": 5275,
            "time": 35.16666666666667,
            "velocity": 0.9448818897637795
          },
          {
            "duration": 0.1666666666666643,
            "durationTicks": 25,
            "midi": 49,
            "name": "C#3",
            "ticks": 5300,
            "time": 35.333333333333336,
            "velocity": 0.9448818897637795
          },
          {
            "duration": 0.326666666666668,
            "durationTicks": 49,
            "midi": 49,
            "name": "C#3",
            "ticks": 5325,
            "time": 35.5,
            "velocity": 0.9448818897637795
          },
          {
            "duration": 0.1666666666666643,
            "durationTicks": 25,
            "midi": 49,
            "name": "C#3",
            "ticks": 5375,
            "time": 35.833333333333336,
            "velocity": 0.9448818897637795
          },
          {
            "duration": 0.1600000000000037,
            "durationTicks": 24,
            "midi": 49,
            "name": "C#3",
            "ticks": 5400,
            "time": 36,
            "velocity": 0.9448818897637795
          },
          {
            "duration": 0.3333333333333286,
            "durationTicks": 50,
            "midi": 49,
            "name": "C#3",
            "ticks": 5425,
            "time": 36.16666666666667,
            "velocity": 0.9448818897637795
          },
          {
            "duration": 0.1600000000000037,
            "durationTicks": 24,
            "midi": 49,
            "name": "C#3",
            "ticks": 5475,
            "time": 36.5,
            "velocity": 0.9448818897637795
          },
          {
            "duration": 0.1666666666666643,
            "durationTicks": 25,
            "midi": 49,
            "name": "C#3",
            "ticks": 5500,
            "time": 36.66666666666667,
            "velocity": 0.9448818897637795
          },
          {
            "duration": 0.3333333333333357,
            "durationTicks": 50,
            "midi": 49,
            "name": "C#3",
            "ticks": 5525,
            "time": 36.833333333333336,
            "velocity": 0.9448818897637795
          },
          {
            "duration": 0.1666666666666643,
            "durationTicks": 25,
            "midi": 49,
            "name": "C#3",
            "ticks": 5575,
            "time": 37.16666666666667,
            "velocity": 0.9448818897637795
          },
          {
            "duration": 0.1666666666666643,
            "durationTicks": 25,
            "midi": 49,
            "name": "C#3",
            "ticks": 5600,
            "time": 37.333333333333336,
            "velocity": 0.9448818897637795
          },
          {
            "duration": 0.326666666666668,
            "durationTicks": 49,
            "midi": 47,
            "name": "B2",
            "ticks": 5625,
            "time": 37.5,
            "velocity": 0.9448818897637795
          },
          {
            "duration": 0.1666666666666643,
            "durationTicks": 25,
            "midi": 47,
            "name": "B2",
            "ticks": 5675,
            "time": 37.833333333333336,
            "velocity": 0.9448818897637795
          },
          {
            "duration": 0.1600000000000037,
            "durationTicks": 24,
            "midi": 47,
            "name": "B2",
            "ticks": 5700,
            "time": 38,
            "velocity": 0.9448818897637795
          },
          {
            "duration": 0.3333333333333286,
            "durationTicks": 50,
            "midi": 47,
            "name": "B2",
            "ticks": 5725,
            "time": 38.16666666666667,
            "velocity": 0.9448818897637795
          },
          {
            "duration": 0.1600000000000037,
            "durationTicks": 24,
            "midi": 47,
            "name": "B2",
            "ticks": 5775,
            "time": 38.5,
            "velocity": 0.9448818897637795
          },
          {
            "duration": 0.1666666666666643,
            "durationTicks": 25,
            "midi": 47,
            "name": "B2",
            "ticks": 5800,
            "time": 38.66666666666667,
            "velocity": 0.9448818897637795
          },
          {
            "duration": 0.3333333333333357,
            "durationTicks": 50,
            "midi": 47,
            "name": "B2",
            "ticks": 5825,
            "time": 38.833333333333336,
            "velocity": 0.9448818897637795
          },
          {
            "duration": 0.1599999999999966,
            "durationTicks": 24,
            "midi": 47,
            "name": "B2",
            "ticks": 5875,
            "time": 39.16666666666667,
            "velocity": 0.9448818897637795
          },
          {
            "duration": 0.1666666666666643,
            "durationTicks": 25,
            "midi": 47,
            "name": "B2",
            "ticks": 5900,
            "time": 39.333333333333336,
            "velocity": 0.9448818897637795
          },
          {
            "duration": 0.326666666666668,
            "durationTicks": 49,
            "midi": 47,
            "name": "B2",
            "ticks": 5925,
            "time": 39.5,
            "velocity": 0.9448818897637795
          },
          {
            "duration": 0.1666666666666643,
            "durationTicks": 25,
            "midi": 47,
            "name": "B2",
            "ticks": 5975,
            "time": 39.833333333333336,
            "velocity": 0.9448818897637795
          },
          {
            "duration": 0.1600000000000037,
            "durationTicks": 24,
            "midi": 47,
            "name": "B2",
            "ticks": 6000,
            "time": 40,
            "velocity": 0.9448818897637795
          },
          {
            "duration": 0.3333333333333286,
            "durationTicks": 50,
            "midi": 46,
            "name": "A#2",
            "ticks": 6025,
            "time": 40.16666666666667,
            "velocity": 0.9448818897637795
          },
          {
            "duration": 0.1600000000000037,
            "durationTicks": 24,
            "midi": 46,
            "name": "A#2",
            "ticks": 6075,
            "time": 40.5,
            "velocity": 0.9448818897637795
          },
          {
            "duration": 0.1666666666666643,
            "durationTicks": 25,
            "midi": 46,
            "name": "A#2",
            "ticks": 6100,
            "time": 40.66666666666667,
            "velocity": 0.9448818897637795
          },
          {
            "duration": 0.3333333333333357,
            "durationTicks": 50,
            "midi": 46,
            "name": "A#2",
            "ticks": 6125,
            "time": 40.833333333333336,
            "velocity": 0.9448818897637795
          },
          {
            "duration": 0.1666666666666643,
            "durationTicks": 25,
            "midi": 46,
            "name": "A#2",
            "ticks": 6175,
            "time": 41.16666666666667,
            "velocity": 0.9448818897637795
          },
          {
            "duration": 0.1666666666666643,
            "durationTicks": 25,
            "midi": 46,
            "name": "A#2",
            "ticks": 6200,
            "time": 41.333333333333336,
            "velocity": 0.9448818897637795
          },
          {
            "duration": 0.326666666666668,
            "durationTicks": 49,
            "midi": 46,
            "name": "A#2",
            "ticks": 6225,
            "time": 41.5,
            "velocity": 0.9448818897637795
          },
          {
            "duration": 0.1666666666666643,
            "durationTicks": 25,
            "midi": 46,
            "name": "A#2",
            "ticks": 6275,
            "time": 41.833333333333336,
            "velocity": 0.9448818897637795
          },
          {
            "duration": 0.1600000000000037,
            "durationTicks": 24,
            "midi": 46,
            "name": "A#2",
            "ticks": 6300,
            "time": 42,
            "velocity": 0.9448818897637795
          },
          {
            "duration": 0.3333333333333286,
            "durationTicks": 50,
            "midi": 46,
            "name": "A#2",
            "ticks": 6325,
            "time": 42.16666666666667,
            "velocity": 0.9448818897637795
          },
          {
            "duration": 0.1600000000000037,
            "durationTicks": 24,
            "midi": 46,
            "name": "A#2",
            "ticks": 6375,
            "time": 42.5,
            "velocity": 0.9448818897637795
          },
          {
            "duration": 0.1666666666666643,
            "durationTicks": 25,
            "midi": 46,
            "name": "A#2",
            "ticks": 6400,
            "time": 42.66666666666667,
            "velocity": 0.9448818897637795
          },
          {
            "duration": 0.326666666666668,
            "durationTicks": 49,
            "midi": 48,
            "name": "C3",
            "ticks": 6425,
            "time": 42.833333333333336,
            "velocity": 0.9448818897637795
          },
          {
            "duration": 0.1666666666666643,
            "durationTicks": 25,
            "midi": 48,
            "name": "C3",
            "ticks": 6475,
            "time": 43.16666666666667,
            "velocity": 0.9448818897637795
          },
          {
            "duration": 0.1666666666666643,
            "durationTicks": 25,
            "midi": 48,
            "name": "C3",
            "ticks": 6500,
            "time": 43.333333333333336,
            "velocity": 0.9448818897637795
          },
          {
            "duration": 0.326666666666668,
            "durationTicks": 49,
            "midi": 48,
            "name": "C3",
            "ticks": 6525,
            "time": 43.5,
            "velocity": 0.9448818897637795
          },
          {
            "duration": 0.1666666666666643,
            "durationTicks": 25,
            "midi": 48,
            "name": "C3",
            "ticks": 6575,
            "time": 43.833333333333336,
            "velocity": 0.9448818897637795
          },
          {
            "duration": 0.1600000000000037,
            "durationTicks": 24,
            "midi": 48,
            "name": "C3",
            "ticks": 6600,
            "time": 44,
            "velocity": 0.9448818897637795
          },
          {
            "duration": 0.3333333333333286,
            "durationTicks": 50,
            "midi": 48,
            "name": "C3",
            "ticks": 6625,
            "time": 44.16666666666667,
            "velocity": 0.9448818897637795
          },
          {
            "duration": 0.1600000000000037,
            "durationTicks": 24,
            "midi": 48,
            "name": "C3",
            "ticks": 6675,
            "time": 44.5,
            "velocity": 0.9448818897637795
          },
          {
            "duration": 0.1666666666666643,
            "durationTicks": 25,
            "midi": 48,
            "name": "C3",
            "ticks": 6700,
            "time": 44.66666666666667,
            "velocity": 0.9448818897637795
          },
          {
            "duration": 0.3333333333333357,
            "durationTicks": 50,
            "midi": 48,
            "name": "C3",
            "ticks": 6725,
            "time": 44.833333333333336,
            "velocity": 0.9448818897637795
          },
          {
            "duration": 0.1599999999999966,
            "durationTicks": 24,
            "midi": 48,
            "name": "C3",
            "ticks": 6775,
            "time": 45.16666666666667,
            "velocity": 0.9448818897637795
          },
          {
            "duration": 0.1666666666666643,
            "durationTicks": 25,
            "midi": 48,
            "name": "C3",
            "ticks": 6800,
            "time": 45.333333333333336,
            "velocity": 0.9448818897637795
          },
          {
            "duration": 0.326666666666668,
            "durationTicks": 49,
            "midi": 53,
            "name": "F3",
            "ticks": 6825,
            "time": 45.5,
            "velocity": 0.9448818897637795
          },
          {
            "duration": 0.1666666666666643,
            "durationTicks": 25,
            "midi": 41,
            "name": "F2",
            "ticks": 6875,
            "time": 45.833333333333336,
            "velocity": 0.9448818897637795
          },
          {
            "duration": 0.1600000000000037,
            "durationTicks": 24,
            "midi": 41,
            "name": "F2",
            "ticks": 6900,
            "time": 46,
            "velocity": 0.9448818897637795
          },
          {
            "duration": 0.3333333333333286,
            "durationTicks": 50,
            "midi": 41,
            "name": "F2",
            "ticks": 6925,
            "time": 46.16666666666667,
            "velocity": 0.9448818897637795
          },
          {
            "duration": 0.1600000000000037,
            "durationTicks": 24,
            "midi": 41,
            "name": "F2",
            "ticks": 6975,
            "time": 46.5,
            "velocity": 0.9448818897637795
          },
          {
            "duration": 0.1666666666666643,
            "durationTicks": 25,
            "midi": 41,
            "name": "F2",
            "ticks": 7000,
            "time": 46.66666666666667,
            "velocity": 0.9448818897637795
          },
          {
            "duration": 0.3333333333333357,
            "durationTicks": 50,
            "midi": 41,
            "name": "F2",
            "ticks": 7025,
            "time": 46.833333333333336,
            "velocity": 0.9448818897637795
          },
          {
            "duration": 0.1666666666666643,
            "durationTicks": 25,
            "midi": 41,
            "name": "F2",
            "ticks": 7075,
            "time": 47.16666666666667,
            "velocity": 0.9448818897637795
          },
          {
            "duration": 0.1666666666666643,
            "durationTicks": 25,
            "midi": 41,
            "name": "F2",
            "ticks": 7100,
            "time": 47.333333333333336,
            "velocity": 0.9448818897637795
          },
          {
            "duration": 0.326666666666668,
            "durationTicks": 49,
            "midi": 41,
            "name": "F2",
            "ticks": 7125,
            "time": 47.5,
            "velocity": 0.9448818897637795
          },
          {
            "duration": 0.1666666666666643,
            "durationTicks": 25,
            "midi": 43,
            "name": "G2",
            "ticks": 7175,
            "time": 47.833333333333336,
            "velocity": 0.9448818897637795
          },
          {
            "duration": 0.1600000000000037,
            "durationTicks": 24,
            "midi": 45,
            "name": "A2",
            "ticks": 7200,
            "time": 48,
            "velocity": 0.9448818897637795
          },
          {
            "duration": 0.3333333333333286,
            "durationTicks": 50,
            "midi": 46,
            "name": "A#2",
            "ticks": 7225,
            "time": 48.16666666666667,
            "velocity": 0.9448818897637795
          },
          {
            "duration": 0.1600000000000037,
            "durationTicks": 24,
            "midi": 46,
            "name": "A#2",
            "ticks": 7275,
            "time": 48.5,
            "velocity": 0.9448818897637795
          },
          {
            "duration": 0.1666666666666643,
            "durationTicks": 25,
            "midi": 46,
            "name": "A#2",
            "ticks": 7300,
            "time": 48.66666666666667,
            "velocity": 0.9448818897637795
          },
          {
            "duration": 0.3333333333333357,
            "durationTicks": 50,
            "midi": 46,
            "name": "A#2",
            "ticks": 7325,
            "time": 48.833333333333336,
            "velocity": 0.9448818897637795
          },
          {
            "duration": 0.1666666666666643,
            "durationTicks": 25,
            "midi": 46,
            "name": "A#2",
            "ticks": 7375,
            "time": 49.16666666666667,
            "velocity": 0.9448818897637795
          },
          {
            "duration": 0.1666666666666643,
            "durationTicks": 25,
            "midi": 46,
            "name": "A#2",
            "ticks": 7400,
            "time": 49.333333333333336,
            "velocity": 0.9448818897637795
          },
          {
            "duration": 0.326666666666668,
            "durationTicks": 49,
            "midi": 46,
            "name": "A#2",
            "ticks": 7425,
            "time": 49.5,
            "velocity": 0.9448818897637795
          },
          {
            "duration": 0.1666666666666643,
            "durationTicks": 25,
            "midi": 46,
            "name": "A#2",
            "ticks": 7475,
            "time": 49.833333333333336,
            "velocity": 0.9448818897637795
          },
          {
            "duration": 0.1600000000000037,
            "durationTicks": 24,
            "midi": 46,
            "name": "A#2",
            "ticks": 7500,
            "time": 50,
            "velocity": 0.9448818897637795
          },
          {
            "duration": 0.3333333333333286,
            "durationTicks": 50,
            "midi": 46,
            "name": "A#2",
            "ticks": 7525,
            "time": 50.16666666666667,
            "velocity": 0.9448818897637795
          },
          {
            "duration": 0.1666666666666714,
            "durationTicks": 25,
            "midi": 46,
            "name": "A#2",
            "ticks": 7575,
            "time": 50.5,
            "velocity": 0.9448818897637795
          },
          {
            "duration": 0.1599999999999966,
            "durationTicks": 24,
            "midi": 46,
            "name": "A#2",
            "ticks": 7600,
            "time": 50.66666666666667,
            "velocity": 0.9448818897637795
          },
          {
            "duration": 0.3333333333333357,
            "durationTicks": 50,
            "midi": 44,
            "name": "G#2",
            "ticks": 7625,
            "time": 50.833333333333336,
            "velocity": 0.9448818897637795
          },
          {
            "duration": 0.1666666666666714,
            "durationTicks": 25,
            "midi": 44,
            "name": "G#2",
            "ticks": 7675,
            "time": 51.16666666666667,
            "velocity": 0.9448818897637795
          },
          {
            "duration": 0.1666666666666572,
            "durationTicks": 25,
            "midi": 44,
            "name": "G#2",
            "ticks": 7700,
            "time": 51.33333333333334,
            "velocity": 0.9448818897637795
          },
          {
            "duration": 0.326666666666668,
            "durationTicks": 49,
            "midi": 44,
            "name": "G#2",
            "ticks": 7725,
            "time": 51.5,
            "velocity": 0.9448818897637795
          },
          {
            "duration": 0.1666666666666572,
            "durationTicks": 25,
            "midi": 44,
            "name": "G#2",
            "ticks": 7775,
            "time": 51.83333333333334,
            "velocity": 0.9448818897637795
          },
          {
            "duration": 0.1600000000000037,
            "durationTicks": 24,
            "midi": 44,
            "name": "G#2",
            "ticks": 7800,
            "time": 52,
            "velocity": 0.9448818897637795
          },
          {
            "duration": 0.3333333333333357,
            "durationTicks": 50,
            "midi": 44,
            "name": "G#2",
            "ticks": 7825,
            "time": 52.166666666666664,
            "velocity": 0.9448818897637795
          },
          {
            "duration": 0.1600000000000037,
            "durationTicks": 24,
            "midi": 44,
            "name": "G#2",
            "ticks": 7875,
            "time": 52.5,
            "velocity": 0.9448818897637795
          },
          {
            "duration": 0.1666666666666785,
            "durationTicks": 25,
            "midi": 44,
            "name": "G#2",
            "ticks": 7900,
            "time": 52.666666666666664,
            "velocity": 0.9448818897637795
          },
          {
            "duration": 0.3333333333333215,
            "durationTicks": 50,
            "midi": 44,
            "name": "G#2",
            "ticks": 7925,
            "time": 52.83333333333334,
            "velocity": 0.9448818897637795
          },
          {
            "duration": 0.1666666666666785,
            "durationTicks": 25,
            "midi": 44,
            "name": "G#2",
            "ticks": 7975,
            "time": 53.166666666666664,
            "velocity": 0.9448818897637795
          },
          {
            "duration": 0.1666666666666572,
            "durationTicks": 25,
            "midi": 44,
            "name": "G#2",
            "ticks": 8000,
            "time": 53.33333333333334,
            "velocity": 0.9448818897637795
          },
          {
            "duration": 0.326666666666668,
            "durationTicks": 49,
            "midi": 42,
            "name": "F#2",
            "ticks": 8025,
            "time": 53.5,
            "velocity": 0.9448818897637795
          },
          {
            "duration": 0.1666666666666572,
            "durationTicks": 25,
            "midi": 42,
            "name": "F#2",
            "ticks": 8075,
            "time": 53.83333333333334,
            "velocity": 0.9448818897637795
          },
          {
            "duration": 0.1600000000000037,
            "durationTicks": 24,
            "midi": 42,
            "name": "F#2",
            "ticks": 8100,
            "time": 54,
            "velocity": 0.9448818897637795
          },
          {
            "duration": 0.3333333333333357,
            "durationTicks": 50,
            "midi": 42,
            "name": "F#2",
            "ticks": 8125,
            "time": 54.166666666666664,
            "velocity": 0.9448818897637795
          },
          {
            "duration": 0.1600000000000037,
            "durationTicks": 24,
            "midi": 42,
            "name": "F#2",
            "ticks": 8175,
            "time": 54.5,
            "velocity": 0.9448818897637795
          },
          {
            "duration": 0.1666666666666785,
            "durationTicks": 25,
            "midi": 42,
            "name": "F#2",
            "ticks": 8200,
            "time": 54.666666666666664,
            "velocity": 0.9448818897637795
          },
          {
            "duration": 0.3333333333333215,
            "durationTicks": 50,
            "midi": 42,
            "name": "F#2",
            "ticks": 8225,
            "time": 54.83333333333334,
            "velocity": 0.9448818897637795
          },
          {
            "duration": 0.1666666666666785,
            "durationTicks": 25,
            "midi": 42,
            "name": "F#2",
            "ticks": 8275,
            "time": 55.166666666666664,
            "velocity": 0.9448818897637795
          },
          {
            "duration": 0.1666666666666572,
            "durationTicks": 25,
            "midi": 42,
            "name": "F#2",
            "ticks": 8300,
            "time": 55.33333333333334,
            "velocity": 0.9448818897637795
          },
          {
            "duration": 0.326666666666668,
            "durationTicks": 49,
            "midi": 42,
            "name": "F#2",
            "ticks": 8325,
            "time": 55.5,
            "velocity": 0.9448818897637795
          },
          {
            "duration": 0.1666666666666572,
            "durationTicks": 25,
            "midi": 42,
            "name": "F#2",
            "ticks": 8375,
            "time": 55.83333333333334,
            "velocity": 0.9448818897637795
          },
          {
            "duration": 0.1600000000000037,
            "durationTicks": 24,
            "midi": 42,
            "name": "F#2",
            "ticks": 8400,
            "time": 56,
            "velocity": 0.9448818897637795
          },
          {
            "duration": 0.3333333333333357,
            "durationTicks": 50,
            "midi": 41,
            "name": "F2",
            "ticks": 8425,
            "time": 56.166666666666664,
            "velocity": 0.9448818897637795
          },
          {
            "duration": 0.1600000000000037,
            "durationTicks": 24,
            "midi": 41,
            "name": "F2",
            "ticks": 8475,
            "time": 56.5,
            "velocity": 0.9448818897637795
          },
          {
            "duration": 0.1666666666666785,
            "durationTicks": 25,
            "midi": 41,
            "name": "F2",
            "ticks": 8500,
            "time": 56.666666666666664,
            "velocity": 0.9448818897637795
          },
          {
            "duration": 0.3333333333333215,
            "durationTicks": 50,
            "midi": 41,
            "name": "F2",
            "ticks": 8525,
            "time": 56.83333333333334,
            "velocity": 0.9448818897637795
          },
          {
            "duration": 0.1666666666666785,
            "durationTicks": 25,
            "midi": 41,
            "name": "F2",
            "ticks": 8575,
            "time": 57.166666666666664,
            "velocity": 0.9448818897637795
          },
          {
            "duration": 0.1666666666666572,
            "durationTicks": 25,
            "midi": 41,
            "name": "F2",
            "ticks": 8600,
            "time": 57.33333333333334,
            "velocity": 0.9448818897637795
          },
          {
            "duration": 0.326666666666668,
            "durationTicks": 49,
            "midi": 41,
            "name": "F2",
            "ticks": 8625,
            "time": 57.5,
            "velocity": 0.9448818897637795
          },
          {
            "duration": 0.1666666666666572,
            "durationTicks": 25,
            "midi": 41,
            "name": "F2",
            "ticks": 8675,
            "time": 57.83333333333334,
            "velocity": 0.9448818897637795
          },
          {
            "duration": 0.1600000000000037,
            "durationTicks": 24,
            "midi": 41,
            "name": "F2",
            "ticks": 8700,
            "time": 58,
            "velocity": 0.9448818897637795
          },
          {
            "duration": 0.3333333333333357,
            "durationTicks": 50,
            "midi": 41,
            "name": "F2",
            "ticks": 8725,
            "time": 58.166666666666664,
            "velocity": 0.9448818897637795
          },
          {
            "duration": 0.1600000000000037,
            "durationTicks": 24,
            "midi": 41,
            "name": "F2",
            "ticks": 8775,
            "time": 58.5,
            "velocity": 0.9448818897637795
          },
          {
            "duration": 0.1666666666666785,
            "durationTicks": 25,
            "midi": 41,
            "name": "F2",
            "ticks": 8800,
            "time": 58.666666666666664,
            "velocity": 0.9448818897637795
          },
          {
            "duration": 0.3333333333333215,
            "durationTicks": 50,
            "midi": 40,
            "name": "E2",
            "ticks": 8825,
            "time": 58.83333333333334,
            "velocity": 0.9448818897637795
          },
          {
            "duration": 0.1666666666666785,
            "durationTicks": 25,
            "midi": 40,
            "name": "E2",
            "ticks": 8875,
            "time": 59.166666666666664,
            "velocity": 0.9448818897637795
          },
          {
            "duration": 0.1666666666666572,
            "durationTicks": 25,
            "midi": 40,
            "name": "E2",
            "ticks": 8900,
            "time": 59.33333333333334,
            "velocity": 0.9448818897637795
          },
          {
            "duration": 0.326666666666668,
            "durationTicks": 49,
            "midi": 40,
            "name": "E2",
            "ticks": 8925,
            "time": 59.5,
            "velocity": 0.9448818897637795
          },
          {
            "duration": 0.1666666666666572,
            "durationTicks": 25,
            "midi": 40,
            "name": "E2",
            "ticks": 8975,
            "time": 59.83333333333334,
            "velocity": 0.9448818897637795
          },
          {
            "duration": 0.1600000000000037,
            "durationTicks": 24,
            "midi": 40,
            "name": "E2",
            "ticks": 9000,
            "time": 60,
            "velocity": 0.9448818897637795
          },
          {
            "duration": 0.3333333333333357,
            "durationTicks": 50,
            "midi": 40,
            "name": "E2",
            "ticks": 9025,
            "time": 60.166666666666664,
            "velocity": 0.9448818897637795
          },
          {
            "duration": 0.1600000000000037,
            "durationTicks": 24,
            "midi": 40,
            "name": "E2",
            "ticks": 9075,
            "time": 60.5,
            "velocity": 0.9448818897637795
          },
          {
            "duration": 0.1666666666666785,
            "durationTicks": 25,
            "midi": 40,
            "name": "E2",
            "ticks": 9100,
            "time": 60.666666666666664,
            "velocity": 0.9448818897637795
          },
          {
            "duration": 0.3333333333333215,
            "durationTicks": 50,
            "midi": 40,
            "name": "E2",
            "ticks": 9125,
            "time": 60.83333333333334,
            "velocity": 0.9448818897637795
          },
          {
            "duration": 0.1666666666666785,
            "durationTicks": 25,
            "midi": 40,
            "name": "E2",
            "ticks": 9175,
            "time": 61.166666666666664,
            "velocity": 0.9448818897637795
          },
          {
            "duration": 0.1666666666666572,
            "durationTicks": 25,
            "midi": 40,
            "name": "E2",
            "ticks": 9200,
            "time": 61.33333333333334,
            "velocity": 0.9448818897637795
          },
          {
            "duration": 0.326666666666668,
            "durationTicks": 49,
            "midi": 41,
            "name": "F2",
            "ticks": 9225,
            "time": 61.5,
            "velocity": 0.9448818897637795
          },
          {
            "duration": 0.1666666666666572,
            "durationTicks": 25,
            "midi": 41,
            "name": "F2",
            "ticks": 9275,
            "time": 61.83333333333334,
            "velocity": 0.9448818897637795
          },
          {
            "duration": 0.1600000000000037,
            "durationTicks": 24,
            "midi": 41,
            "name": "F2",
            "ticks": 9300,
            "time": 62,
            "velocity": 0.9448818897637795
          },
          {
            "duration": 0.3333333333333357,
            "durationTicks": 50,
            "midi": 41,
            "name": "F2",
            "ticks": 9325,
            "time": 62.166666666666664,
            "velocity": 0.9448818897637795
          },
          {
            "duration": 0.1600000000000037,
            "durationTicks": 24,
            "midi": 41,
            "name": "F2",
            "ticks": 9375,
            "time": 62.5,
            "velocity": 0.9448818897637795
          },
          {
            "duration": 0.1666666666666785,
            "durationTicks": 25,
            "midi": 41,
            "name": "F2",
            "ticks": 9400,
            "time": 62.666666666666664,
            "velocity": 0.9448818897637795
          },
          {
            "duration": 0.3266666666666609,
            "durationTicks": 49,
            "midi": 41,
            "name": "F2",
            "ticks": 9425,
            "time": 62.83333333333334,
            "velocity": 0.9448818897637795
          },
          {
            "duration": 0.1666666666666785,
            "durationTicks": 25,
            "midi": 41,
            "name": "F2",
            "ticks": 9475,
            "time": 63.166666666666664,
            "velocity": 0.9448818897637795
          },
          {
            "duration": 0.1666666666666572,
            "durationTicks": 25,
            "midi": 41,
            "name": "F2",
            "ticks": 9500,
            "time": 63.33333333333334,
            "velocity": 0.9448818897637795
          },
          {
            "duration": 0.326666666666668,
            "durationTicks": 49,
            "midi": 41,
            "name": "F2",
            "ticks": 9525,
            "time": 63.5,
            "velocity": 0.9448818897637795
          },
          {
            "duration": 0.1666666666666572,
            "durationTicks": 25,
            "midi": 41,
            "name": "F2",
            "ticks": 9575,
            "time": 63.83333333333334,
            "velocity": 0.9448818897637795
          },
          {
            "duration": 0.1600000000000108,
            "durationTicks": 24,
            "midi": 41,
            "name": "F2",
            "ticks": 9600,
            "time": 64,
            "velocity": 0.9448818897637795
          },
          {
            "duration": 0.3333333333333286,
            "durationTicks": 50,
            "midi": 40,
            "name": "E2",
            "ticks": 9625,
            "time": 64.16666666666667,
            "velocity": 0.9448818897637795
          },
          {
            "duration": 0.1600000000000108,
            "durationTicks": 24,
            "midi": 40,
            "name": "E2",
            "ticks": 9675,
            "time": 64.5,
            "velocity": 0.9448818897637795
          },
          {
            "duration": 0.1599999999999966,
            "durationTicks": 24,
            "midi": 40,
            "name": "E2",
            "ticks": 9700,
            "time": 64.66666666666667,
            "velocity": 0.9448818897637795
          },
          {
            "duration": 0.326666666666668,
            "durationTicks": 49,
            "midi": 40,
            "name": "E2",
            "ticks": 9725,
            "time": 64.83333333333334,
            "velocity": 0.9448818897637795
          },
          {
            "duration": 0.1666666666666714,
            "durationTicks": 25,
            "midi": 40,
            "name": "E2",
            "ticks": 9775,
            "time": 65.16666666666667,
            "velocity": 0.9448818897637795
          },
          {
            "duration": 0.1666666666666572,
            "durationTicks": 25,
            "midi": 40,
            "name": "E2",
            "ticks": 9800,
            "time": 65.33333333333334,
            "velocity": 0.9448818897637795
          },
          {
            "duration": 0.326666666666668,
            "durationTicks": 49,
            "midi": 40,
            "name": "E2",
            "ticks": 9825,
            "time": 65.5,
            "velocity": 0.9448818897637795
          },
          {
            "duration": 0.1666666666666572,
            "durationTicks": 25,
            "midi": 40,
            "name": "E2",
            "ticks": 9875,
            "time": 65.83333333333334,
            "velocity": 0.9448818897637795
          },
          {
            "duration": 0.1600000000000108,
            "durationTicks": 24,
            "midi": 40,
            "name": "E2",
            "ticks": 9900,
            "time": 66,
            "velocity": 0.9448818897637795
          },
          {
            "duration": 0.3333333333333286,
            "durationTicks": 50,
            "midi": 40,
            "name": "E2",
            "ticks": 9925,
            "time": 66.16666666666667,
            "velocity": 0.9448818897637795
          },
          {
            "duration": 0.1600000000000108,
            "durationTicks": 24,
            "midi": 40,
            "name": "E2",
            "ticks": 9975,
            "time": 66.5,
            "velocity": 0.9448818897637795
          },
          {
            "duration": 0.1666666666666714,
            "durationTicks": 25,
            "midi": 40,
            "name": "E2",
            "ticks": 10000,
            "time": 66.66666666666667,
            "velocity": 0.9448818897637795
          },
          {
            "duration": 0.326666666666668,
            "durationTicks": 49,
            "midi": 41,
            "name": "F2",
            "ticks": 10025,
            "time": 66.83333333333334,
            "velocity": 0.9448818897637795
          },
          {
            "duration": 0.1666666666666714,
            "durationTicks": 25,
            "midi": 41,
            "name": "F2",
            "ticks": 10075,
            "time": 67.16666666666667,
            "velocity": 0.9448818897637795
          },
          {
            "duration": 0.1666666666666572,
            "durationTicks": 25,
            "midi": 41,
            "name": "F2",
            "ticks": 10100,
            "time": 67.33333333333334,
            "velocity": 0.9448818897637795
          },
          {
            "duration": 0.326666666666668,
            "durationTicks": 49,
            "midi": 41,
            "name": "F2",
            "ticks": 10125,
            "time": 67.5,
            "velocity": 0.9448818897637795
          },
          {
            "duration": 0.1666666666666572,
            "durationTicks": 25,
            "midi": 41,
            "name": "F2",
            "ticks": 10175,
            "time": 67.83333333333334,
            "velocity": 0.9448818897637795
          },
          {
            "duration": 0.1600000000000108,
            "durationTicks": 24,
            "midi": 41,
            "name": "F2",
            "ticks": 10200,
            "time": 68,
            "velocity": 0.9448818897637795
          },
          {
            "duration": 0.3333333333333286,
            "durationTicks": 50,
            "midi": 41,
            "name": "F2",
            "ticks": 10225,
            "time": 68.16666666666667,
            "velocity": 0.9448818897637795
          },
          {
            "duration": 0.1600000000000108,
            "durationTicks": 24,
            "midi": 41,
            "name": "F2",
            "ticks": 10275,
            "time": 68.5,
            "velocity": 0.9448818897637795
          },
          {
            "duration": 0.1666666666666714,
            "durationTicks": 25,
            "midi": 41,
            "name": "F2",
            "ticks": 10300,
            "time": 68.66666666666667,
            "velocity": 0.9448818897637795
          },
          {
            "duration": 0.326666666666668,
            "durationTicks": 49,
            "midi": 41,
            "name": "F2",
            "ticks": 10325,
            "time": 68.83333333333334,
            "velocity": 0.9448818897637795
          },
          {
            "duration": 0.1666666666666714,
            "durationTicks": 25,
            "midi": 41,
            "name": "F2",
            "ticks": 10375,
            "time": 69.16666666666667,
            "velocity": 0.9448818897637795
          },
          {
            "duration": 0.1666666666666572,
            "durationTicks": 25,
            "midi": 41,
            "name": "F2",
            "ticks": 10400,
            "time": 69.33333333333334,
            "velocity": 0.9448818897637795
          },
          {
            "duration": 0.326666666666668,
            "durationTicks": 49,
            "midi": 47,
            "name": "B2",
            "ticks": 10425,
            "time": 69.5,
            "velocity": 0.9448818897637795
          },
          {
            "duration": 0.1666666666666572,
            "durationTicks": 25,
            "midi": 47,
            "name": "B2",
            "ticks": 10475,
            "time": 69.83333333333334,
            "velocity": 0.9448818897637795
          },
          {
            "duration": 0.1600000000000108,
            "durationTicks": 24,
            "midi": 47,
            "name": "B2",
            "ticks": 10500,
            "time": 70,
            "velocity": 0.9448818897637795
          },
          {
            "duration": 0.3333333333333286,
            "durationTicks": 50,
            "midi": 47,
            "name": "B2",
            "ticks": 10525,
            "time": 70.16666666666667,
            "velocity": 0.9448818897637795
          },
          {
            "duration": 0.1600000000000108,
            "durationTicks": 24,
            "midi": 47,
            "name": "B2",
            "ticks": 10575,
            "time": 70.5,
            "velocity": 0.9448818897637795
          },
          {
            "duration": 0.1666666666666714,
            "durationTicks": 25,
            "midi": 47,
            "name": "B2",
            "ticks": 10600,
            "time": 70.66666666666667,
            "velocity": 0.9448818897637795
          },
          {
            "duration": 0.3333333333333286,
            "durationTicks": 50,
            "midi": 47,
            "name": "B2",
            "ticks": 10625,
            "time": 70.83333333333334,
            "velocity": 0.9448818897637795
          },
          {
            "duration": 0.1666666666666714,
            "durationTicks": 25,
            "midi": 47,
            "name": "B2",
            "ticks": 10675,
            "time": 71.16666666666667,
            "velocity": 0.9448818897637795
          },
          {
            "duration": 0.1666666666666572,
            "durationTicks": 25,
            "midi": 47,
            "name": "B2",
            "ticks": 10700,
            "time": 71.33333333333334,
            "velocity": 0.9448818897637795
          },
          {
            "duration": 0.326666666666668,
            "durationTicks": 49,
            "midi": 47,
            "name": "B2",
            "ticks": 10725,
            "time": 71.5,
            "velocity": 0.9448818897637795
          },
          {
            "duration": 0.1666666666666572,
            "durationTicks": 25,
            "midi": 47,
            "name": "B2",
            "ticks": 10775,
            "time": 71.83333333333334,
            "velocity": 0.9448818897637795
          },
          {
            "duration": 0.1666666666666714,
            "durationTicks": 25,
            "midi": 47,
            "name": "B2",
            "ticks": 10800,
            "time": 72,
            "velocity": 0.9448818897637795
          },
          {
            "duration": 0.3333333333333286,
            "durationTicks": 50,
            "midi": 46,
            "name": "A#2",
            "ticks": 10825,
            "time": 72.16666666666667,
            "velocity": 0.9448818897637795
          },
          {
            "duration": 0.1600000000000108,
            "durationTicks": 24,
            "midi": 46,
            "name": "A#2",
            "ticks": 10875,
            "time": 72.5,
            "velocity": 0.9448818897637795
          },
          {
            "duration": 0.1666666666666714,
            "durationTicks": 25,
            "midi": 46,
            "name": "A#2",
            "ticks": 10900,
            "time": 72.66666666666667,
            "velocity": 0.9448818897637795
          },
          {
            "duration": 0.326666666666668,
            "durationTicks": 49,
            "midi": 46,
            "name": "A#2",
            "ticks": 10925,
            "time": 72.83333333333334,
            "velocity": 0.9448818897637795
          },
          {
            "duration": 0.1666666666666714,
            "durationTicks": 25,
            "midi": 46,
            "name": "A#2",
            "ticks": 10975,
            "time": 73.16666666666667,
            "velocity": 0.9448818897637795
          },
          {
            "duration": 0.1666666666666572,
            "durationTicks": 25,
            "midi": 46,
            "name": "A#2",
            "ticks": 11000,
            "time": 73.33333333333334,
            "velocity": 0.9448818897637795
          },
          {
            "duration": 0.326666666666668,
            "durationTicks": 49,
            "midi": 46,
            "name": "A#2",
            "ticks": 11025,
            "time": 73.5,
            "velocity": 0.9448818897637795
          },
          {
            "duration": 0.1666666666666572,
            "durationTicks": 25,
            "midi": 46,
            "name": "A#2",
            "ticks": 11075,
            "time": 73.83333333333334,
            "velocity": 0.9448818897637795
          },
          {
            "duration": 0.1666666666666714,
            "durationTicks": 25,
            "midi": 46,
            "name": "A#2",
            "ticks": 11100,
            "time": 74,
            "velocity": 0.9448818897637795
          },
          {
            "duration": 0.3333333333333286,
            "durationTicks": 50,
            "midi": 46,
            "name": "A#2",
            "ticks": 11125,
            "time": 74.16666666666667,
            "velocity": 0.9448818897637795
          },
          {
            "duration": 0.1600000000000108,
            "durationTicks": 24,
            "midi": 46,
            "name": "A#2",
            "ticks": 11175,
            "time": 74.5,
            "velocity": 0.9448818897637795
          },
          {
            "duration": 0.1666666666666714,
            "durationTicks": 25,
            "midi": 46,
            "name": "A#2",
            "ticks": 11200,
            "time": 74.66666666666667,
            "velocity": 0.9448818897637795
          },
          {
            "duration": 0.326666666666668,
            "durationTicks": 49,
            "midi": 48,
            "name": "C3",
            "ticks": 11225,
            "time": 74.83333333333334,
            "velocity": 0.9448818897637795
          },
          {
            "duration": 0.1666666666666714,
            "durationTicks": 25,
            "midi": 48,
            "name": "C3",
            "ticks": 11275,
            "time": 75.16666666666667,
            "velocity": 0.9448818897637795
          },
          {
            "duration": 0.1666666666666572,
            "durationTicks": 25,
            "midi": 48,
            "name": "C3",
            "ticks": 11300,
            "time": 75.33333333333334,
            "velocity": 0.9448818897637795
          },
          {
            "duration": 0.326666666666668,
            "durationTicks": 49,
            "midi": 48,
            "name": "C3",
            "ticks": 11325,
            "time": 75.5,
            "velocity": 0.9448818897637795
          },
          {
            "duration": 0.1666666666666572,
            "durationTicks": 25,
            "midi": 48,
            "name": "C3",
            "ticks": 11375,
            "time": 75.83333333333334,
            "velocity": 0.9448818897637795
          },
          {
            "duration": 0.1600000000000108,
            "durationTicks": 24,
            "midi": 48,
            "name": "C3",
            "ticks": 11400,
            "time": 76,
            "velocity": 0.9448818897637795
          },
          {
            "duration": 0.3333333333333286,
            "durationTicks": 50,
            "midi": 48,
            "name": "C3",
            "ticks": 11425,
            "time": 76.16666666666667,
            "velocity": 0.9448818897637795
          },
          {
            "duration": 0.1600000000000108,
            "durationTicks": 24,
            "midi": 48,
            "name": "C3",
            "ticks": 11475,
            "time": 76.5,
            "velocity": 0.9448818897637795
          },
          {
            "duration": 0.1666666666666714,
            "durationTicks": 25,
            "midi": 48,
            "name": "C3",
            "ticks": 11500,
            "time": 76.66666666666667,
            "velocity": 0.9448818897637795
          },
          {
            "duration": 0.326666666666668,
            "durationTicks": 49,
            "midi": 48,
            "name": "C3",
            "ticks": 11525,
            "time": 76.83333333333334,
            "velocity": 0.9448818897637795
          },
          {
            "duration": 0.1666666666666714,
            "durationTicks": 25,
            "midi": 48,
            "name": "C3",
            "ticks": 11575,
            "time": 77.16666666666667,
            "velocity": 0.9448818897637795
          },
          {
            "duration": 0.1666666666666572,
            "durationTicks": 25,
            "midi": 48,
            "name": "C3",
            "ticks": 11600,
            "time": 77.33333333333334,
            "velocity": 0.9448818897637795
          },
          {
            "duration": 0.326666666666668,
            "durationTicks": 49,
            "midi": 53,
            "name": "F3",
            "ticks": 11625,
            "time": 77.5,
            "velocity": 0.9448818897637795
          },
          {
            "duration": 0.1666666666666572,
            "durationTicks": 25,
            "midi": 41,
            "name": "F2",
            "ticks": 11675,
            "time": 77.83333333333334,
            "velocity": 0.9448818897637795
          },
          {
            "duration": 0.1600000000000108,
            "durationTicks": 24,
            "midi": 41,
            "name": "F2",
            "ticks": 11700,
            "time": 78,
            "velocity": 0.9448818897637795
          },
          {
            "duration": 0.3333333333333286,
            "durationTicks": 50,
            "midi": 41,
            "name": "F2",
            "ticks": 11725,
            "time": 78.16666666666667,
            "velocity": 0.9448818897637795
          },
          {
            "duration": 0.1600000000000108,
            "durationTicks": 24,
            "midi": 41,
            "name": "F2",
            "ticks": 11775,
            "time": 78.5,
            "velocity": 0.9448818897637795
          },
          {
            "duration": 0.1666666666666714,
            "durationTicks": 25,
            "midi": 41,
            "name": "F2",
            "ticks": 11800,
            "time": 78.66666666666667,
            "velocity": 0.9448818897637795
          },
          {
            "duration": 0.3333333333333286,
            "durationTicks": 50,
            "midi": 41,
            "name": "F2",
            "ticks": 11825,
            "time": 78.83333333333334,
            "velocity": 0.9448818897637795
          },
          {
            "duration": 0.1599999999999966,
            "durationTicks": 24,
            "midi": 41,
            "name": "F2",
            "ticks": 11875,
            "time": 79.16666666666667,
            "velocity": 0.9448818897637795
          },
          {
            "duration": 0.1666666666666572,
            "durationTicks": 25,
            "midi": 41,
            "name": "F2",
            "ticks": 11900,
            "time": 79.33333333333334,
            "velocity": 0.9448818897637795
          },
          {
            "duration": 0.326666666666668,
            "durationTicks": 49,
            "midi": 41,
            "name": "F2",
            "ticks": 11925,
            "time": 79.5,
            "velocity": 0.9448818897637795
          },
          {
            "duration": 0.1666666666666572,
            "durationTicks": 25,
            "midi": 43,
            "name": "G2",
            "ticks": 11975,
            "time": 79.83333333333334,
            "velocity": 0.9448818897637795
          },
          {
            "duration": 0.19333333333332803,
            "durationTicks": 29,
            "midi": 45,
            "name": "A2",
            "ticks": 12000,
            "time": 80,
            "velocity": 0.9448818897637795
          }
        ],
        "endOfTrackTicks": 12035
      },
      {
        "channel": 3,
        "controlChanges": {
          "7": [
            {
              "number": 7,
              "ticks": 0,
              "time": 0,
              "value": 0.5196850393700787
            }
          ],
          "64": [
            {
              "number": 64,
              "ticks": 12035,
              "time": 80.23333333333335,
              "value": 0
            }
          ],
          "120": [
            {
              "number": 120,
              "ticks": 12035,
              "time": 80.23333333333335,
              "value": 0
            }
          ],
          "121": [
            {
              "number": 121,
              "ticks": 12035,
              "time": 80.23333333333335,
              "value": 0
            }
          ],
          "123": [
            {
              "number": 123,
              "ticks": 12035,
              "time": 80.23333333333335,
              "value": 0
            }
          ],
          "124": [
            {
              "number": 124,
              "ticks": 12035,
              "time": 80.23333333333335,
              "value": 0
            }
          ]
        },
        "pitchBends": [],
        "instrument": {
          "family": "percussive",
          "number": 118,
          "name": "synth drum"
        },
        "name": "Send comments to risser@cpcnet.com",
        "notes": [
          {
            "duration": 0.3333333333333339,
            "durationTicks": 50,
            "midi": 46,
            "name": "A#2",
            "ticks": 1617,
            "time": 10.780000000000001,
            "velocity": 0.9448818897637795
          },
          {
            "duration": 0.16666666666666607,
            "durationTicks": 25,
            "midi": 46,
            "name": "A#2",
            "ticks": 1667,
            "time": 11.113333333333335,
            "velocity": 0.9448818897637795
          },
          {
            "duration": 0.16666666666666607,
            "durationTicks": 25,
            "midi": 46,
            "name": "A#2",
            "ticks": 1692,
            "time": 11.280000000000001,
            "velocity": 0.9448818897637795
          },
          {
            "duration": 0.3266666666666662,
            "durationTicks": 49,
            "midi": 46,
            "name": "A#2",
            "ticks": 1717,
            "time": 11.446666666666667,
            "velocity": 0.9448818897637795
          },
          {
            "duration": 0.16666666666666607,
            "durationTicks": 25,
            "midi": 46,
            "name": "A#2",
            "ticks": 1767,
            "time": 11.780000000000001,
            "velocity": 0.9448818897637795
          },
          {
            "duration": 0.1533333333333342,
            "durationTicks": 23,
            "midi": 46,
            "name": "A#2",
            "ticks": 1793,
            "time": 11.953333333333333,
            "velocity": 0.9448818897637795
          },
          {
            "duration": 0.33333333333333215,
            "durationTicks": 50,
            "midi": 46,
            "name": "A#2",
            "ticks": 1817,
            "time": 12.113333333333335,
            "velocity": 0.9448818897637795
          },
          {
            "duration": 0.16666666666666785,
            "durationTicks": 25,
            "midi": 46,
            "name": "A#2",
            "ticks": 1867,
            "time": 12.446666666666667,
            "velocity": 0.9448818897637795
          },
          {
            "duration": 0.15999999999999837,
            "durationTicks": 24,
            "midi": 46,
            "name": "A#2",
            "ticks": 1892,
            "time": 12.613333333333335,
            "velocity": 0.9448818897637795
          },
          {
            "duration": 0.33333333333333215,
            "durationTicks": 50,
            "midi": 46,
            "name": "A#2",
            "ticks": 1917,
            "time": 12.780000000000001,
            "velocity": 0.9448818897637795
          },
          {
            "duration": 0.16666666666666785,
            "durationTicks": 25,
            "midi": 46,
            "name": "A#2",
            "ticks": 1967,
            "time": 13.113333333333333,
            "velocity": 0.9448818897637795
          },
          {
            "duration": 0.16666666666666607,
            "durationTicks": 25,
            "midi": 46,
            "name": "A#2",
            "ticks": 1992,
            "time": 13.280000000000001,
            "velocity": 0.9448818897637795
          },
          {
            "duration": 0.3266666666666662,
            "durationTicks": 49,
            "midi": 46,
            "name": "A#2",
            "ticks": 2017,
            "time": 13.446666666666667,
            "velocity": 0.9448818897637795
          },
          {
            "duration": 0.16666666666666607,
            "durationTicks": 25,
            "midi": 46,
            "name": "A#2",
            "ticks": 2067,
            "time": 13.780000000000001,
            "velocity": 0.9448818897637795
          },
          {
            "duration": 0.16000000000000014,
            "durationTicks": 24,
            "midi": 46,
            "name": "A#2",
            "ticks": 2092,
            "time": 13.946666666666667,
            "velocity": 0.9448818897637795
          },
          {
            "duration": 0.3333333333333339,
            "durationTicks": 50,
            "midi": 46,
            "name": "A#2",
            "ticks": 2117,
            "time": 14.113333333333333,
            "velocity": 0.9448818897637795
          },
          {
            "duration": 0.16000000000000014,
            "durationTicks": 24,
            "midi": 46,
            "name": "A#2",
            "ticks": 2167,
            "time": 14.446666666666667,
            "velocity": 0.9448818897637795
          },
          {
            "duration": 0.16666666666666785,
            "durationTicks": 25,
            "midi": 46,
            "name": "A#2",
            "ticks": 2192,
            "time": 14.613333333333333,
            "velocity": 0.9448818897637795
          },
          {
            "duration": 0.33333333333333215,
            "durationTicks": 50,
            "midi": 46,
            "name": "A#2",
            "ticks": 2217,
            "time": 14.780000000000001,
            "velocity": 0.9448818897637795
          },
          {
            "duration": 0.16666666666666785,
            "durationTicks": 25,
            "midi": 46,
            "name": "A#2",
            "ticks": 2267,
            "time": 15.113333333333333,
            "velocity": 0.9448818897637795
          },
          {
            "duration": 0.16666666666666607,
            "durationTicks": 25,
            "midi": 46,
            "name": "A#2",
            "ticks": 2292,
            "time": 15.280000000000001,
            "velocity": 0.9448818897637795
          },
          {
            "duration": 0.3266666666666662,
            "durationTicks": 49,
            "midi": 46,
            "name": "A#2",
            "ticks": 2317,
            "time": 15.446666666666667,
            "velocity": 0.9448818897637795
          },
          {
            "duration": 0.21333333333333293,
            "durationTicks": 32,
            "midi": 46,
            "name": "A#2",
            "ticks": 2367,
            "time": 15.780000000000001,
            "velocity": 0.9448818897637795
          },
          {
            "duration": 0.16000000000000014,
            "durationTicks": 24,
            "midi": 46,
            "name": "A#2",
            "ticks": 2400,
            "time": 16,
            "velocity": 0.9448818897637795
          },
          {
            "duration": 0.33333333333333215,
            "durationTicks": 50,
            "midi": 46,
            "name": "A#2",
            "ticks": 2425,
            "time": 16.166666666666668,
            "velocity": 0.9448818897637795
          },
          {
            "duration": 0.16000000000000014,
            "durationTicks": 24,
            "midi": 46,
            "name": "A#2",
            "ticks": 2475,
            "time": 16.5,
            "velocity": 0.9448818897637795
          },
          {
            "duration": 0.16666666666666785,
            "durationTicks": 25,
            "midi": 46,
            "name": "A#2",
            "ticks": 2500,
            "time": 16.666666666666668,
            "velocity": 0.9448818897637795
          },
          {
            "duration": 0.33333333333333215,
            "durationTicks": 50,
            "midi": 46,
            "name": "A#2",
            "ticks": 2525,
            "time": 16.833333333333336,
            "velocity": 0.9448818897637795
          },
          {
            "duration": 0.16666666666666785,
            "durationTicks": 25,
            "midi": 46,
            "name": "A#2",
            "ticks": 2575,
            "time": 17.166666666666668,
            "velocity": 0.9448818897637795
          },
          {
            "duration": 0.1666666666666643,
            "durationTicks": 25,
            "midi": 46,
            "name": "A#2",
            "ticks": 2600,
            "time": 17.333333333333336,
            "velocity": 0.9448818897637795
          },
          {
            "duration": 0.326666666666668,
            "durationTicks": 49,
            "midi": 46,
            "name": "A#2",
            "ticks": 2625,
            "time": 17.5,
            "velocity": 0.9448818897637795
          },
          {
            "duration": 0.1666666666666643,
            "durationTicks": 25,
            "midi": 46,
            "name": "A#2",
            "ticks": 2675,
            "time": 17.833333333333336,
            "velocity": 0.9448818897637795
          },
          {
            "duration": 0.16000000000000014,
            "durationTicks": 24,
            "midi": 46,
            "name": "A#2",
            "ticks": 2700,
            "time": 18,
            "velocity": 0.9448818897637795
          },
          {
            "duration": 0.33333333333333215,
            "durationTicks": 50,
            "midi": 46,
            "name": "A#2",
            "ticks": 2725,
            "time": 18.166666666666668,
            "velocity": 0.9448818897637795
          },
          {
            "duration": 0.16666666666666785,
            "durationTicks": 25,
            "midi": 46,
            "name": "A#2",
            "ticks": 2775,
            "time": 18.5,
            "velocity": 0.9448818897637795
          },
          {
            "duration": 0.16000000000000014,
            "durationTicks": 24,
            "midi": 46,
            "name": "A#2",
            "ticks": 2800,
            "time": 18.666666666666668,
            "velocity": 0.9448818897637795
          },
          {
            "duration": 0.33333333333333215,
            "durationTicks": 50,
            "midi": 44,
            "name": "G#2",
            "ticks": 2825,
            "time": 18.833333333333336,
            "velocity": 0.9448818897637795
          },
          {
            "duration": 0.16666666666666785,
            "durationTicks": 25,
            "midi": 44,
            "name": "G#2",
            "ticks": 2875,
            "time": 19.166666666666668,
            "velocity": 0.9448818897637795
          },
          {
            "duration": 0.1666666666666643,
            "durationTicks": 25,
            "midi": 44,
            "name": "G#2",
            "ticks": 2900,
            "time": 19.333333333333336,
            "velocity": 0.9448818897637795
          },
          {
            "duration": 0.326666666666668,
            "durationTicks": 49,
            "midi": 44,
            "name": "G#2",
            "ticks": 2925,
            "time": 19.5,
            "velocity": 0.9448818897637795
          },
          {
            "duration": 0.1666666666666643,
            "durationTicks": 25,
            "midi": 44,
            "name": "G#2",
            "ticks": 2975,
            "time": 19.833333333333336,
            "velocity": 0.9448818897637795
          },
          {
            "duration": 0.16000000000000014,
            "durationTicks": 24,
            "midi": 44,
            "name": "G#2",
            "ticks": 3000,
            "time": 20,
            "velocity": 0.9448818897637795
          },
          {
            "duration": 0.33333333333333215,
            "durationTicks": 50,
            "midi": 44,
            "name": "G#2",
            "ticks": 3025,
            "time": 20.166666666666668,
            "velocity": 0.9448818897637795
          },
          {
            "duration": 0.16000000000000014,
            "durationTicks": 24,
            "midi": 44,
            "name": "G#2",
            "ticks": 3075,
            "time": 20.5,
            "velocity": 0.9448818897637795
          },
          {
            "duration": 0.16666666666666785,
            "durationTicks": 25,
            "midi": 44,
            "name": "G#2",
            "ticks": 3100,
            "time": 20.666666666666668,
            "velocity": 0.9448818897637795
          },
          {
            "duration": 0.33333333333333215,
            "durationTicks": 50,
            "midi": 44,
            "name": "G#2",
            "ticks": 3125,
            "time": 20.833333333333336,
            "velocity": 0.9448818897637795
          },
          {
            "duration": 0.16666666666666785,
            "durationTicks": 25,
            "midi": 44,
            "name": "G#2",
            "ticks": 3175,
            "time": 21.166666666666668,
            "velocity": 0.9448818897637795
          },
          {
            "duration": 0.1666666666666643,
            "durationTicks": 25,
            "midi": 44,
            "name": "G#2",
            "ticks": 3200,
            "time": 21.333333333333336,
            "velocity": 0.9448818897637795
          },
          {
            "duration": 0.326666666666668,
            "durationTicks": 49,
            "midi": 42,
            "name": "F#2",
            "ticks": 3225,
            "time": 21.5,
            "velocity": 0.9448818897637795
          },
          {
            "duration": 0.1666666666666643,
            "durationTicks": 25,
            "midi": 42,
            "name": "F#2",
            "ticks": 3275,
            "time": 21.833333333333336,
            "velocity": 0.9448818897637795
          },
          {
            "duration": 0.16000000000000014,
            "durationTicks": 24,
            "midi": 42,
            "name": "F#2",
            "ticks": 3300,
            "time": 22,
            "velocity": 0.9448818897637795
          },
          {
            "duration": 0.33333333333333215,
            "durationTicks": 50,
            "midi": 42,
            "name": "F#2",
            "ticks": 3325,
            "time": 22.166666666666668,
            "velocity": 0.9448818897637795
          },
          {
            "duration": 0.16000000000000014,
            "durationTicks": 24,
            "midi": 42,
            "name": "F#2",
            "ticks": 3375,
            "time": 22.5,
            "velocity": 0.9448818897637795
          },
          {
            "duration": 0.16666666666666785,
            "durationTicks": 25,
            "midi": 42,
            "name": "F#2",
            "ticks": 3400,
            "time": 22.666666666666668,
            "velocity": 0.9448818897637795
          },
          {
            "duration": 0.33333333333333215,
            "durationTicks": 50,
            "midi": 42,
            "name": "F#2",
            "ticks": 3425,
            "time": 22.833333333333336,
            "velocity": 0.9448818897637795
          },
          {
            "duration": 0.16666666666666785,
            "durationTicks": 25,
            "midi": 42,
            "name": "F#2",
            "ticks": 3475,
            "time": 23.166666666666668,
            "velocity": 0.9448818897637795
          },
          {
            "duration": 0.1666666666666643,
            "durationTicks": 25,
            "midi": 42,
            "name": "F#2",
            "ticks": 3500,
            "time": 23.333333333333336,
            "velocity": 0.9448818897637795
          },
          {
            "duration": 0.326666666666668,
            "durationTicks": 49,
            "midi": 42,
            "name": "F#2",
            "ticks": 3525,
            "time": 23.5,
            "velocity": 0.9448818897637795
          },
          {
            "duration": 0.1666666666666643,
            "durationTicks": 25,
            "midi": 42,
            "name": "F#2",
            "ticks": 3575,
            "time": 23.833333333333336,
            "velocity": 0.9448818897637795
          },
          {
            "duration": 0.16000000000000014,
            "durationTicks": 24,
            "midi": 42,
            "name": "F#2",
            "ticks": 3600,
            "time": 24,
            "velocity": 0.9448818897637795
          },
          {
            "duration": 0.33333333333333215,
            "durationTicks": 50,
            "midi": 41,
            "name": "F2",
            "ticks": 3625,
            "time": 24.166666666666668,
            "velocity": 0.9448818897637795
          },
          {
            "duration": 0.16000000000000014,
            "durationTicks": 24,
            "midi": 41,
            "name": "F2",
            "ticks": 3675,
            "time": 24.5,
            "velocity": 0.9448818897637795
          },
          {
            "duration": 0.16666666666666785,
            "durationTicks": 25,
            "midi": 41,
            "name": "F2",
            "ticks": 3700,
            "time": 24.666666666666668,
            "velocity": 0.9448818897637795
          },
          {
            "duration": 0.33333333333333215,
            "durationTicks": 50,
            "midi": 41,
            "name": "F2",
            "ticks": 3725,
            "time": 24.833333333333336,
            "velocity": 0.9448818897637795
          },
          {
            "duration": 0.16666666666666785,
            "durationTicks": 25,
            "midi": 41,
            "name": "F2",
            "ticks": 3775,
            "time": 25.166666666666668,
            "velocity": 0.9448818897637795
          },
          {
            "duration": 0.1666666666666643,
            "durationTicks": 25,
            "midi": 41,
            "name": "F2",
            "ticks": 3800,
            "time": 25.333333333333336,
            "velocity": 0.9448818897637795
          },
          {
            "duration": 0.326666666666668,
            "durationTicks": 49,
            "midi": 41,
            "name": "F2",
            "ticks": 3825,
            "time": 25.5,
            "velocity": 0.9448818897637795
          },
          {
            "duration": 0.16666666666666785,
            "durationTicks": 25,
            "midi": 41,
            "name": "F2",
            "ticks": 3875,
            "time": 25.833333333333332,
            "velocity": 0.9448818897637795
          },
          {
            "duration": 0.1600000000000037,
            "durationTicks": 24,
            "midi": 41,
            "name": "F2",
            "ticks": 3900,
            "time": 26,
            "velocity": 0.9448818897637795
          },
          {
            "duration": 0.3333333333333286,
            "durationTicks": 50,
            "midi": 41,
            "name": "F2",
            "ticks": 3925,
            "time": 26.16666666666667,
            "velocity": 0.9448818897637795
          },
          {
            "duration": 0.1600000000000037,
            "durationTicks": 24,
            "midi": 41,
            "name": "F2",
            "ticks": 3975,
            "time": 26.5,
            "velocity": 0.9448818897637795
          },
          {
            "duration": 0.16666666666666075,
            "durationTicks": 25,
            "midi": 41,
            "name": "F2",
            "ticks": 4000,
            "time": 26.66666666666667,
            "velocity": 0.9448818897637795
          },
          {
            "duration": 0.32666666666667155,
            "durationTicks": 49,
            "midi": 46,
            "name": "A#2",
            "ticks": 4025,
            "time": 26.833333333333332,
            "velocity": 0.9448818897637795
          },
          {
            "duration": 0.16666666666666075,
            "durationTicks": 25,
            "midi": 46,
            "name": "A#2",
            "ticks": 4075,
            "time": 27.16666666666667,
            "velocity": 0.9448818897637795
          },
          {
            "duration": 0.16666666666666785,
            "durationTicks": 25,
            "midi": 46,
            "name": "A#2",
            "ticks": 4100,
            "time": 27.333333333333332,
            "velocity": 0.9448818897637795
          },
          {
            "duration": 0.326666666666668,
            "durationTicks": 49,
            "midi": 46,
            "name": "A#2",
            "ticks": 4125,
            "time": 27.5,
            "velocity": 0.9448818897637795
          },
          {
            "duration": 0.16666666666666785,
            "durationTicks": 25,
            "midi": 46,
            "name": "A#2",
            "ticks": 4175,
            "time": 27.833333333333332,
            "velocity": 0.9448818897637795
          },
          {
            "duration": 0.1666666666666714,
            "durationTicks": 25,
            "midi": 46,
            "name": "A#2",
            "ticks": 4200,
            "time": 28,
            "velocity": 0.9448818897637795
          },
          {
            "duration": 0.3333333333333286,
            "durationTicks": 50,
            "midi": 46,
            "name": "A#2",
            "ticks": 4225,
            "time": 28.16666666666667,
            "velocity": 0.9448818897637795
          },
          {
            "duration": 0.1600000000000037,
            "durationTicks": 24,
            "midi": 46,
            "name": "A#2",
            "ticks": 4275,
            "time": 28.5,
            "velocity": 0.9448818897637795
          },
          {
            "duration": 0.16666666666666075,
            "durationTicks": 25,
            "midi": 46,
            "name": "A#2",
            "ticks": 4300,
            "time": 28.66666666666667,
            "velocity": 0.9448818897637795
          },
          {
            "duration": 0.33333333333333925,
            "durationTicks": 50,
            "midi": 46,
            "name": "A#2",
            "ticks": 4325,
            "time": 28.833333333333332,
            "velocity": 0.9448818897637795
          },
          {
            "duration": 0.1599999999999966,
            "durationTicks": 24,
            "midi": 46,
            "name": "A#2",
            "ticks": 4375,
            "time": 29.16666666666667,
            "velocity": 0.9448818897637795
          },
          {
            "duration": 0.16666666666666785,
            "durationTicks": 25,
            "midi": 46,
            "name": "A#2",
            "ticks": 4400,
            "time": 29.333333333333332,
            "velocity": 0.9448818897637795
          },
          {
            "duration": 0.326666666666668,
            "durationTicks": 49,
            "midi": 44,
            "name": "G#2",
            "ticks": 4425,
            "time": 29.5,
            "velocity": 0.9448818897637795
          },
          {
            "duration": 0.16666666666666785,
            "durationTicks": 25,
            "midi": 44,
            "name": "G#2",
            "ticks": 4475,
            "time": 29.833333333333332,
            "velocity": 0.9448818897637795
          },
          {
            "duration": 0.1600000000000037,
            "durationTicks": 24,
            "midi": 44,
            "name": "G#2",
            "ticks": 4500,
            "time": 30,
            "velocity": 0.9448818897637795
          },
          {
            "duration": 0.3333333333333286,
            "durationTicks": 50,
            "midi": 44,
            "name": "G#2",
            "ticks": 4525,
            "time": 30.16666666666667,
            "velocity": 0.9448818897637795
          },
          {
            "duration": 0.1600000000000037,
            "durationTicks": 24,
            "midi": 44,
            "name": "G#2",
            "ticks": 4575,
            "time": 30.5,
            "velocity": 0.9448818897637795
          },
          {
            "duration": 0.16666666666666075,
            "durationTicks": 25,
            "midi": 44,
            "name": "G#2",
            "ticks": 4600,
            "time": 30.66666666666667,
            "velocity": 0.9448818897637795
          },
          {
            "duration": 0.32666666666667155,
            "durationTicks": 49,
            "midi": 44,
            "name": "G#2",
            "ticks": 4625,
            "time": 30.833333333333332,
            "velocity": 0.9448818897637795
          },
          {
            "duration": 0.16666666666666075,
            "durationTicks": 25,
            "midi": 44,
            "name": "G#2",
            "ticks": 4675,
            "time": 31.16666666666667,
            "velocity": 0.9448818897637795
          },
          {
            "duration": 0.16666666666666785,
            "durationTicks": 25,
            "midi": 44,
            "name": "G#2",
            "ticks": 4700,
            "time": 31.333333333333332,
            "velocity": 0.9448818897637795
          },
          {
            "duration": 0.326666666666668,
            "durationTicks": 49,
            "midi": 44,
            "name": "G#2",
            "ticks": 4725,
            "time": 31.5,
            "velocity": 0.9448818897637795
          },
          {
            "duration": 0.16666666666666785,
            "durationTicks": 25,
            "midi": 44,
            "name": "G#2",
            "ticks": 4775,
            "time": 31.833333333333332,
            "velocity": 0.9448818897637795
          },
          {
            "duration": 0.1666666666666714,
            "durationTicks": 25,
            "midi": 44,
            "name": "G#2",
            "ticks": 4800,
            "time": 32,
            "velocity": 0.9448818897637795
          },
          {
            "duration": 0.3333333333333286,
            "durationTicks": 50,
            "midi": 42,
            "name": "F#2",
            "ticks": 4825,
            "time": 32.16666666666667,
            "velocity": 0.9448818897637795
          },
          {
            "duration": 0.1600000000000037,
            "durationTicks": 24,
            "midi": 42,
            "name": "F#2",
            "ticks": 4875,
            "time": 32.5,
            "velocity": 0.9448818897637795
          },
          {
            "duration": 0.1666666666666643,
            "durationTicks": 25,
            "midi": 42,
            "name": "F#2",
            "ticks": 4900,
            "time": 32.66666666666667,
            "velocity": 0.9448818897637795
          },
          {
            "duration": 0.3333333333333357,
            "durationTicks": 50,
            "midi": 42,
            "name": "F#2",
            "ticks": 4925,
            "time": 32.833333333333336,
            "velocity": 0.9448818897637795
          },
          {
            "duration": 0.1599999999999966,
            "durationTicks": 24,
            "midi": 42,
            "name": "F#2",
            "ticks": 4975,
            "time": 33.16666666666667,
            "velocity": 0.9448818897637795
          },
          {
            "duration": 0.1666666666666643,
            "durationTicks": 25,
            "midi": 42,
            "name": "F#2",
            "ticks": 5000,
            "time": 33.333333333333336,
            "velocity": 0.9448818897637795
          },
          {
            "duration": 0.326666666666668,
            "durationTicks": 49,
            "midi": 42,
            "name": "F#2",
            "ticks": 5025,
            "time": 33.5,
            "velocity": 0.9448818897637795
          },
          {
            "duration": 0.1666666666666643,
            "durationTicks": 25,
            "midi": 42,
            "name": "F#2",
            "ticks": 5075,
            "time": 33.833333333333336,
            "velocity": 0.9448818897637795
          },
          {
            "duration": 0.1600000000000037,
            "durationTicks": 24,
            "midi": 42,
            "name": "F#2",
            "ticks": 5100,
            "time": 34,
            "velocity": 0.9448818897637795
          },
          {
            "duration": 0.3333333333333286,
            "durationTicks": 50,
            "midi": 42,
            "name": "F#2",
            "ticks": 5125,
            "time": 34.16666666666667,
            "velocity": 0.9448818897637795
          },
          {
            "duration": 0.1600000000000037,
            "durationTicks": 24,
            "midi": 42,
            "name": "F#2",
            "ticks": 5175,
            "time": 34.5,
            "velocity": 0.9448818897637795
          },
          {
            "duration": 0.1666666666666643,
            "durationTicks": 25,
            "midi": 42,
            "name": "F#2",
            "ticks": 5200,
            "time": 34.66666666666667,
            "velocity": 0.9448818897637795
          },
          {
            "duration": 0.326666666666668,
            "durationTicks": 49,
            "midi": 49,
            "name": "C#3",
            "ticks": 5225,
            "time": 34.833333333333336,
            "velocity": 0.9448818897637795
          },
          {
            "duration": 0.1666666666666643,
            "durationTicks": 25,
            "midi": 49,
            "name": "C#3",
            "ticks": 5275,
            "time": 35.16666666666667,
            "velocity": 0.9448818897637795
          },
          {
            "duration": 0.1666666666666643,
            "durationTicks": 25,
            "midi": 49,
            "name": "C#3",
            "ticks": 5300,
            "time": 35.333333333333336,
            "velocity": 0.9448818897637795
          },
          {
            "duration": 0.326666666666668,
            "durationTicks": 49,
            "midi": 49,
            "name": "C#3",
            "ticks": 5325,
            "time": 35.5,
            "velocity": 0.9448818897637795
          },
          {
            "duration": 0.1666666666666643,
            "durationTicks": 25,
            "midi": 49,
            "name": "C#3",
            "ticks": 5375,
            "time": 35.833333333333336,
            "velocity": 0.9448818897637795
          },
          {
            "duration": 0.1600000000000037,
            "durationTicks": 24,
            "midi": 49,
            "name": "C#3",
            "ticks": 5400,
            "time": 36,
            "velocity": 0.9448818897637795
          },
          {
            "duration": 0.3333333333333286,
            "durationTicks": 50,
            "midi": 49,
            "name": "C#3",
            "ticks": 5425,
            "time": 36.16666666666667,
            "velocity": 0.9448818897637795
          },
          {
            "duration": 0.1600000000000037,
            "durationTicks": 24,
            "midi": 49,
            "name": "C#3",
            "ticks": 5475,
            "time": 36.5,
            "velocity": 0.9448818897637795
          },
          {
            "duration": 0.1666666666666643,
            "durationTicks": 25,
            "midi": 49,
            "name": "C#3",
            "ticks": 5500,
            "time": 36.66666666666667,
            "velocity": 0.9448818897637795
          },
          {
            "duration": 0.3333333333333357,
            "durationTicks": 50,
            "midi": 49,
            "name": "C#3",
            "ticks": 5525,
            "time": 36.833333333333336,
            "velocity": 0.9448818897637795
          },
          {
            "duration": 0.1666666666666643,
            "durationTicks": 25,
            "midi": 49,
            "name": "C#3",
            "ticks": 5575,
            "time": 37.16666666666667,
            "velocity": 0.9448818897637795
          },
          {
            "duration": 0.1666666666666643,
            "durationTicks": 25,
            "midi": 49,
            "name": "C#3",
            "ticks": 5600,
            "time": 37.333333333333336,
            "velocity": 0.9448818897637795
          },
          {
            "duration": 0.326666666666668,
            "durationTicks": 49,
            "midi": 47,
            "name": "B2",
            "ticks": 5625,
            "time": 37.5,
            "velocity": 0.9448818897637795
          },
          {
            "duration": 0.1666666666666643,
            "durationTicks": 25,
            "midi": 47,
            "name": "B2",
            "ticks": 5675,
            "time": 37.833333333333336,
            "velocity": 0.9448818897637795
          },
          {
            "duration": 0.1600000000000037,
            "durationTicks": 24,
            "midi": 47,
            "name": "B2",
            "ticks": 5700,
            "time": 38,
            "velocity": 0.9448818897637795
          },
          {
            "duration": 0.3333333333333286,
            "durationTicks": 50,
            "midi": 47,
            "name": "B2",
            "ticks": 5725,
            "time": 38.16666666666667,
            "velocity": 0.9448818897637795
          },
          {
            "duration": 0.1600000000000037,
            "durationTicks": 24,
            "midi": 47,
            "name": "B2",
            "ticks": 5775,
            "time": 38.5,
            "velocity": 0.9448818897637795
          },
          {
            "duration": 0.1666666666666643,
            "durationTicks": 25,
            "midi": 47,
            "name": "B2",
            "ticks": 5800,
            "time": 38.66666666666667,
            "velocity": 0.9448818897637795
          },
          {
            "duration": 0.3333333333333357,
            "durationTicks": 50,
            "midi": 47,
            "name": "B2",
            "ticks": 5825,
            "time": 38.833333333333336,
            "velocity": 0.9448818897637795
          },
          {
            "duration": 0.1599999999999966,
            "durationTicks": 24,
            "midi": 47,
            "name": "B2",
            "ticks": 5875,
            "time": 39.16666666666667,
            "velocity": 0.9448818897637795
          },
          {
            "duration": 0.1666666666666643,
            "durationTicks": 25,
            "midi": 47,
            "name": "B2",
            "ticks": 5900,
            "time": 39.333333333333336,
            "velocity": 0.9448818897637795
          },
          {
            "duration": 0.326666666666668,
            "durationTicks": 49,
            "midi": 47,
            "name": "B2",
            "ticks": 5925,
            "time": 39.5,
            "velocity": 0.9448818897637795
          },
          {
            "duration": 0.1666666666666643,
            "durationTicks": 25,
            "midi": 47,
            "name": "B2",
            "ticks": 5975,
            "time": 39.833333333333336,
            "velocity": 0.9448818897637795
          },
          {
            "duration": 0.1600000000000037,
            "durationTicks": 24,
            "midi": 47,
            "name": "B2",
            "ticks": 6000,
            "time": 40,
            "velocity": 0.9448818897637795
          },
          {
            "duration": 0.3333333333333286,
            "durationTicks": 50,
            "midi": 46,
            "name": "A#2",
            "ticks": 6025,
            "time": 40.16666666666667,
            "velocity": 0.9448818897637795
          },
          {
            "duration": 0.1600000000000037,
            "durationTicks": 24,
            "midi": 46,
            "name": "A#2",
            "ticks": 6075,
            "time": 40.5,
            "velocity": 0.9448818897637795
          },
          {
            "duration": 0.1666666666666643,
            "durationTicks": 25,
            "midi": 46,
            "name": "A#2",
            "ticks": 6100,
            "time": 40.66666666666667,
            "velocity": 0.9448818897637795
          },
          {
            "duration": 0.3333333333333357,
            "durationTicks": 50,
            "midi": 46,
            "name": "A#2",
            "ticks": 6125,
            "time": 40.833333333333336,
            "velocity": 0.9448818897637795
          },
          {
            "duration": 0.1666666666666643,
            "durationTicks": 25,
            "midi": 46,
            "name": "A#2",
            "ticks": 6175,
            "time": 41.16666666666667,
            "velocity": 0.9448818897637795
          },
          {
            "duration": 0.1666666666666643,
            "durationTicks": 25,
            "midi": 46,
            "name": "A#2",
            "ticks": 6200,
            "time": 41.333333333333336,
            "velocity": 0.9448818897637795
          },
          {
            "duration": 0.326666666666668,
            "durationTicks": 49,
            "midi": 46,
            "name": "A#2",
            "ticks": 6225,
            "time": 41.5,
            "velocity": 0.9448818897637795
          },
          {
            "duration": 0.1666666666666643,
            "durationTicks": 25,
            "midi": 46,
            "name": "A#2",
            "ticks": 6275,
            "time": 41.833333333333336,
            "velocity": 0.9448818897637795
          },
          {
            "duration": 0.1600000000000037,
            "durationTicks": 24,
            "midi": 46,
            "name": "A#2",
            "ticks": 6300,
            "time": 42,
            "velocity": 0.9448818897637795
          },
          {
            "duration": 0.3333333333333286,
            "durationTicks": 50,
            "midi": 46,
            "name": "A#2",
            "ticks": 6325,
            "time": 42.16666666666667,
            "velocity": 0.9448818897637795
          },
          {
            "duration": 0.1600000000000037,
            "durationTicks": 24,
            "midi": 46,
            "name": "A#2",
            "ticks": 6375,
            "time": 42.5,
            "velocity": 0.9448818897637795
          },
          {
            "duration": 0.1666666666666643,
            "durationTicks": 25,
            "midi": 46,
            "name": "A#2",
            "ticks": 6400,
            "time": 42.66666666666667,
            "velocity": 0.9448818897637795
          },
          {
            "duration": 0.326666666666668,
            "durationTicks": 49,
            "midi": 48,
            "name": "C3",
            "ticks": 6425,
            "time": 42.833333333333336,
            "velocity": 0.9448818897637795
          },
          {
            "duration": 0.1666666666666643,
            "durationTicks": 25,
            "midi": 48,
            "name": "C3",
            "ticks": 6475,
            "time": 43.16666666666667,
            "velocity": 0.9448818897637795
          },
          {
            "duration": 0.1666666666666643,
            "durationTicks": 25,
            "midi": 48,
            "name": "C3",
            "ticks": 6500,
            "time": 43.333333333333336,
            "velocity": 0.9448818897637795
          },
          {
            "duration": 0.326666666666668,
            "durationTicks": 49,
            "midi": 48,
            "name": "C3",
            "ticks": 6525,
            "time": 43.5,
            "velocity": 0.9448818897637795
          },
          {
            "duration": 0.1666666666666643,
            "durationTicks": 25,
            "midi": 48,
            "name": "C3",
            "ticks": 6575,
            "time": 43.833333333333336,
            "velocity": 0.9448818897637795
          },
          {
            "duration": 0.1600000000000037,
            "durationTicks": 24,
            "midi": 48,
            "name": "C3",
            "ticks": 6600,
            "time": 44,
            "velocity": 0.9448818897637795
          },
          {
            "duration": 0.3333333333333286,
            "durationTicks": 50,
            "midi": 48,
            "name": "C3",
            "ticks": 6625,
            "time": 44.16666666666667,
            "velocity": 0.9448818897637795
          },
          {
            "duration": 0.1600000000000037,
            "durationTicks": 24,
            "midi": 48,
            "name": "C3",
            "ticks": 6675,
            "time": 44.5,
            "velocity": 0.9448818897637795
          },
          {
            "duration": 0.1666666666666643,
            "durationTicks": 25,
            "midi": 48,
            "name": "C3",
            "ticks": 6700,
            "time": 44.66666666666667,
            "velocity": 0.9448818897637795
          },
          {
            "duration": 0.3333333333333357,
            "durationTicks": 50,
            "midi": 48,
            "name": "C3",
            "ticks": 6725,
            "time": 44.833333333333336,
            "velocity": 0.9448818897637795
          },
          {
            "duration": 0.1599999999999966,
            "durationTicks": 24,
            "midi": 48,
            "name": "C3",
            "ticks": 6775,
            "time": 45.16666666666667,
            "velocity": 0.9448818897637795
          },
          {
            "duration": 0.1666666666666643,
            "durationTicks": 25,
            "midi": 48,
            "name": "C3",
            "ticks": 6800,
            "time": 45.333333333333336,
            "velocity": 0.9448818897637795
          },
          {
            "duration": 0.326666666666668,
            "durationTicks": 49,
            "midi": 53,
            "name": "F3",
            "ticks": 6825,
            "time": 45.5,
            "velocity": 0.9448818897637795
          },
          {
            "duration": 0.1666666666666643,
            "durationTicks": 25,
            "midi": 41,
            "name": "F2",
            "ticks": 6875,
            "time": 45.833333333333336,
            "velocity": 0.9448818897637795
          },
          {
            "duration": 0.1600000000000037,
            "durationTicks": 24,
            "midi": 41,
            "name": "F2",
            "ticks": 6900,
            "time": 46,
            "velocity": 0.9448818897637795
          },
          {
            "duration": 0.3333333333333286,
            "durationTicks": 50,
            "midi": 41,
            "name": "F2",
            "ticks": 6925,
            "time": 46.16666666666667,
            "velocity": 0.9448818897637795
          },
          {
            "duration": 0.1600000000000037,
            "durationTicks": 24,
            "midi": 41,
            "name": "F2",
            "ticks": 6975,
            "time": 46.5,
            "velocity": 0.9448818897637795
          },
          {
            "duration": 0.1666666666666643,
            "durationTicks": 25,
            "midi": 41,
            "name": "F2",
            "ticks": 7000,
            "time": 46.66666666666667,
            "velocity": 0.9448818897637795
          },
          {
            "duration": 0.3333333333333357,
            "durationTicks": 50,
            "midi": 41,
            "name": "F2",
            "ticks": 7025,
            "time": 46.833333333333336,
            "velocity": 0.9448818897637795
          },
          {
            "duration": 0.1666666666666643,
            "durationTicks": 25,
            "midi": 41,
            "name": "F2",
            "ticks": 7075,
            "time": 47.16666666666667,
            "velocity": 0.9448818897637795
          },
          {
            "duration": 0.1666666666666643,
            "durationTicks": 25,
            "midi": 41,
            "name": "F2",
            "ticks": 7100,
            "time": 47.333333333333336,
            "velocity": 0.9448818897637795
          },
          {
            "duration": 0.326666666666668,
            "durationTicks": 49,
            "midi": 41,
            "name": "F2",
            "ticks": 7125,
            "time": 47.5,
            "velocity": 0.9448818897637795
          },
          {
            "duration": 0.1666666666666643,
            "durationTicks": 25,
            "midi": 43,
            "name": "G2",
            "ticks": 7175,
            "time": 47.833333333333336,
            "velocity": 0.9448818897637795
          },
          {
            "duration": 0.1600000000000037,
            "durationTicks": 24,
            "midi": 45,
            "name": "A2",
            "ticks": 7200,
            "time": 48,
            "velocity": 0.9448818897637795
          },
          {
            "duration": 0.3333333333333286,
            "durationTicks": 50,
            "midi": 46,
            "name": "A#2",
            "ticks": 7225,
            "time": 48.16666666666667,
            "velocity": 0.9448818897637795
          },
          {
            "duration": 0.1600000000000037,
            "durationTicks": 24,
            "midi": 46,
            "name": "A#2",
            "ticks": 7275,
            "time": 48.5,
            "velocity": 0.9448818897637795
          },
          {
            "duration": 0.1666666666666643,
            "durationTicks": 25,
            "midi": 46,
            "name": "A#2",
            "ticks": 7300,
            "time": 48.66666666666667,
            "velocity": 0.9448818897637795
          },
          {
            "duration": 0.3333333333333357,
            "durationTicks": 50,
            "midi": 46,
            "name": "A#2",
            "ticks": 7325,
            "time": 48.833333333333336,
            "velocity": 0.9448818897637795
          },
          {
            "duration": 0.1666666666666643,
            "durationTicks": 25,
            "midi": 46,
            "name": "A#2",
            "ticks": 7375,
            "time": 49.16666666666667,
            "velocity": 0.9448818897637795
          },
          {
            "duration": 0.1666666666666643,
            "durationTicks": 25,
            "midi": 46,
            "name": "A#2",
            "ticks": 7400,
            "time": 49.333333333333336,
            "velocity": 0.9448818897637795
          },
          {
            "duration": 0.326666666666668,
            "durationTicks": 49,
            "midi": 46,
            "name": "A#2",
            "ticks": 7425,
            "time": 49.5,
            "velocity": 0.9448818897637795
          },
          {
            "duration": 0.1666666666666643,
            "durationTicks": 25,
            "midi": 46,
            "name": "A#2",
            "ticks": 7475,
            "time": 49.833333333333336,
            "velocity": 0.9448818897637795
          },
          {
            "duration": 0.1600000000000037,
            "durationTicks": 24,
            "midi": 46,
            "name": "A#2",
            "ticks": 7500,
            "time": 50,
            "velocity": 0.9448818897637795
          },
          {
            "duration": 0.3333333333333286,
            "durationTicks": 50,
            "midi": 46,
            "name": "A#2",
            "ticks": 7525,
            "time": 50.16666666666667,
            "velocity": 0.9448818897637795
          },
          {
            "duration": 0.1666666666666714,
            "durationTicks": 25,
            "midi": 46,
            "name": "A#2",
            "ticks": 7575,
            "time": 50.5,
            "velocity": 0.9448818897637795
          },
          {
            "duration": 0.1599999999999966,
            "durationTicks": 24,
            "midi": 46,
            "name": "A#2",
            "ticks": 7600,
            "time": 50.66666666666667,
            "velocity": 0.9448818897637795
          },
          {
            "duration": 0.3333333333333357,
            "durationTicks": 50,
            "midi": 44,
            "name": "G#2",
            "ticks": 7625,
            "time": 50.833333333333336,
            "velocity": 0.9448818897637795
          },
          {
            "duration": 0.1666666666666714,
            "durationTicks": 25,
            "midi": 44,
            "name": "G#2",
            "ticks": 7675,
            "time": 51.16666666666667,
            "velocity": 0.9448818897637795
          },
          {
            "duration": 0.1666666666666572,
            "durationTicks": 25,
            "midi": 44,
            "name": "G#2",
            "ticks": 7700,
            "time": 51.33333333333334,
            "velocity": 0.9448818897637795
          },
          {
            "duration": 0.326666666666668,
            "durationTicks": 49,
            "midi": 44,
            "name": "G#2",
            "ticks": 7725,
            "time": 51.5,
            "velocity": 0.9448818897637795
          },
          {
            "duration": 0.1666666666666572,
            "durationTicks": 25,
            "midi": 44,
            "name": "G#2",
            "ticks": 7775,
            "time": 51.83333333333334,
            "velocity": 0.9448818897637795
          },
          {
            "duration": 0.1600000000000037,
            "durationTicks": 24,
            "midi": 44,
            "name": "G#2",
            "ticks": 7800,
            "time": 52,
            "velocity": 0.9448818897637795
          },
          {
            "duration": 0.3333333333333357,
            "durationTicks": 50,
            "midi": 44,
            "name": "G#2",
            "ticks": 7825,
            "time": 52.166666666666664,
            "velocity": 0.9448818897637795
          },
          {
            "duration": 0.1600000000000037,
            "durationTicks": 24,
            "midi": 44,
            "name": "G#2",
            "ticks": 7875,
            "time": 52.5,
            "velocity": 0.9448818897637795
          },
          {
            "duration": 0.1666666666666785,
            "durationTicks": 25,
            "midi": 44,
            "name": "G#2",
            "ticks": 7900,
            "time": 52.666666666666664,
            "velocity": 0.9448818897637795
          },
          {
            "duration": 0.3333333333333215,
            "durationTicks": 50,
            "midi": 44,
            "name": "G#2",
            "ticks": 7925,
            "time": 52.83333333333334,
            "velocity": 0.9448818897637795
          },
          {
            "duration": 0.1666666666666785,
            "durationTicks": 25,
            "midi": 44,
            "name": "G#2",
            "ticks": 7975,
            "time": 53.166666666666664,
            "velocity": 0.9448818897637795
          },
          {
            "duration": 0.1666666666666572,
            "durationTicks": 25,
            "midi": 44,
            "name": "G#2",
            "ticks": 8000,
            "time": 53.33333333333334,
            "velocity": 0.9448818897637795
          },
          {
            "duration": 0.326666666666668,
            "durationTicks": 49,
            "midi": 42,
            "name": "F#2",
            "ticks": 8025,
            "time": 53.5,
            "velocity": 0.9448818897637795
          },
          {
            "duration": 0.1666666666666572,
            "durationTicks": 25,
            "midi": 42,
            "name": "F#2",
            "ticks": 8075,
            "time": 53.83333333333334,
            "velocity": 0.9448818897637795
          },
          {
            "duration": 0.1600000000000037,
            "durationTicks": 24,
            "midi": 42,
            "name": "F#2",
            "ticks": 8100,
            "time": 54,
            "velocity": 0.9448818897637795
          },
          {
            "duration": 0.3333333333333357,
            "durationTicks": 50,
            "midi": 42,
            "name": "F#2",
            "ticks": 8125,
            "time": 54.166666666666664,
            "velocity": 0.9448818897637795
          },
          {
            "duration": 0.1600000000000037,
            "durationTicks": 24,
            "midi": 42,
            "name": "F#2",
            "ticks": 8175,
            "time": 54.5,
            "velocity": 0.9448818897637795
          },
          {
            "duration": 0.1666666666666785,
            "durationTicks": 25,
            "midi": 42,
            "name": "F#2",
            "ticks": 8200,
            "time": 54.666666666666664,
            "velocity": 0.9448818897637795
          },
          {
            "duration": 0.3333333333333215,
            "durationTicks": 50,
            "midi": 42,
            "name": "F#2",
            "ticks": 8225,
            "time": 54.83333333333334,
            "velocity": 0.9448818897637795
          },
          {
            "duration": 0.1666666666666785,
            "durationTicks": 25,
            "midi": 42,
            "name": "F#2",
            "ticks": 8275,
            "time": 55.166666666666664,
            "velocity": 0.9448818897637795
          },
          {
            "duration": 0.1666666666666572,
            "durationTicks": 25,
            "midi": 42,
            "name": "F#2",
            "ticks": 8300,
            "time": 55.33333333333334,
            "velocity": 0.9448818897637795
          },
          {
            "duration": 0.326666666666668,
            "durationTicks": 49,
            "midi": 42,
            "name": "F#2",
            "ticks": 8325,
            "time": 55.5,
            "velocity": 0.9448818897637795
          },
          {
            "duration": 0.1666666666666572,
            "durationTicks": 25,
            "midi": 42,
            "name": "F#2",
            "ticks": 8375,
            "time": 55.83333333333334,
            "velocity": 0.9448818897637795
          },
          {
            "duration": 0.1600000000000037,
            "durationTicks": 24,
            "midi": 42,
            "name": "F#2",
            "ticks": 8400,
            "time": 56,
            "velocity": 0.9448818897637795
          },
          {
            "duration": 0.3333333333333357,
            "durationTicks": 50,
            "midi": 41,
            "name": "F2",
            "ticks": 8425,
            "time": 56.166666666666664,
            "velocity": 0.9448818897637795
          },
          {
            "duration": 0.1600000000000037,
            "durationTicks": 24,
            "midi": 41,
            "name": "F2",
            "ticks": 8475,
            "time": 56.5,
            "velocity": 0.9448818897637795
          },
          {
            "duration": 0.1666666666666785,
            "durationTicks": 25,
            "midi": 41,
            "name": "F2",
            "ticks": 8500,
            "time": 56.666666666666664,
            "velocity": 0.9448818897637795
          },
          {
            "duration": 0.3333333333333215,
            "durationTicks": 50,
            "midi": 41,
            "name": "F2",
            "ticks": 8525,
            "time": 56.83333333333334,
            "velocity": 0.9448818897637795
          },
          {
            "duration": 0.1666666666666785,
            "durationTicks": 25,
            "midi": 41,
            "name": "F2",
            "ticks": 8575,
            "time": 57.166666666666664,
            "velocity": 0.9448818897637795
          },
          {
            "duration": 0.1666666666666572,
            "durationTicks": 25,
            "midi": 41,
            "name": "F2",
            "ticks": 8600,
            "time": 57.33333333333334,
            "velocity": 0.9448818897637795
          },
          {
            "duration": 0.326666666666668,
            "durationTicks": 49,
            "midi": 41,
            "name": "F2",
            "ticks": 8625,
            "time": 57.5,
            "velocity": 0.9448818897637795
          },
          {
            "duration": 0.1666666666666572,
            "durationTicks": 25,
            "midi": 41,
            "name": "F2",
            "ticks": 8675,
            "time": 57.83333333333334,
            "velocity": 0.9448818897637795
          },
          {
            "duration": 0.1600000000000037,
            "durationTicks": 24,
            "midi": 41,
            "name": "F2",
            "ticks": 8700,
            "time": 58,
            "velocity": 0.9448818897637795
          },
          {
            "duration": 0.3333333333333357,
            "durationTicks": 50,
            "midi": 41,
            "name": "F2",
            "ticks": 8725,
            "time": 58.166666666666664,
            "velocity": 0.9448818897637795
          },
          {
            "duration": 0.1600000000000037,
            "durationTicks": 24,
            "midi": 41,
            "name": "F2",
            "ticks": 8775,
            "time": 58.5,
            "velocity": 0.9448818897637795
          },
          {
            "duration": 0.1666666666666785,
            "durationTicks": 25,
            "midi": 41,
            "name": "F2",
            "ticks": 8800,
            "time": 58.666666666666664,
            "velocity": 0.9448818897637795
          },
          {
            "duration": 0.3333333333333215,
            "durationTicks": 50,
            "midi": 40,
            "name": "E2",
            "ticks": 8825,
            "time": 58.83333333333334,
            "velocity": 0.9448818897637795
          },
          {
            "duration": 0.1666666666666785,
            "durationTicks": 25,
            "midi": 40,
            "name": "E2",
            "ticks": 8875,
            "time": 59.166666666666664,
            "velocity": 0.9448818897637795
          },
          {
            "duration": 0.1666666666666572,
            "durationTicks": 25,
            "midi": 40,
            "name": "E2",
            "ticks": 8900,
            "time": 59.33333333333334,
            "velocity": 0.9448818897637795
          },
          {
            "duration": 0.326666666666668,
            "durationTicks": 49,
            "midi": 40,
            "name": "E2",
            "ticks": 8925,
            "time": 59.5,
            "velocity": 0.9448818897637795
          },
          {
            "duration": 0.1666666666666572,
            "durationTicks": 25,
            "midi": 40,
            "name": "E2",
            "ticks": 8975,
            "time": 59.83333333333334,
            "velocity": 0.9448818897637795
          },
          {
            "duration": 0.1600000000000037,
            "durationTicks": 24,
            "midi": 40,
            "name": "E2",
            "ticks": 9000,
            "time": 60,
            "velocity": 0.9448818897637795
          },
          {
            "duration": 0.3333333333333357,
            "durationTicks": 50,
            "midi": 40,
            "name": "E2",
            "ticks": 9025,
            "time": 60.166666666666664,
            "velocity": 0.9448818897637795
          },
          {
            "duration": 0.1600000000000037,
            "durationTicks": 24,
            "midi": 40,
            "name": "E2",
            "ticks": 9075,
            "time": 60.5,
            "velocity": 0.9448818897637795
          },
          {
            "duration": 0.1666666666666785,
            "durationTicks": 25,
            "midi": 40,
            "name": "E2",
            "ticks": 9100,
            "time": 60.666666666666664,
            "velocity": 0.9448818897637795
          },
          {
            "duration": 0.3333333333333215,
            "durationTicks": 50,
            "midi": 40,
            "name": "E2",
            "ticks": 9125,
            "time": 60.83333333333334,
            "velocity": 0.9448818897637795
          },
          {
            "duration": 0.1666666666666785,
            "durationTicks": 25,
            "midi": 40,
            "name": "E2",
            "ticks": 9175,
            "time": 61.166666666666664,
            "velocity": 0.9448818897637795
          },
          {
            "duration": 0.1666666666666572,
            "durationTicks": 25,
            "midi": 40,
            "name": "E2",
            "ticks": 9200,
            "time": 61.33333333333334,
            "velocity": 0.9448818897637795
          },
          {
            "duration": 0.326666666666668,
            "durationTicks": 49,
            "midi": 41,
            "name": "F2",
            "ticks": 9225,
            "time": 61.5,
            "velocity": 0.9448818897637795
          },
          {
            "duration": 0.1666666666666572,
            "durationTicks": 25,
            "midi": 41,
            "name": "F2",
            "ticks": 9275,
            "time": 61.83333333333334,
            "velocity": 0.9448818897637795
          },
          {
            "duration": 0.1600000000000037,
            "durationTicks": 24,
            "midi": 41,
            "name": "F2",
            "ticks": 9300,
            "time": 62,
            "velocity": 0.9448818897637795
          },
          {
            "duration": 0.3333333333333357,
            "durationTicks": 50,
            "midi": 41,
            "name": "F2",
            "ticks": 9325,
            "time": 62.166666666666664,
            "velocity": 0.9448818897637795
          },
          {
            "duration": 0.1600000000000037,
            "durationTicks": 24,
            "midi": 41,
            "name": "F2",
            "ticks": 9375,
            "time": 62.5,
            "velocity": 0.9448818897637795
          },
          {
            "duration": 0.1666666666666785,
            "durationTicks": 25,
            "midi": 41,
            "name": "F2",
            "ticks": 9400,
            "time": 62.666666666666664,
            "velocity": 0.9448818897637795
          },
          {
            "duration": 0.3266666666666609,
            "durationTicks": 49,
            "midi": 41,
            "name": "F2",
            "ticks": 9425,
            "time": 62.83333333333334,
            "velocity": 0.9448818897637795
          },
          {
            "duration": 0.1666666666666785,
            "durationTicks": 25,
            "midi": 41,
            "name": "F2",
            "ticks": 9475,
            "time": 63.166666666666664,
            "velocity": 0.9448818897637795
          },
          {
            "duration": 0.1666666666666572,
            "durationTicks": 25,
            "midi": 41,
            "name": "F2",
            "ticks": 9500,
            "time": 63.33333333333334,
            "velocity": 0.9448818897637795
          },
          {
            "duration": 0.326666666666668,
            "durationTicks": 49,
            "midi": 41,
            "name": "F2",
            "ticks": 9525,
            "time": 63.5,
            "velocity": 0.9448818897637795
          },
          {
            "duration": 0.1666666666666572,
            "durationTicks": 25,
            "midi": 41,
            "name": "F2",
            "ticks": 9575,
            "time": 63.83333333333334,
            "velocity": 0.9448818897637795
          },
          {
            "duration": 0.1600000000000108,
            "durationTicks": 24,
            "midi": 41,
            "name": "F2",
            "ticks": 9600,
            "time": 64,
            "velocity": 0.9448818897637795
          },
          {
            "duration": 0.3333333333333286,
            "durationTicks": 50,
            "midi": 40,
            "name": "E2",
            "ticks": 9625,
            "time": 64.16666666666667,
            "velocity": 0.9448818897637795
          },
          {
            "duration": 0.1600000000000108,
            "durationTicks": 24,
            "midi": 40,
            "name": "E2",
            "ticks": 9675,
            "time": 64.5,
            "velocity": 0.9448818897637795
          },
          {
            "duration": 0.1599999999999966,
            "durationTicks": 24,
            "midi": 40,
            "name": "E2",
            "ticks": 9700,
            "time": 64.66666666666667,
            "velocity": 0.9448818897637795
          },
          {
            "duration": 0.326666666666668,
            "durationTicks": 49,
            "midi": 40,
            "name": "E2",
            "ticks": 9725,
            "time": 64.83333333333334,
            "velocity": 0.9448818897637795
          },
          {
            "duration": 0.1666666666666714,
            "durationTicks": 25,
            "midi": 40,
            "name": "E2",
            "ticks": 9775,
            "time": 65.16666666666667,
            "velocity": 0.9448818897637795
          },
          {
            "duration": 0.1666666666666572,
            "durationTicks": 25,
            "midi": 40,
            "name": "E2",
            "ticks": 9800,
            "time": 65.33333333333334,
            "velocity": 0.9448818897637795
          },
          {
            "duration": 0.326666666666668,
            "durationTicks": 49,
            "midi": 40,
            "name": "E2",
            "ticks": 9825,
            "time": 65.5,
            "velocity": 0.9448818897637795
          },
          {
            "duration": 0.1666666666666572,
            "durationTicks": 25,
            "midi": 40,
            "name": "E2",
            "ticks": 9875,
            "time": 65.83333333333334,
            "velocity": 0.9448818897637795
          },
          {
            "duration": 0.1600000000000108,
            "durationTicks": 24,
            "midi": 40,
            "name": "E2",
            "ticks": 9900,
            "time": 66,
            "velocity": 0.9448818897637795
          },
          {
            "duration": 0.3333333333333286,
            "durationTicks": 50,
            "midi": 40,
            "name": "E2",
            "ticks": 9925,
            "time": 66.16666666666667,
            "velocity": 0.9448818897637795
          },
          {
            "duration": 0.1600000000000108,
            "durationTicks": 24,
            "midi": 40,
            "name": "E2",
            "ticks": 9975,
            "time": 66.5,
            "velocity": 0.9448818897637795
          },
          {
            "duration": 0.1666666666666714,
            "durationTicks": 25,
            "midi": 40,
            "name": "E2",
            "ticks": 10000,
            "time": 66.66666666666667,
            "velocity": 0.9448818897637795
          },
          {
            "duration": 0.326666666666668,
            "durationTicks": 49,
            "midi": 41,
            "name": "F2",
            "ticks": 10025,
            "time": 66.83333333333334,
            "velocity": 0.9448818897637795
          },
          {
            "duration": 0.1666666666666714,
            "durationTicks": 25,
            "midi": 41,
            "name": "F2",
            "ticks": 10075,
            "time": 67.16666666666667,
            "velocity": 0.9448818897637795
          },
          {
            "duration": 0.1666666666666572,
            "durationTicks": 25,
            "midi": 41,
            "name": "F2",
            "ticks": 10100,
            "time": 67.33333333333334,
            "velocity": 0.9448818897637795
          },
          {
            "duration": 0.326666666666668,
            "durationTicks": 49,
            "midi": 41,
            "name": "F2",
            "ticks": 10125,
            "time": 67.5,
            "velocity": 0.9448818897637795
          },
          {
            "duration": 0.1666666666666572,
            "durationTicks": 25,
            "midi": 41,
            "name": "F2",
            "ticks": 10175,
            "time": 67.83333333333334,
            "velocity": 0.9448818897637795
          },
          {
            "duration": 0.1600000000000108,
            "durationTicks": 24,
            "midi": 41,
            "name": "F2",
            "ticks": 10200,
            "time": 68,
            "velocity": 0.9448818897637795
          },
          {
            "duration": 0.3333333333333286,
            "durationTicks": 50,
            "midi": 41,
            "name": "F2",
            "ticks": 10225,
            "time": 68.16666666666667,
            "velocity": 0.9448818897637795
          },
          {
            "duration": 0.1600000000000108,
            "durationTicks": 24,
            "midi": 41,
            "name": "F2",
            "ticks": 10275,
            "time": 68.5,
            "velocity": 0.9448818897637795
          },
          {
            "duration": 0.1666666666666714,
            "durationTicks": 25,
            "midi": 41,
            "name": "F2",
            "ticks": 10300,
            "time": 68.66666666666667,
            "velocity": 0.9448818897637795
          },
          {
            "duration": 0.326666666666668,
            "durationTicks": 49,
            "midi": 41,
            "name": "F2",
            "ticks": 10325,
            "time": 68.83333333333334,
            "velocity": 0.9448818897637795
          },
          {
            "duration": 0.1666666666666714,
            "durationTicks": 25,
            "midi": 41,
            "name": "F2",
            "ticks": 10375,
            "time": 69.16666666666667,
            "velocity": 0.9448818897637795
          },
          {
            "duration": 0.1666666666666572,
            "durationTicks": 25,
            "midi": 41,
            "name": "F2",
            "ticks": 10400,
            "time": 69.33333333333334,
            "velocity": 0.9448818897637795
          },
          {
            "duration": 0.326666666666668,
            "durationTicks": 49,
            "midi": 47,
            "name": "B2",
            "ticks": 10425,
            "time": 69.5,
            "velocity": 0.9448818897637795
          },
          {
            "duration": 0.1666666666666572,
            "durationTicks": 25,
            "midi": 47,
            "name": "B2",
            "ticks": 10475,
            "time": 69.83333333333334,
            "velocity": 0.9448818897637795
          },
          {
            "duration": 0.1600000000000108,
            "durationTicks": 24,
            "midi": 47,
            "name": "B2",
            "ticks": 10500,
            "time": 70,
            "velocity": 0.9448818897637795
          },
          {
            "duration": 0.3333333333333286,
            "durationTicks": 50,
            "midi": 47,
            "name": "B2",
            "ticks": 10525,
            "time": 70.16666666666667,
            "velocity": 0.9448818897637795
          },
          {
            "duration": 0.1600000000000108,
            "durationTicks": 24,
            "midi": 47,
            "name": "B2",
            "ticks": 10575,
            "time": 70.5,
            "velocity": 0.9448818897637795
          },
          {
            "duration": 0.1666666666666714,
            "durationTicks": 25,
            "midi": 47,
            "name": "B2",
            "ticks": 10600,
            "time": 70.66666666666667,
            "velocity": 0.9448818897637795
          },
          {
            "duration": 0.3333333333333286,
            "durationTicks": 50,
            "midi": 47,
            "name": "B2",
            "ticks": 10625,
            "time": 70.83333333333334,
            "velocity": 0.9448818897637795
          },
          {
            "duration": 0.1666666666666714,
            "durationTicks": 25,
            "midi": 47,
            "name": "B2",
            "ticks": 10675,
            "time": 71.16666666666667,
            "velocity": 0.9448818897637795
          },
          {
            "duration": 0.1666666666666572,
            "durationTicks": 25,
            "midi": 47,
            "name": "B2",
            "ticks": 10700,
            "time": 71.33333333333334,
            "velocity": 0.9448818897637795
          },
          {
            "duration": 0.326666666666668,
            "durationTicks": 49,
            "midi": 47,
            "name": "B2",
            "ticks": 10725,
            "time": 71.5,
            "velocity": 0.9448818897637795
          },
          {
            "duration": 0.1666666666666572,
            "durationTicks": 25,
            "midi": 47,
            "name": "B2",
            "ticks": 10775,
            "time": 71.83333333333334,
            "velocity": 0.9448818897637795
          },
          {
            "duration": 0.1666666666666714,
            "durationTicks": 25,
            "midi": 47,
            "name": "B2",
            "ticks": 10800,
            "time": 72,
            "velocity": 0.9448818897637795
          },
          {
            "duration": 0.3333333333333286,
            "durationTicks": 50,
            "midi": 46,
            "name": "A#2",
            "ticks": 10825,
            "time": 72.16666666666667,
            "velocity": 0.9448818897637795
          },
          {
            "duration": 0.1600000000000108,
            "durationTicks": 24,
            "midi": 46,
            "name": "A#2",
            "ticks": 10875,
            "time": 72.5,
            "velocity": 0.9448818897637795
          },
          {
            "duration": 0.1666666666666714,
            "durationTicks": 25,
            "midi": 46,
            "name": "A#2",
            "ticks": 10900,
            "time": 72.66666666666667,
            "velocity": 0.9448818897637795
          },
          {
            "duration": 0.326666666666668,
            "durationTicks": 49,
            "midi": 46,
            "name": "A#2",
            "ticks": 10925,
            "time": 72.83333333333334,
            "velocity": 0.9448818897637795
          },
          {
            "duration": 0.1666666666666714,
            "durationTicks": 25,
            "midi": 46,
            "name": "A#2",
            "ticks": 10975,
            "time": 73.16666666666667,
            "velocity": 0.9448818897637795
          },
          {
            "duration": 0.1666666666666572,
            "durationTicks": 25,
            "midi": 46,
            "name": "A#2",
            "ticks": 11000,
            "time": 73.33333333333334,
            "velocity": 0.9448818897637795
          },
          {
            "duration": 0.326666666666668,
            "durationTicks": 49,
            "midi": 46,
            "name": "A#2",
            "ticks": 11025,
            "time": 73.5,
            "velocity": 0.9448818897637795
          },
          {
            "duration": 0.1666666666666572,
            "durationTicks": 25,
            "midi": 46,
            "name": "A#2",
            "ticks": 11075,
            "time": 73.83333333333334,
            "velocity": 0.9448818897637795
          },
          {
            "duration": 0.1666666666666714,
            "durationTicks": 25,
            "midi": 46,
            "name": "A#2",
            "ticks": 11100,
            "time": 74,
            "velocity": 0.9448818897637795
          },
          {
            "duration": 0.3333333333333286,
            "durationTicks": 50,
            "midi": 46,
            "name": "A#2",
            "ticks": 11125,
            "time": 74.16666666666667,
            "velocity": 0.9448818897637795
          },
          {
            "duration": 0.1600000000000108,
            "durationTicks": 24,
            "midi": 46,
            "name": "A#2",
            "ticks": 11175,
            "time": 74.5,
            "velocity": 0.9448818897637795
          },
          {
            "duration": 0.1666666666666714,
            "durationTicks": 25,
            "midi": 46,
            "name": "A#2",
            "ticks": 11200,
            "time": 74.66666666666667,
            "velocity": 0.9448818897637795
          },
          {
            "duration": 0.326666666666668,
            "durationTicks": 49,
            "midi": 48,
            "name": "C3",
            "ticks": 11225,
            "time": 74.83333333333334,
            "velocity": 0.9448818897637795
          },
          {
            "duration": 0.1666666666666714,
            "durationTicks": 25,
            "midi": 48,
            "name": "C3",
            "ticks": 11275,
            "time": 75.16666666666667,
            "velocity": 0.9448818897637795
          },
          {
            "duration": 0.1666666666666572,
            "durationTicks": 25,
            "midi": 48,
            "name": "C3",
            "ticks": 11300,
            "time": 75.33333333333334,
            "velocity": 0.9448818897637795
          },
          {
            "duration": 0.326666666666668,
            "durationTicks": 49,
            "midi": 48,
            "name": "C3",
            "ticks": 11325,
            "time": 75.5,
            "velocity": 0.9448818897637795
          },
          {
            "duration": 0.1666666666666572,
            "durationTicks": 25,
            "midi": 48,
            "name": "C3",
            "ticks": 11375,
            "time": 75.83333333333334,
            "velocity": 0.9448818897637795
          },
          {
            "duration": 0.1600000000000108,
            "durationTicks": 24,
            "midi": 48,
            "name": "C3",
            "ticks": 11400,
            "time": 76,
            "velocity": 0.9448818897637795
          },
          {
            "duration": 0.3333333333333286,
            "durationTicks": 50,
            "midi": 48,
            "name": "C3",
            "ticks": 11425,
            "time": 76.16666666666667,
            "velocity": 0.9448818897637795
          },
          {
            "duration": 0.1600000000000108,
            "durationTicks": 24,
            "midi": 48,
            "name": "C3",
            "ticks": 11475,
            "time": 76.5,
            "velocity": 0.9448818897637795
          },
          {
            "duration": 0.1666666666666714,
            "durationTicks": 25,
            "midi": 48,
            "name": "C3",
            "ticks": 11500,
            "time": 76.66666666666667,
            "velocity": 0.9448818897637795
          },
          {
            "duration": 0.326666666666668,
            "durationTicks": 49,
            "midi": 48,
            "name": "C3",
            "ticks": 11525,
            "time": 76.83333333333334,
            "velocity": 0.9448818897637795
          },
          {
            "duration": 0.1666666666666714,
            "durationTicks": 25,
            "midi": 48,
            "name": "C3",
            "ticks": 11575,
            "time": 77.16666666666667,
            "velocity": 0.9448818897637795
          },
          {
            "duration": 0.1666666666666572,
            "durationTicks": 25,
            "midi": 48,
            "name": "C3",
            "ticks": 11600,
            "time": 77.33333333333334,
            "velocity": 0.9448818897637795
          },
          {
            "duration": 0.326666666666668,
            "durationTicks": 49,
            "midi": 53,
            "name": "F3",
            "ticks": 11625,
            "time": 77.5,
            "velocity": 0.9448818897637795
          },
          {
            "duration": 0.1666666666666572,
            "durationTicks": 25,
            "midi": 41,
            "name": "F2",
            "ticks": 11675,
            "time": 77.83333333333334,
            "velocity": 0.9448818897637795
          },
          {
            "duration": 0.1600000000000108,
            "durationTicks": 24,
            "midi": 41,
            "name": "F2",
            "ticks": 11700,
            "time": 78,
            "velocity": 0.9448818897637795
          },
          {
            "duration": 0.3333333333333286,
            "durationTicks": 50,
            "midi": 41,
            "name": "F2",
            "ticks": 11725,
            "time": 78.16666666666667,
            "velocity": 0.9448818897637795
          },
          {
            "duration": 0.1600000000000108,
            "durationTicks": 24,
            "midi": 41,
            "name": "F2",
            "ticks": 11775,
            "time": 78.5,
            "velocity": 0.9448818897637795
          },
          {
            "duration": 0.1666666666666714,
            "durationTicks": 25,
            "midi": 41,
            "name": "F2",
            "ticks": 11800,
            "time": 78.66666666666667,
            "velocity": 0.9448818897637795
          },
          {
            "duration": 0.3333333333333286,
            "durationTicks": 50,
            "midi": 41,
            "name": "F2",
            "ticks": 11825,
            "time": 78.83333333333334,
            "velocity": 0.9448818897637795
          },
          {
            "duration": 0.1599999999999966,
            "durationTicks": 24,
            "midi": 41,
            "name": "F2",
            "ticks": 11875,
            "time": 79.16666666666667,
            "velocity": 0.9448818897637795
          },
          {
            "duration": 0.1666666666666572,
            "durationTicks": 25,
            "midi": 41,
            "name": "F2",
            "ticks": 11900,
            "time": 79.33333333333334,
            "velocity": 0.9448818897637795
          },
          {
            "duration": 0.326666666666668,
            "durationTicks": 49,
            "midi": 41,
            "name": "F2",
            "ticks": 11925,
            "time": 79.5,
            "velocity": 0.9448818897637795
          },
          {
            "duration": 0.1666666666666572,
            "durationTicks": 25,
            "midi": 43,
            "name": "G2",
            "ticks": 11975,
            "time": 79.83333333333334,
            "velocity": 0.9448818897637795
          },
          {
            "duration": 0.19333333333332803,
            "durationTicks": 29,
            "midi": 45,
            "name": "A2",
            "ticks": 12000,
            "time": 80,
            "velocity": 0.9448818897637795
          }
        ],
        "endOfTrackTicks": 12035
      },
      {
        "channel": 4,
        "controlChanges": {
          "7": [
            {
              "number": 7,
              "ticks": 0,
              "time": 0,
              "value": 0.7874015748031497
            }
          ]
        },
        "pitchBends": [],
        "instrument": {
          "family": "reed",
          "number": 66,
          "name": "tenor sax"
        },
        "name": "Obtained from http://www.dragonfire.net/~TSSF",
        "notes": [
          {
            "duration": 1.6600000000000004,
            "durationTicks": 249,
            "midi": 70,
            "name": "A#4",
            "ticks": 30,
            "time": 0.2,
            "velocity": 0.9448818897637795
          },
          {
            "duration": 0.33333333333333326,
            "durationTicks": 50,
            "midi": 65,
            "name": "F4",
            "ticks": 280,
            "time": 1.866666666666667,
            "velocity": 0.9448818897637795
          },
          {
            "duration": 0.33333333333333304,
            "durationTicks": 50,
            "midi": 65,
            "name": "F4",
            "ticks": 330,
            "time": 2.2,
            "velocity": 0.9448818897637795
          },
          {
            "duration": 0.3333333333333339,
            "durationTicks": 50,
            "midi": 70,
            "name": "A#4",
            "ticks": 380,
            "time": 2.533333333333333,
            "velocity": 0.9448818897637795
          },
          {
            "duration": 0.16666666666666607,
            "durationTicks": 25,
            "midi": 68,
            "name": "G#4",
            "ticks": 430,
            "time": 2.866666666666667,
            "velocity": 0.9448818897637795
          },
          {
            "duration": 0.16666666666666696,
            "durationTicks": 25,
            "midi": 66,
            "name": "F#4",
            "ticks": 455,
            "time": 3.033333333333333,
            "velocity": 0.9448818897637795
          },
          {
            "duration": 2.326666666666667,
            "durationTicks": 349,
            "midi": 68,
            "name": "G#4",
            "ticks": 480,
            "time": 3.2,
            "velocity": 0.9448818897637795
          },
          {
            "duration": 1.666666666666666,
            "durationTicks": 250,
            "midi": 70,
            "name": "A#4",
            "ticks": 830,
            "time": 5.533333333333334,
            "velocity": 0.9448818897637795
          },
          {
            "duration": 0.3266666666666671,
            "durationTicks": 49,
            "midi": 66,
            "name": "F#4",
            "ticks": 1080,
            "time": 7.2,
            "velocity": 0.9448818897637795
          },
          {
            "duration": 0.3333333333333339,
            "durationTicks": 50,
            "midi": 66,
            "name": "F#4",
            "ticks": 1130,
            "time": 7.533333333333333,
            "velocity": 0.9448818897637795
          },
          {
            "duration": 0.3333333333333339,
            "durationTicks": 50,
            "midi": 70,
            "name": "A#4",
            "ticks": 1180,
            "time": 7.866666666666667,
            "velocity": 0.9448818897637795
          },
          {
            "duration": 0.16666666666666607,
            "durationTicks": 25,
            "midi": 69,
            "name": "A4",
            "ticks": 1230,
            "time": 8.200000000000001,
            "velocity": 0.9448818897637795
          },
          {
            "duration": 0.16000000000000014,
            "durationTicks": 24,
            "midi": 67,
            "name": "G4",
            "ticks": 1255,
            "time": 8.366666666666667,
            "velocity": 0.9448818897637795
          },
          {
            "duration": 2.24,
            "durationTicks": 336,
            "midi": 69,
            "name": "A4",
            "ticks": 1280,
            "time": 8.533333333333333,
            "velocity": 0.9448818897637795
          },
          {
            "duration": 0.3333333333333339,
            "durationTicks": 50,
            "midi": 53,
            "name": "F3",
            "ticks": 1617,
            "time": 10.780000000000001,
            "velocity": 0.9448818897637795
          }
        ],
        "endOfTrackTicks": 1667
      },
      {
        "channel": 5,
        "controlChanges": {
          "7": [
            {
              "number": 7,
              "ticks": 0,
              "time": 0,
              "value": 0.7874015748031497
            }
          ]
        },
        "pitchBends": [],
        "instrument": {
          "family": "reed",
          "number": 66,
          "name": "tenor sax"
        },
        "name": "UOLoZHP - http://www.firstnethou.com/schmal/Zelda",
        "notes": [
          {
            "duration": 1.7066666666666668,
            "durationTicks": 256,
            "midi": 70,
            "name": "A#4",
            "ticks": 10,
            "time": 0.06666666666666667,
            "velocity": 0.9448818897637795
          },
          {
            "duration": 0.33333333333333304,
            "durationTicks": 50,
            "midi": 65,
            "name": "F4",
            "ticks": 267,
            "time": 1.7800000000000002,
            "velocity": 0.9448818897637795
          },
          {
            "duration": 0.3333333333333335,
            "durationTicks": 50,
            "midi": 65,
            "name": "F4",
            "ticks": 317,
            "time": 2.1133333333333333,
            "velocity": 0.9448818897637795
          },
          {
            "duration": 0.32666666666666666,
            "durationTicks": 49,
            "midi": 70,
            "name": "A#4",
            "ticks": 367,
            "time": 2.4466666666666668,
            "velocity": 0.9448818897637795
          },
          {
            "duration": 0.16666666666666652,
            "durationTicks": 25,
            "midi": 68,
            "name": "G#4",
            "ticks": 417,
            "time": 2.7800000000000002,
            "velocity": 0.9448818897637795
          },
          {
            "duration": 0.16666666666666652,
            "durationTicks": 25,
            "midi": 66,
            "name": "F#4",
            "ticks": 442,
            "time": 2.9466666666666668,
            "velocity": 0.9448818897637795
          },
          {
            "duration": 2.333333333333334,
            "durationTicks": 350,
            "midi": 68,
            "name": "G#4",
            "ticks": 467,
            "time": 3.1133333333333333,
            "velocity": 0.9448818897637795
          },
          {
            "duration": 1.6599999999999993,
            "durationTicks": 249,
            "midi": 70,
            "name": "A#4",
            "ticks": 817,
            "time": 5.446666666666667,
            "velocity": 0.9448818897637795
          },
          {
            "duration": 0.33333333333333304,
            "durationTicks": 50,
            "midi": 66,
            "name": "F#4",
            "ticks": 1067,
            "time": 7.113333333333334,
            "velocity": 0.9448818897637795
          },
          {
            "duration": 0.3266666666666662,
            "durationTicks": 49,
            "midi": 66,
            "name": "F#4",
            "ticks": 1117,
            "time": 7.446666666666667,
            "velocity": 0.9448818897637795
          },
          {
            "duration": 0.3333333333333348,
            "durationTicks": 50,
            "midi": 70,
            "name": "A#4",
            "ticks": 1167,
            "time": 7.78,
            "velocity": 0.9448818897637795
          },
          {
            "duration": 0.1666666666666643,
            "durationTicks": 25,
            "midi": 69,
            "name": "A4",
            "ticks": 1217,
            "time": 8.113333333333335,
            "velocity": 0.9448818897637795
          },
          {
            "duration": 0.16666666666666785,
            "durationTicks": 25,
            "midi": 67,
            "name": "G4",
            "ticks": 1242,
            "time": 8.28,
            "velocity": 0.9448818897637795
          },
          {
            "duration": 2.326666666666666,
            "durationTicks": 349,
            "midi": 69,
            "name": "A4",
            "ticks": 1267,
            "time": 8.446666666666667,
            "velocity": 0.9448818897637795
          }
        ],
        "endOfTrackTicks": 1616
      }
    ]
  }